<mxfile host="app.diagrams.net" modified="2021-09-03T11:09:06.105Z" agent="5.0 (Windows NT 10.0; Win64; x64) AppleWebKit/537.36 (KHTML, like Gecko) Chrome/92.0.4515.159 Safari/537.36" etag="xm3OST-lZiQT4HZAOr0I" version="15.0.6" type="github">
  <diagram id="l0skJkMOoLPE_B6u-_GI" name="Page-1">
    <mxGraphModel dx="864" dy="629" grid="1" gridSize="10" guides="1" tooltips="1" connect="1" arrows="1" fold="1" page="1" pageScale="1" pageWidth="827" pageHeight="1169" math="0" shadow="0">
      <root>
        <mxCell id="0" />
        <mxCell id="1" parent="0" />
        <mxCell id="JDvXGBGlwjeCY7y2N17N-8" value="" style="shape=image;verticalLabelPosition=bottom;labelBackgroundColor=#ffffff;verticalAlign=top;aspect=fixed;imageAspect=0;image=data:image/png,iVBORw0KGgoAAAANSUhEUgAAAk4AAABVCAYAAAC/12uEAAAABHNCSVQICAgIfAhkiAAAAAlwSFlzAAALEgAACxIB0t1+/AAAADh0RVh0U29mdHdhcmUAbWF0cGxvdGxpYiB2ZXJzaW9uMy4yLjAsIGh0dHA6Ly9tYXRwbG90bGliLm9yZy8GearUAAAgAElEQVR4nOydd5xcdbn/3+dM79t77yXZ9IQQmnSQqoiASlMv6hW9eK1gu1h+96qoSPHCVVFAepcqEEJJL9trtvc2M7vTyym/PyZsCNndbBpJZN6v174mmTlzzvc558z3fL7P9/k+j6CqqkqcOHHixIkTJ06cAyIe6wbEiRMnTpw4ceKcKMSFU5w4ceLEiRMnzgKJC6c4ceLEiRMnTpwFEhdOceLEiRMnTpw4CyQunOLEiRMnTpw4cRaI9qM60MSE96gfIzHRjNsdOOrHOV6J2//xtf/jbDvE7f842/9xth3i9h9N+1NTbbO+/y/lcdJqNce6CceUuP0fX/s/zrZD3P6Ps/0fZ9shbv+xsP8j8zjFiRMnTpw4xyPhwQH8TY3Ifj9KIIBoNKJNTkaXmDTzKlosCOK/lK/hsAj19+Gr3UWguQnZ4yHhzLNwfOJMRJ3+WDftqBMXTnHixIkT52NJsHM3rpf+gb+xYUHbC1otgt6ANsGBNjEJY1ExiWefi8ZiOcotPX5QohEmn36KqTf+GXtDFBG0WiaeeAz36/8k/drrsSyuObaNPMrEhVOcOHHixPnYMfX2BsYf+isAptIyHGeciS4pGdFsRgkFkZxOom7XzKsSCKBGIyihMNLUFJHhYQLNTUy98U8Sz7uAxPPO/5f3toSHhxm5/49EBgfQZ2SSfNmnMFdVg6LgevVlpt58nZH7/0jBz/4f2oSEY93co0ZcOMWJEydOnI8VUxvWM/7wg2hsNjK/8u+Yyyv236i4ZN59yMEg0+9swPXKSzife4bI8DAZX74JQRCOUquPLd6dOxj9y59QwyEcp59B6pVXIxoMM5+nXnElupQUxh9+kPHH/k7WV/79GLb26BIXTnHifIyISjLT/gjT/ghJNiOJNsOBvxQnzr8Q0+++vUc02cn59vcwZGcf0n40JhNJ511AwulnMPi7O/Bu24KppISEM88+wi0+NMID/Uw88ThRtxMA0WjCunQZ9jVr0aWmLng/qiThfOE5XC+/iGAwkPmVr2FbuXrWbR2nnYFn8yZ8O7bja6jDWrP0iNhyvBEXTnFmkGSF+k4noYiEKAikJBgpzfnXc7eqqsr2tnHqdk8iyQoqUF2YxGk1WYjiv+Zo0ReM8vTbXbxbP4Kyp663RhRYtziTi9bmk5JgOsYtPPIoyp765QKI/0JeAEVVebd+mOYeFxFJQZYVTl+Ry/Li5H/Z+/dIERkZZvyRhxGtVnK+8z0MWYcmmj6IaDSRedPX6L/9J4w//iiGgkJMRcVHoLWHhhKN4nrpH7heeQlkGY3NDoA0OYmztwfnc89gKq8g4axzsC5dNm/Ae7BzN2MP/Y3I0CC61DSyvv4NDNk5c24viCLp115P3+0/YfzhhzDfXoFoNB5xG481ceF0AFRVpbHbxagrgE4rYtJrWFKSgsnwr3PqVFWlocvJY+s7GXPtmw9jZXkqnzunDIf1X8Mz0T/m5ZHXO+gYnN7n/Z3tE7xbP8K155WTnzF77o4Tlc1Nozz65m58wSjpSWaKMm3YzHoaupy8Uz/MxsYRrr+ggnWLM491U48IPSMeHv5nOz0jsdxxoiBwSk0GV36iFLPxxP7dDo77+NurbXQNe/Z5v7nXTWGm/V/y/j1SqLIcm2qKRsn40k37iKaoHGUq7EEURDSiiElrQi/qFjztpktKIuPLNzH0+zsYue9eCn/xPwjaY3OvjT3wZ7zbtqBNSiL92huwLFoMgBwI4Nu1E8+WTQTbWgm2t6FNTsa6bAWWmiUY8/IRtFrUaBR/UyO+XTvx1e4EwH7qaaRe8dkFBcEbsnNIPOc83K++jGfLJhLOOPOo2nssEFR1z/DzKPNRJMBMTbUdseOoqsqujkn+sbGH/nHfPp8lWPVcc3YZK8pTj6v57EOxX5IV/vRiC9taxxEEOH1pNgUZNhRFZVPzKJ2D05gNWr50cRVLS1KOUsuPDAeyf3vbOPe/0IysqCwrTeHy04qwm/WEojLPvN3FttZxREHg659efNzb+mHmsv3FTb088043Bp2GS08p5OyVOWg1sRGmoqhsbRnjkTc6CIQlvnLpIlZVpH3UTT8ipKbaGBqe4sm3uli/axAVKM62o9dqcHpCjLuDJNoM3HBhBYsKk491cw+JHW3j3Lfn/l1VkcanTy/CbtETDMu8sKmPt2sH0YgC37pyCZUFSce6uR8ZC+33nC++gPO5Z7CdtJbML93EZNDJm/3v0jXdw4h/DEVV9tleJ2qx6CxYdGasOguiIBKRI0SUKBE5SkSOIAoCJq0Ji85MWWIJFe90EXlnIxlfvgn7mrVHy+R9+KD9vrpahu++E2NREdm3fAeNaXZPcnh4iKk338CzZTNqODTnvg25uaRd8wVMpWUH1aao203Pd7+FsbCQvFt/fFDfPViO5HN/tn3PRlw4zUIkKvOXl1tjYgJYXZXOirJUZEVlcMLHa9v6keTYw/crly5Cpz0+cnscrP1RSeGPzzVR1zlJcbad686vICfVOvO5oqq8XTvE4291oqrwvWuWU5RlPxpNPyLMZ/+21jHuf6EFvU7kK5dWU1O8vzBq6HJy77ONCILA9z+3/IQauX/YdlVVeeadbl7a3Eey3cC3r1pGepJ51u/2jHj49aO1RCWFr39qMUtOMNEIkJBo4cf3baSp20VmspkvnFtORX4iEBscvLS5jxc39aKoKrdcueSEE0+1uye499kmdFqRmy6p3u8apabaeH1zD/c804hBp+G2a1eQmXziL5EPhiW2towRlRQcVj3pieb9fpcL6ffCQ0P03f5jtHY7Sbd9n1fHNrFxeCuKqqATteRYs0gzx+J+JEUiKIfwRwL4on78UT8hOQyAgIBeo0Mv6tFpdCiqQlAKEpYjADi8Etf9w4U2P5fiH/3sKJyR/XnffjkYpO/HtyF5psn/8e0Lit1SolGCHe34G+uJTk6CLKOqYCotxbpsOfrMrEN2Dgz+/g4CTY3k3/5LDFlZh7SPhRAXTofJkTiB0/4Idz/dQNewh5JsBzdcWLFfBzTmCvDAK210DEyxpiqdL19cdVzEUByM/VFJ4Z5nG2noclJVkMjNn67BoJs9A2tD1yR3PtWAzaznh9euIMVxfMbDzGX/+6LJoBf51pVLKc52zLmPHW3j/PG5JhxWPT+8diVJ9hNjfv7Dtj+1oYuXt/SRlmjiO1ctI9kxvx3t/W5+90Q9CPBfN6yeU2QdjyiKygOvtbOxfpjFRcl8/VOLZx3MdAxM8ZvHatFrNfzoupUnjI2N3U7ueroBURT41pVLKcvdP+7w/eu/sXGEP7/USmqCkduuXYndfGIuj/cGIry6rZ8NtUMEw/I+n62sSIuFD1hiti2k3xv83W8INDeh++Ln+T95C9MRD6mmZC4qOo9lqYvRiPNnn44qEgBaQTOrkAhEAzROtrJjrI7iZ7dSNBRh4ouXsvakSxGFozuwft/+sb8/yPRb60m6+FJSLr38qB5zIXi3b2Pkvnuxnn0e4dM/SSAsIcsK5bmJGPRHLtv3sRBOmp/+9Kc/PSpH/BCBQOSoH8NiMRzWcSangvz333cxNOlnbXU6/375ollje6wmHasr02jrn6Kx20lEUqguPPau8YXar6gqf3qxhV0dk1QXJvGNeUQTQHqSGatJx462cVp63axblDkz3XM8MZv97f1u7nm2Eb1O5FufnV80AWSlWDDoNOzsmGD34DSn1GQcF6L4QHzQ9le39vPcez2kJ5r4/ueWL0j8pThMpCaY2NY6Ts+Ih3WLTwy7VVXlwdfaeK9+hLLcBL5xRQ36Oe7lZIeRJLuRba3jtPS6WFudcdx4i+eib9TLb5+oAwT+44qaGS/ah3n/+uelx6bZa3dPMjDmZW11xnEVTrAQhif9/M/fa2nocmI26vjk2nw+sSybstwEgmGJph4X7zUMk5FkJjPZcsB+z9/UgOsfzyOX5HNvRhdBOcSlxRdwfdXV5NiyFiRsNIKIRhDnPJc6jY4cWxarM5YTMIpoa1sYcPWyLTXI4pSq2cVWKErn4DQ72ydo7XczMOZlYipEgtUw5z08GxaLAXdnD2MP/Bl9VhYZX7oJQXPsy7BEbIlMvfUmU9393NHrYFPzGFtaxthQO4Q/FCUr2XJEYoUP97l/oH3PRlw47WHcHeBXj9bi9IS5+OQCrjmnDM084kCjEVlWlkrt7knqOidJsOopyDi201gLtf/pt7vZUDdMSbaDWz6zZEE/0qIsO95AhIYuJ6GITE3x8TfV8WH7hyf93PFYHZKs8s0raijLnf2h82GKs+2Mu4M09bjQa8VZR/jHG+/bvrFxhIf/2UGCVc/3Fiia3icn1cqYK0BjtwuNIFCet7DzdSx5Y+cgL23uozgndi8b9fN3xHnpNkIRibpOJxNTweM6psvtDfPrx2oJBCW+etmiWaeX3+eD935FXgI9I16aelwk2Y0n1JRzx8AUdzxex7Q/wsUnF/D1Ty2iMj+JrBQLRVl21i3OxGLS0dTjYmvLOHnpNopzE+fs91RZZvjeu5B8Ph49SSRs1vHFRZ9jXdaao+YJSsspZXr7VhJHpnktzY2LINXJFQiCQDAssbl5lEfe6ODhf3awqWmU5l4XbX1uGrtd7Gyf4J/bB+ge9mDUa0lPMh1Q+FosBgaefJpQdxdpn78WY07uUbHrYHi3YZjfPdWIIeilIDhK+uIKypeWUpBpZ2DcR0uvm3cbRijKtJF6kCt66yea+FvLYyxPW4xOo4sLp8PlUE/gqCsmmlzeMJ8+vYhLTilc0ChNr9OwpDiZTU2j1Hc5WVWZhtWkO5SmHxEWYv9btUM8/XYX6YkmvnP1soNS/JX5iexsn6Chy0lZbsJB3/CqJBHq7cW7bQueLZvx1+3CV1tLuL8P2etF0OoOq3TBB+2f9oX51SO1eAIRbrywkuXlC39ACntEw6bmURq6nCwvTcVuOb6nPCwWA5vqh7n/hRbMRi3fvXoZGUkHfy4r8xPZ0jJGfaeTxcXJx3Wep/Z+N/e/0ILNrOP/fe0UtAt0rFTlJ9Hc66Kpx0VumvW4jAUKR2TueLyOUVeAz3yimNOWzB8j8sF7XxAEynMTeLchlrLg5EWZhzyyV0JBIqOjhHp7CHZ2Eu7vJdzbizQ9BYBoNB6x+m3NPS5+90Q9kqxw44WVnLs6D82H9i0IAsVZDiryEtnSOsq21nEqC5KwzbFacvrtDXg2vUdLiYnOsgS+ufwmypNKj0h750IQBESNhkB9PQargw36AaYCARrrRO5/sZmd7RO4PWHKchysrkrnnJW5nFaTybLSVPLSrXiDUToGptnaOkbvqJfibAcW49zPFZNOoPvuexCNJtK/cP0xracnKwqPvbmbZ97uRq/VsGZlMba2neSnmFj5qfOoLkzi7JU5OCwGGrom2dw8RrLdSF76wsX9I21P0ecZ4My80zBo9MdEOH0sYpyUcBhpyo3GZkNj3reT7Bnx8Psn6/EGolz5iRLOX5N30Mfd2jLGfS80U5xt5wefW3HAXCohKUTnVA9jgQnGAxNIioxZF1uZkWfLodCRj0l78LE1B5rrreuc5K6nG7CadNz2hRWkJR58jEfPiIdfPLiTJLuB/7px9YI65KhzEvcbr+N57x2UYHDebXWpaZgXLcayeDHm8sp9MtMeiPftD0dk/vuRXfSNerns1EIuWVe44H18kLrOSf7wVAP56TZuu3bFYU9PhuUIQ74RhnzDTIU9+KMBQlIIURDRihqMGiNWnQWr3rLn1YpVZ8Gmt2DUGOcV82OeMD++fzOCAN+5atkBpyTno7XPza8frSU71cJPrl91XE7LOqdD3P637QRCEt+5ehnrluceVB8zPOnnpw9sw2LS8YsvrcE8z4Ppo0aSFe5+chcTbd2sydZzaqEZVZIQzWY0ZguGnFx06en73A+z/fbfrhvib6+2U1OczDevqFnQYDAyMY6/sYHQ7g5CfX1Ex8fm3V4wGLAtX4n95HWYyisO+aG9ezDmaVIU+ManF7Oo6MAe7eYeF3c+VY9WI/K9a/ZfzCEHAnT94NtEwkEeviSVG9f+G2WJ82cDP1IooSBd/3Ezckoq951uIaLxEOmpxhEu4fQlWZy8KHPeuMPBcR+PvNFBW/8Ueq3I584p49S5xHNrHR13/J7E8y8k9Yorj5JFByYYlrj3uSaae1xkpVi4+dOLSUsw0fvDHyC5XRTfefc+JWna+93c/Uwj/pDENWeXcvbKA3vKpsNebtv4c4ocBXxrxVeBYxPjdMgTjL/85S+pr69HEARuvfVWamqOn6J+qiThb6xneuN7BHd3oPj9M59pbDYMOXlYly9nMLWYe17rIyLJXHt+OWcsPbRkaGuq0qndPcG21nFe2drHJ9cW7LeNoio0O9vYOrKTJmfrTLDhBxEVFbtPJtGrkKfYyRcSSceCCR2qJIMgIOj1iHo9GpsNrSNWaFKXlo42cf5plc5hN//7fCM6jcg3rqg5JNEEUJhp54KT8nhpcx9Pbuji2vPK59xWmp5m8pmn8GzeCIqCxpGAY/UaTGXlGLJzELSxh1V0cpzw0BChrk4CLc1Mv/Um02+9iaDVYiqvwLJoMZbFNejSDxyvISsK//t8E32jXk6pyeTikwsOyU6ApSUprFucwcbGUV7e0ndIAswZdFM/2UTdeBM97h6MYRlLUEFQIaoVZv4krYAsAh+wT5RVrEEFh08myaeQ4hdJ9KtYAjKGsIwuLCGIIrJWy5Sk4ZNaByWLykkbMRM1FqFNSj6k+JbK/ETOWJrFhrrhQ7b7aBIMS9z5VAPeQJRPnZVN2DTMyx27GXSO44v40Wv0mHUmko2JlCWWkGLaP/4wK8XCxesKefadbh5b38mNF1YeVpsmgy52T3Uz7BthxD9GWI4gqzIaQUOiwUGiMYFEQ0Ls1ejAoXdg01tmpotURSHc14uvtYXd727jnMkhdKoMgzCxdf/jCWYzxtJS7MtWYFmyFGbp4E9bksW21nEaupxsaR5j7aKM/bZRZZlgVyf++jr8DfVERoZnPhPNFsyVVejS0tElJ6Ox2xH2BFFH3S6iY6MEOzrwbN6IZ/NGDHn5pF93A8b8goM6d32jXn7/ZAOSpPL1Ty1MNEEsae1Nl1Rz73NN3PVMAz++btU+nuHB558Af4AdS6xcufLzH5loCoYltre7UW1ZZI72o+66EGF5A8bCNr667AyKE/MPuI+cNCvfuXoZW1rGeOT1Dh54pY3eUS9Xn12630Bm7J9vAGBZt46e6T56PQN4Il4yzGnk2LLItKQf9QB1byDC75+sp2fES01xMjddUj0zqLbWLMH9+msE29tnckoBlOclcusXVvCrR2p59I3dJNmNLC+bP6N5/UQTKirL0hbPu93R5pA8Ttu2bePPf/4z9913H11dXdx66608/vjj837no/A4JScY6XzqBVwvvYjsjSWI06Wlo0tNRetIQPZ6iIyOEp0YB0BBoM+SRcZZZ1Jz4emHlbDMF4zyoz9vxReI8qPrVs64HlVVpWGymZd73mDQF+uU0s2pLEurIceUTvJEEHb3Em5vR+kbQJDl+Q4zJ4Jej7kgn1B6Cu50K8NJIj2aaVyRaabDHqJKFFUVMIh6ks0J5NlyyLPnUJ1UQar54OKVopLC7X/bztCEn//87NL9AuP9YT+9rz+H5tW3EUMRAslWxlaX4q8uINmaSqYlnWxrJhbd/uJNlaRYR97YgL+pkcjgwMxnGkcCxsJCjPkF6DMy0aWloU1MQmM2I2i1JCVb+e3D23mnfoTqgkS++Zklh+0tCYSi/OjP2/D4I/tc1/kY849TO9FE/UQjvoE+igfDFA5HSHdGEef7tYkiql6HqtVAKIwozX4vSCKEDCJhvYCggk5SMYYVdB/aXGO3YywswlhYhCEvD0NmNtrk5AV5BQIhiR/+aQu+YJSf3rCarJTDn86SpqcJtDTja28hND6G5HahhsMIOh3o9YjJSegzMjBm52ItKsGUmYMgiqiqSkgO4Qy6GQ84eXZ7HRPhUYwJfqJC4IDHTTYmsjJ9GadkryHJuHeAIckKP/vbDgbGffznVUupPsjcR0EpyJaRnewYq6PX07/PZ6IgIgoisiKjsv9F18gqyR6F/EmVnLEwGaNB9JG9eYQmHRqG0vRM2TT4zCKyKKCPqphDCmnuKBmTURJ8se1VAZTCLMxLlpOx8lT0aWkzgnlyKsiP/rwNrUbg519ag8NqIOp2E2xrxd9Yj7+pESUQO4eCXo+5ohLLkqWYq6qJOiwM+8cISkEicgRBEEkxJZFiSp757aqKQrBzN9Mb1uPdthVEkcRzziXl8isW1J/2j3n59aO1BEISX76kipOq9hd3B2J9/TAPv9JGWY6Db1+9DK1GxDnUw/h/3Y7fKBC45QZOKzz1oPe7UFRVxe0N09TjorHbSWNXbMHQ8uk2zp3YhnrBp5HPKOPe+r/gMNj5/qpvYtNbD7zjPYy7A9z9TCODE35Kcxx87bK9i5YiY2P03vY9gvnpPHiafiZtwgfJtKTz6dKLqUw6uFxMC8XlCXHH43WMOAOsW5zB9RdU7DPFGmhrZfA3/0PCmWeTds3n9/t+76iH//77LlDhuwdIefOH2vtpd3fy85NvJdEYiz09YdIR3HnnnWRlZfGZz3wGgPPPP5+nnnoKq3Xum+FoCydnwy6mHvk78qQT0WTCvu5UHOtOxZC71/2nqCptfW5eeKUOe18LNYE+0gITAGisNmxrT8ZxymmHXLuoocvJ75+sJyfVwg+vXUnbVBsv97zOgG8YAYEVaTWcqS3H1jdJsK2FQEfH3uRjgoAhNw9DTg669AyUBDv9qov2yDC7vX2EBBlBVdHKAhnaBJIkPZawgtEbRuf0YHL7sbvDaD5wNQMGgfE0E30JZvodNoQCGwYTTIZcROS9c8LZ1kyWpFSzNG0xWZaFrcLpG/Xy8wd34LDq+a8bVuNV3DQ5Wxlo2U7J+jbSXRJhncCmJRYaS0yos0xfZljSKXEUUJxQSLGjkGTT/l4zacqNv6kRf1Mjoa5OJLd71vYIRiNBQc+0rEE1mSksykBvsyKaLWgsVrQOB/rMTPSZWQddAqCx28nvnqgnJ9XKj69fuZ8YkxSJXs8Arc526iabGfWPkTERZU1zgILhPR2ZKGLML0CbnIzWkRATSeEwSjiMEgmjhmKvSjiMGo0iGo1ozBY0dju6tDT0aWnoUmN/isWEXwqwffcgT29sBW2YtSvsyIEhvAO92Cd9pDslMp0S1sC+akrQatHY7WisNjRWa2z6etZ/22lxw10vtlOS7eD7n1t+0OU8lGiUYOduxuu24m9qRD/m2ufzgEEgohPRyiq6qIpB2rcrimgFJpJ0jCZpmEjUMW3V4LGKBA0iqijg0NvJs+eQZ8umLDMfMazHqrMSVaIEogGG/WO0uzvpcHcSlEIICNSkVnN23ukUOWKj/r5RLz/72w6S7AZu/+LqAwaXQ2y64J2ut2hveg+7M4AtoJApmUnChEnQoxd1aDTa2MomrRYJhYggEwn6kf1+8PowuP0IH+h6vTYd/akmehPMjKclUlSWjdVgxqw1Ydaa0Gl0CAgoqoIv6scT9uAbHcTY2kv+QIDMiSjvX52wWY+al4UtMxebPYXusQAdbQPkmSRyJTfRiYmZ42qTkrEsWYJYWcZ4lpWB0DgD3iEGvEM4Qy7mIsuSwfK0GpanLyF9T/4jf0sz4w/9lejEBKaKSrK+djMa89ye7b5RL795LCaarr+gYu6pqAOQkmLl9j9tYUfbOKcvzeIzZ+Wx5de3ktM9xcilazn94psOab8fRlVVPP4IQ5N+hvf8vf9vf2jvDEJ6oomTF2dyUrYe989uxVy9iJxbvs1rvet5oftVShOKuHnplw+YAuGDhCOx3ILb28ZJtBn42uWLKM5y0PzQH9G9vZVXT7YzVJrM8rQlFDrySDDYGfaP0T3Vy67xBlRUFqdU8fmKz2DVH7mYvt5RD394qoEpX4RzV+Vy5Zkl+63GVSWJrltuRmO1UvDLX836fNknjOTalaTNEj/ri/r5wXs/I9eWzXdX3jzz/gkjnH70ox9x+umnc/bZsWKG11xzDb/4xS8oLJzbpS9JMlrt0Vsi+ehXbyRrdJqmEgcDNTUUZCyiOq0Ms8GAazrEiNPPO7VDMyVFzjspnxsvrobxEcbeWM/4W28jeWJeKnN+HgnLlpKwpAZrSTE6+8JXy939ZB2vt28lrXyYaXmMZI/CKVIGVW4DkbbOmWMAmLKzcNTUkLCkBsfiarRzCM+IFKF+rJWW8d10u/vocQ8QkvaOLARBwG6wkWNMpjRgJsslYx2ZJry7H6b2Cg2t1Yq9uhJ7dTXhogy6jSF2jDTQMNaGtGfqMN2SwuqcpazOWUppcuGcLt6oHOWeV9bzTlct1gw3YnCKNY1+FncGEYDA0mIsV36SjMwCzHozkiwRksIMe8cY9IzQ5eqjw9lD+AN2JBod5DqyyLFnkGROxKq3YNIZUFUVRVUISRHCTidS/zDqhAtxcgrB44dAGMUXQh+WMEYV9JIya5vfR85KQa0oRLu4DH1pMSa9AZ1Gh0bQoBW1aEUNGlEz86oRRP70QgNv1w1w7rosTl6WjCs4xeD0MH3TQ3S6+mbsSPYLXNgok9Q9CYC9uoqM884lYflSdLYjs7opHJV5+JVWnn+nC4NOww+uXz0T/K4oCh3OHrYP1bFpYCehyUnSXRJFIROlERsOr4Ti9RH1eFFCc2cMnjmWycYIFlJL8qleVYkpOwtTdhbGtLR9ljyrqork8+Hv6cW1u52RnduRO3rQRGPCTRJhOFXHWK4NpSwfY3YWNqsDo9aAioqsKESnp1FHJ9GMODGOuLCOerC6Qswm1wSjEZ3FgtZqQWuxoLGY0Zr3vFpi7+mTk7GVlUByIpsHdvJa59t0u2OeocrUEi6pOJdlmdU89HIbT63fzSWnFvHly2afAlBlmb7ardSvfxG1pXSdKFoAACAASURBVIsUtzRruxaC1mbFnJuLOS8Xa2kJk4m53PX6AEMTPpZXpPGdz69c8CITRVUY9Y7T0lXP+JbN0NZD8lgAa3D234Bk0KMWZREuSGM0z86gOUK/ZwR3cN8SRDaDlaLEXPITcnEYbBi0eiRFYtw3yZB3jObxjpk+46Sc5Vy56CJyHJnI4TAdv70T15atmPPzqPrxDzGk7O/Rrm0f51cP7cAfivKNK5dx9uqDjy39IKGwxPfufo/usUmWFWzjvNe6CGQnctbd9yMeYtyVJCu09rpo6pykqdtJz/A03kB0n21EATKSLeRn2llcnMKKijQyUywz4qDulm8T6B9g9UMPoDGZuGPj/WwbquOisrO4dtkVB9UeVVV55q1OHny5BVEUWPkJF0sffglzWGXk+1dxWc0nMev3Fxy97gH+WvskLRO7ybSlcdtpN5NmPfwkt5sahrnjkV1EJZkbLqrmstOL5xx0t/3Pb3Bu2syye+7EnDN7rbuXN/Xwx6cbyE618utvnIrtQznI1ndv4n+3P8Tnai7n0spzD7v9h8MREU5XX301v/zlL+cVTkfb4/Ty9i1sGtyMyzqOoIl11qosoniTUPwOFL8drWRjRWEeZy7N3y94VpUkfPW1eDa+R6C1BTW69weicSSgz8hAm5CINjERjcWCaDYjGgyxOX9RJBD00DfZTf9IB5opLw6vTPqUgi66d8SvTUzEXFGFubIKU2UVugPEJc1HVJEIS2EUlJlyAO8rb48/wlMbunivcYQkJcAXyjWke4YJtrcRndw72hTNFkzl5ehKihlK17NLM0qzq30mC65ZayLTkk6GJQ29Ro+iqgSlIMO+UUb9Y0iqjD6isKQtxOq2IFpJRpOeTuYXrsdcceCYEVmRGfQN0zXVQ9d0L32eQdzhqUM+JzN2KSqGSGz6yhBRMUYUbAGFpGmJlCmJjMko2j3PlSmrSEuRiZYiI37zoQn7dHMalbYCquqc6N7dDpKEqbyC5Esvx1w2dwzYwaKqKs29Lv7++m7GXAHSE03cdGk1BRn2WUddiqrQ6trN5uFtNEy2IKsyWkFDTWo1J2euptSah+r3I3u9yD4fss+L7PUh+zzIHi/RiXFCIyMoU7N7+USjEdEUC1yWA3740DSzy65hONuCWF5CVs0aStPKSTA4DiruSgmF8Pf28vZr23ENjJKpCVGSqEEMh1CCQeRAACUYgHm6MY3NFpuuLCzClWpmg9BNvb8LiE1jnJa1jpf+GWJyQuEHn19BSY4DVVWJjo/ha2thtHYLakcXukjMPlkUkHMzSClbjLmgCF1KCtqEWL+ARkQQRFRVicUlyjKqJKHKMqJej2g2I2g0hKMyuweneG1rP829sfN7/po8rji9+JAK9b5//VVVZSLgpLu/kcGRDsYm+wmGfASMIj6ziN8k7hNHB+zx3GWTa80mx5ZNni37gNcpKAVpmGhhw+BG+r2DCAisyVzBZcUXYtWamXjs70ytfxNtSgq5370VXVJsGlSSFZ59t5tXtvSjEQVuuLCCkxcdXo3E920fdk/xP+/ezVUbekjyyOR+/zbMJQe/gq5/zMt7DSNsbR3bRyilJ5rISrGQnWohK9lCVoqFzGQzunkcApPPP4vrH8+T+ZV/x7ZyFUEpxK933M1YYJwbqq9hZfrSg27fjs5BHmh+hCRllC+85MK4cil5X/mPeb+jqAovdL3K6/0bsOmtfG3JjeTZ5i7WOx/eQIQn1neysWkUg07Dv11SxbLS+WOTpje+y9gDfyblM58l6bwL5tzuibc6eXVrP2U5Dv7zqqX7nNs/1v+FJmcbPznpu6SZ9wq/E8bjdNddd5GamspVV10FwFlnncXzzz9/TKfqIGZk/5CTrX1tNLta6Q9041P37/StOgtGrRGTxoBRa4z9aYyYtLH/mxUttmE35v5xdGNuNKMTMO2dt3P+MCowZUggs6YSe1kp5srKBQU3HyqyojDujfDW9n42No4SDEvkpFq57oJyirP2isSoc5JgezuB9rZZhZSxrBRPTjKtiRGadJNMhFz7xWhYJA2VPgtVfRES2ocQJJmAxojjk5dQcOG5hxUrFpRCjPrH8Ua8BKQgISmMKAgIgohO1IGkxedX6RkK0N7jwzUtY9IauHxdKVecW87kpAdFVZBVGVlRiCiRWH0pOUpYjhBRIoSDftSuXjSN7RibuxGjEqooMF2ew8SKIryZCciKhDyzHxmNqMHnl2nq9GDTW7nspEqybelkmNOQGluYePwRJKcTbWIiqVdejXXlqiNyrVVVxTkdorHHxfqdgwxN+hGAs1fm8qnTi2YSlx6o8/BGfGwb3cWmke2M+mMrpex6G4uSK1mUUkmRI3/OuIvmjhEeenQjhfoQl1VZCY8NEZgYJer3oYQChJEJ6SBoEHEl6CA7g5TyGsqKlpNryz6swNSmHiePv9nJ0KSfkhwH37yiZr+l2aqikGTTMd4/jhIIIAcDKIEAkbFRQj3dhLq7kVzOfb4jpCbjtGsY0PrwG4XYHR42YAuK5AHmSS96/15v6LRFxJmfRMbytVSvuQCd6cCLKwIhiaFJH1O+CG5vmClfmClvmFFXgIFxH7IS+11V5idy6SmFh5UvbK7rr6oqvqgfd3iKTW09vLFrgDSHmc+eWUqKOYlkYyLGQ1jBCzHP55grQNtUG+9NbMAZmcCoMXJx0fmcmr2GqRf/gfOF59BlZJBw87fZ1hfgnfphRpwB0hJior8w8/Bz36Wm2mjs7eQvzY+QvbmTtY1+ah1l5N14I2urFxYzpaoqLX1uXt7cR2tf7JlhNelYVZlGdUESZbkJh5RqJtTXS//Pfopt7clkfvHfABj1j/PrHXehqAo3L/u3mWnjhTAemOCPDQ8wHphkdZ2GtS0j7Kg8l7XXXLSgc7lhYCNP7X4Bk9bILcu/SpZ14TFlbm+YLS2jvLKlH18wSl66lS9+sorctAPHa0nT03T/5zcxlVeQ+53vz7mdoqrc93wz29vGWVqSwlcvi5U0C0SD/OC920m3pHHr6lv2+c4JI5x27drFXXfdxQMPPEBzczM///nPefTRR+f9zrFKR+CN+OjfM2c/GXTiDLmZDnsISSFCcmjGu3IgREXFElSwBBSMEQVDVEUrqYiqiqiAw5pMfkoRRZkVJGTk80aXn6fe7aM0x8F39gQsHg6TU0EGxn04PSFc3jCBUJRQRMYbiOLyhnF5QkT3TFFZjFouO7WIM5Zl7ZcH5cNEJycItLcTbG8j0NGGNDk585mg16NJSEC1W1EFQJLB50eZ2LuNLi0db/ly7h1KwJFk40fXrTqkDkaSFXpHvfSMeOgf9TLlC+MLSQRDEpKiIMkq/mB05mEDYNBrWFOZzqdOixU7PZQfkBIK4tm6lan1bxAZGgTAWFhEwllnY1u5ej8R+NBr7bxVO8SFa/I4P8mH+7VXCHa0g0ZD4jnnkXzRJQcdQwXgCUQYdwdxeUKxazwdxukJ0Tfmxe2NPcA1osCqijTOWZW7Xye5UNtVVaXX08+m4e00TDbji+5dcZpgcJBhTptJhyAIAoqqEpbDdIyMMemfQmsOogj7rghNM6VQkVRGZVIppYnFC06lEZUUopKCRiOgEQVkWSUiybg8Ydr73dR3OWntcyMApy7J4uqzS+fMcH8g+6XpKUI9PTEh1dNNqLdnJih6NnwmkZFUPd7cZKyVVSyt/gQ5tgPH4Iy5ArzbMEJLr4u+Me+sYy2NKFCQYaM428HK8jRKcg49dcT7LPT6/+XlVt5rGOH0pVlcd37FQR9n3B2zr7XPTd+o9wO/RwVNej+67E4ErYQQcGB3LWdVZzvVw3WM6RN5JPtcZL2Rkxdl8NkzS49I1mhVVanz1PG32qewTAX5witTiCYr92ZfjEfWcO6qXD7zieI5+0FFUdnVMcFLW/roG42dv8r8RM5emcPiouTD7rdVVaXnu99CiUQo/u0fZqa3GydbuL/xQfSinm8s+zL59gMvxe9wd/GnxofwSwHOyTuDpU/sItzdxZ2FnyGkMbKqIo2zVuRQnG2f095wVObN7i28NPQ8RsHCSu1l6BXrzHXUakR0GgGtRkSrEQlHZZyeEMOTfjoHp1EBg07DZafGCoYf6PnyQfp+/l+EB/op/t1d88a+RSWZPzzVQHOvm0VFSXz98sVsHd/GY+3PcmnRBZxb8Il9tj9hhBPAb37zG3bs2IEgCPzkJz+homL+H+HxWqtOURXCcpigFCIkhQnJIYJSmNAeb0dIDu8RWWFCUpiwHMag0WPUGrHrbeTassmxZWHV7Rtwp6oq/7tHOX9iWTafP7fsoDwQqqqye3CaTU2jtPS6mJyeOx7FZtaRZDNSXZxMRW4sOdyh/uD3CqlWwoODSG73zApFBAHRZMaYn48hvwDLosWx3C2CwDPvdPHipj5Kchx8/VOLF1QjS1VVOgam2Nw8xs728X0CLAH0OhGzQYtWI6LRiFiNWhKsBpLsRqoLk6jMT9jHlXs4PyBVVQm2teJ+83X89XWgqohGI6bKKiyVVWgcCYhGI0Gni/de2ULG1ABJ0dixLItrSP3s1egzFjbloKoqo64AdbsnaelzMzDuw+OfXcDbzDpKcxIoy3GwqjJ9zoSUh3rv93oGaHG2M+AdZMA7xHRk7n0IigY5ZCJJn8JJJcUU2HPJt+di1x84dmtwwkdLj4vOoWl6R714AhEi0flj0SCWBfuqs0oPuJrxYO1XVRXF7yfqnNxzfwtEFIkndg5R64qwdkUu15y2DJ24sId7a6+LV7cN0Ngd82xpRIGiLDvF2Q6SbAYSbQYSrLFXu0V/xHNjLdT+SFTmlw/tpH/cx8UnF3DZqQdO9quqKq19bv65fYDGLicqMfvy0m0UZNgw6jVoNSLBiIQzME2/ZhsBUx+qCoIrm3PqfFSN7Saclkv+d76LPfHwYv1UVWUqPM3O8Xo2Dm9lPDCJVTRx/Xsymt5BMr/67/gKqrjr6UZGXQEKM22csSybleVpmAxaVFVlaNLP9tZxtraMMT4Vi8tcUZ7KBSflHxEv2AcZe/CvTL+zgdwf/BBT8d6UCDvH6nig+VGMWiM3L/3SnOJJVmRe7n2D13rXIwgCV5d/mjW2Crq+9Q1MJaXovvqf/N+zDfSMxK6/2aClJMeB2ajFoNMQDEu49wyunZ49g7D0XvT5bSghM+HWNRA9cL68khwHa6vSWVWZfkiDY+cLz+F84Tkyv/I1bCtXz7ttVJK559kmGrqcVOQlIBe/y5B/mJ+vu5UEw74DjRNKOB0sx6twOpqEIzK/eGgHgxN+zliaxTXnlB2wwwxHZN5tGOat2iFGnLERsdmgpTwvgZJsx0y9LYtRi8mgxWzQzpRMOVr2q9IeQaOZvcAlxFys97/QzLbWcZLtBm7+dM2cD7tAKFZ2YP2uwRkbE6x6lpelUpztoCDDRorDOG/swGwcKfsjE+NMb1iPr7Z2zgSAkiDSbi+k7MrLqV6zaEH7DYQkNjaNsOED1xYgxWEkJ9VKRpJ5z/U1kGzfe50XIriPmO1yFF/Uhz8aa5+4Z4rUrrehyhrueLyO7mEPpy3J5HPnlM9b680XjLK1ZYz3GkboG9vbNrtFT6LVgNmoRa8VkVUVWVbRakT0WhGrWUdpjoOy3IQFF5Q+UvYHQlFu/9sOxt1BLj65gEtPKZw35qhraJpn3umemd4pyXFw1vIclpamzFv/8UhzMPZPTAX5zWO1TEyFOKk6nRsuqJz1OiqqSnOPi39s7KVzKBY8XpLt4Mzl2SwrTZ23UGuHu4snOp5jxD+GoMKVtSIZbaPoy8rI+49vI+r3HViF5QjeiBdPxLfPqzfiwxvxEVYiSLJEUA4xEZicWXavFbWcnLuCk7d6Ca7fgHX5CjK/+vWZ8iYPvNLGjrZY+hntHk9KJKqg7Hns6bUia6rSueCkfDKOUtFn747tjPzvPSRf9imSL7pkn8+2je7iwZbHEQSB03NO5pOF52DSxu55WZFpdXXwcu8b9HkGSDYmcl3V1RQnFODZtJHRv/wfKZ++kvJrP8v4uIfGbhf1nZM0djv3G2gLAiRYDaQnmshIMpOSYKJP2EGTfysp+jQ+m/8FDBojkhTz7kuygiQr6LQiyXYjyQ7jAVecRuUoLa4OFFUhxZRMqikZo3avIAt2dzPwy9uxn3IaGdffeMDzFpUU7nuhmdr+How175Eq5vH9k7+yXzviwukwOd6EE8RyXPz+yQYGJ3xU5CXwlcsWzeqNmZgKxgTTriH8IQmtRmBFeRqnLcmiPDdhQQGjx9p+RVV5cVMvz73bg14rsrIijRXlqWSnWPAEokxMBWdKtkiyglYjsLIijVNrFm7jfBwN+yNjY4S6OpEDfpRgENFsxlhYTHvYzL0vtgICX720mmXzJG4bnPCxftcQm5tGCUdltBqBmuIUlpWmsLg4+YhUsP+orr0/FOXXj9TSP+4jxWHkijOKWVWxN2+QLxilvX+Kra1j1O2eQJJVREFgcVESqyvTKc2Jif8jHet3JO0fcfr53RP1TE6HWFyUzJcuqtxnhY+qqjT1uHh1a/+MYFpUlMTlpxYdcW/FQjlY+z2BCHc93UDXkIfMZDOn1GSyqjx2Haf9EZp7Y4V0J6ZiD+BlpSlcdHLBQdmnqAr1E838s289A9ODXLjRQ8lAmMFsM1vOLUSjNxCQgngj3gWHTOhELammFNLMKZQkFLE6YznmjnZ2/+5O9BmZ5N72YzSmfcX2xFSQzc2j1HZMoqgqBp2GRJuBFeWpLClOmVcAHglkn4+uW27GVFpG7nd/sN/nLc52Hu94jsmgE7PWRLo5FaveQr9ncMYDvCp9OZ8tv3RGVA3/8W58O3eQf/svyVlSvs+1V1WVYFgiFJEJRWRMBi12i26/aTVVVXmi4zneGdpMkSOfry/9MgbNwfdFEwEnbw68w46xOoLS3soQWkHDhYXncE7+GYiCiKoodN1yM6LeQOGv7lhQH6CoKvdseYK24E7Cu5eiuDNItBkozrLzxYuqMOg0ceF0uBxr4TAXoYjE//2jhdrdkzMPzSXFyciKiicQoanHRedgbERnNek4c3k2Z67IOegH6vFif+3uCf7+egcuz/7J2CCWtfmkqnROXZKF4wjWgPuo7W/ucXHX0w1EJIWKvAQuPCmfvHQbWo2A2xumodtJ7e7JmWubbDdwxrJsTq3JOuK17z5K2wMhiRc29vDmzkFkRUWnFXFY9Gg04ky6D4hd51MWZ7K2On0mYd/R4kjb7wtGuf8fzTR1uxAFgcIsGwUZdiamgvSPeZnyxR70lfmJXLKu4JgXRD4U+yNRmYdf72Bz0+g+sYPvo9eJsZi6lbkHVUvsw6iqSr93kPbxdiyPvkRqn5uRdAMvnp6I1mzBprdi19uw623Y9NaZ/3/w1agxoBE0++U+CnbuZui3vwaNhrzbfrzg6fKPmvfje0ruvGfWGMioHOWN/nfYOLwVT8SLrMqYtCZWpi9lbebKfabxVEmi6z++jsZmp+CX/0Namv2Q731FVfhby2PsGKujIrGULy++dh8v0YG+u2FwIy90vUpUieLQ21idsQK73spE0En9RBPTES/FjgKuq7qKZFMSI/fdi3f7NvJv/wWGrAPnS5QVmds2/gJZlVmtfI6+UT+jrgCyovJfN67Gbj602NaFEhdOxxhFVXlzxyDv1A8zNOnf5zMBqMhP5KSqdFZXpR+yi/94sl9RVXpGPOxqn2DaH8Fu0eOw6KkuTCIndeFZcw+GY2F/z4iHZ97umllSPhtVBYmctTyHJSUph+1Vm4tjYfu4O8CLm/oYnPAx7Y8QjsgUZNooy0lgUVEyhZm2o7aK9MMcDfsVReWNHQNsbxunZ8Q7M72TaDNQkZfAuavy9quPdqw4HPt9wSjb28Zp6nZi0Guwm/VkpVhYVZF2RAK4P4gqSYz86T58O7ZjyMsn+5u3xBLCHgLendsZ/dP9qLJM1r9/A+uSg1/a/1Ex8fSTuF95iexvfgvL4vnLk6mqSkAKYtDo0c4SY+dvaWbot78m4exzSbvqmsO+92VF5v+aHqRxspU8WzZfXXLjAeMWxwITPNz6JN3TvVh0Zq4ovYQVaUv2Eba+qJ9H256hbqIRh97Gt1d+Hc2OJsb++mdSr7yaxHPPO2DbGiaaua/xb5yes44ryy6ddZu4cDpMjifhMB+D4z46BqcwGbTYTDqyU61HpAr9iWL/0eJY2t876uGdumF8wSiSrGI0aKguSGJxUfIR9y7NRvzaH137g2GJ4Uk/qYmmIzK1eqQ5ka6/qiiMPfhXPO+9g8ZqI/2667EuW7Hw70sS7n++yuSzTyPo9VR+79tIeQefr+mjJNDawuAdvyLhnPNI++zVh7WviScfx/3aK2Tf8m0s1YuOyLWXFZlH259h88h2ko1JXF99FUWOgv22U1SF9QPv8mL3a0QViWVpNXy27LI5U5moqsrr/Rt4vusVMi3pfLPoGkZ+8IOZbOoH4v0SK99f9U1ybbN7qE6oIr9xDp2cNCs5C8h9EefEoSDDTsH5xya+Jc7Rx2TQ7pc0N86hIYgi6dfdgCEnl8mnn2D4nruwrTmJpPMvxJA7dwZxVVHw1e5i8pmniI6NoklIIPsbt5C4YtFxLxqNJSUIOh2BlubD3pe/uQlBp8NUeuRqz2lEDZ+ruIIEg4NXet/gjp33sii5kjNy1mHVWxEFgbqJJraO7MQZcmHVWbi26iqWp83vPRMEgXPyzmA67GHD4Eb+MvACl2RnE+xoR4lE9lsk8EFaXR20uzupSiqfUzQdK+LCKU6cOHHifKQIgkDi2edgrqpm9E/34d26Be/WLRhLSrFUVaPPyESTkBBLaOrzEuxox9/UiOzxgCjiOP0TJF9yGVrHiSFmRZ0eU2kZgZZmpOmpQ56elKamiAwOYK5eNK/oOBQEQeCionOpTCrjhe5XaHK20uRs3WcbvahjXdZqLim6YME17wRB4NOlF+MOT1M/0URvhpnsoSjB3R1YqmdfkayoCs93vgzAJcVzZxo/VsSFU5w4ceLEOSYYsrLI++FP8Dc2MPXWmwSaGgl17p51W43Njn3dqSRdcOFxGwQ+H+bKagItzQTaWrGvWXtI+wi0xjxW5qrqI9m0fShOKOA/ln2FNvduOqd6CEohwnKYEkchy9IWH1KmeVEQub7qav5Qex9bHZ18Cgg0Nc4pnHaNNzDgG2Zl+lJyF5B49qMmLpzixIkTJ84xQxBFrEuWYl2yFGlqivDQIJGRYWSPB9FsRmO2YMjLx5CXh3CIBXuPB8zV1fA0BJqbD1k4+ZuaAOYUHEcKQRCoTCqjMunITQfqNTpuqrme3wXvIqqZYrxuG6mzxHtF5Aj/6H4NjaDh4qIDB5AfC+LCKU6cOHHiHBdoExLQJiQcdWFwLDDk5CJarbEi8qp60CtOVUUh0NIcKzqffWgFeo81Nr2Vr674N+re/BH5g25e2vYYF6y6cqaepS/q53/r/8pk0MkZOetIMSUf4xbPzokr3+PEiRMnTpwTBEEUMVdUIbldRMdGD/r74cEBZK8HS3X1R5bm42iQak6m/LSLABjb9i731P2ZLSM72DXewO92/pEeTx8r05dyecknZ/2+Z+sWen90K7LP91E2ex/iHqc4ceLEiRPnI8BSVY1vxzYCLc0HHacVaI5N05n/Bbxx2atPo+uxp1g8LPJX927a3Hvj2s7MPZXLSz4544X6IKqi4Hz+WSSXE45STryFEBdOceLEiRMnzkeAuaoKiCWxTDjz7IP6rv994XQUA8M/KjRWK+bySmht5mt5X2DaDCEpRLIpmSWpc9sXaG0hOj6G/eR1aMwLW9V3NIgLpzhx4sSJE+cjQJeSii71/7d370FRnWkex78Nza0BbRoBdbZAJ6MGAQ2EJGgqikRNvKDxAsFNh6IKR40RNEUCmLWAqlQuXlKzmqQ2CZWrkkoKys2SiVu6asZ1MsgYMQhOEuIwmSEmUe6XBsRu3/3DsUtiI72E5mjzfP47p99T/N56+5zzcN7T54TS883XKJsNnadzb4mwdVvo+bYOn0mT0Qe6x/PiAu6+m+6vzjLxuzai5i90apu2z44AMDbxQVdGG5Tc4ySEEEKMEMP06Vzp6aH3u785vY2ltgZsNgLuinVhspEVEBsHOh1dVaecan+5uQlL9Zf4TJqM369/7eJ0NyeFkxBCCDFCrk21dX/1F6e3sXz5JQABM92ncNKPNeL3myn0fFuHtb190Pbtx/4ASmGcl+T6cIOQwkkIIYQYIYZpkaDTOf36FWW1YqmpRh8cjPe/3J6PIRhIQOzdoBSdp07etN2Vvj7ajx/Dw9+fwHvuG6F0A5PCSQghhBghngEB+ERMouev57jS2zto+55v67jS00PAzNjb+jEEjgTedx86Ly9aD/43ymodsF3b4UPYOjsxzp037K+aGQopnIQQQogR5B8VDTYblpozg7bt+vL01W3c6P6ma/RjjYydk4i1uZmOis8dtrF2dtBy4Pd4BAQQ9PCt8d46KZyEEEKIERR4XwLAgMXCNUopuqpP4+Hnh2HqtJGINuKCHl6MTq+n5dPfO7zq1PLJf3Glt5fgpcs1fQTB9aRwEkIIIUaQz8Rf4RMegaW2BmtHx4Dt+s5/j7WpCf+YGej07vn0IK+gIMY8MJfLTY10nKjo91nfTz/RduwPeIWGYUycp1HCG0nhJIQQQoywMbNmw5UrdP65csA27cf/F/jnTdRuzLRoCTq9nuby/6T3b/UAXDr/Pedf/Xew2Ri3avUtVTgOKcn+/fvZvXs34eHhAMyePZsnnnhiWIMJIYQQ7irw3gQaSz+i48SfCJq/4IbPbV1dtB8/hj7IdPWZR27My2TCtHQZzR/v5x8vPEfA3fFYzlSj+voIWvgwAXHxWkfsZ8gl3OLFi8nLyxvOLEIIIcSooB87Fv+oaCw1Z7j0ww/4TJzY7/O2Y5+h+vowLl9wS11tcZXgpcvw+80UO6CZOwAACRJJREFULux7j64vTuJhMDDhtxtuyaLR/UdDCCGEuAUFzpqNpeYMHX/6IyGrU+3rr1zuo+3I/+Dh58fYOYnaBRxhhjsjiSh8jq4vTuI3dRpewcFaR3JIp5RS/9+N9u/fT0lJCUajEavVSl5eHtP/+fLCgVitNvR6597LI4QQQrg726VLfLF2A7bubqKfK2LM9EgAfjp0mL++9h/8asVyJmWka5xS/NyghVNpaSmlpaX91i1ZsoSIiAgSExM5ffo0BQUFfPLJJzf9Q42Nnb887SBCQgJH5O/cqqT/o7f/o7nvIP0fzf2/3fve/dVf+P53u/D09yf83wro/fvfufjBXmxdXUx+aRdeQUE33f527/8v5cr+h4QEOlw/6FRdSkoKKSkpA34eGxtLS0sLNpsNTyff9CyEEEIIMEROJ3SNmYsl7/Nd4TbUpUvg6UnIqpRBiyahjSHd41RcXMyECRNYunQpdXV1mEwmKZqEEEKIITDOS+LSD+dp/+wI/jEzCHl0Dd7jJ2gdSwxgSIVTcnIyzzzzDB9++CFWq5Xnn39+uHMJIYQQo0bov5oxPbwIr+BxWkcRgxhS4TR+/Hj27t073FmEEEKIUUmn00nRdJsY0q/qhBBCCCFGI3nlihBCCCGEk6RwEkIIIYRwkhROQgghhBBOksJJCCGEEMJJUjgJIYQQQjhJCichhBBCCCdJ4SSEEEII4aQhPQDzVvTCCy9QXV2NTqfj2WefZcaMGVpHcrkdO3Zw6tQprFYr69ev5+jRo5w9exaj0QhAZmYmiYmJ2oZ0gcrKSjZv3syUKVMAmDp1KmvXriU3NxebzUZISAg7d+7E29tb46SuUVpaSnl5uX25traW6Ohouru7MRgMAOTl5REdHa1VRJeoq6tj48aNZGRkYDab+fHHHx2OeXl5Oe+99x4eHh6kpqbe9F2btxNH/d+6dStWqxW9Xs/OnTsJCQkhKiqKuLg4+3bvvvuuW7wS6+f9z8/Pd3i8Gy3jn52dTWtrKwBtbW3cddddrF+/nuTkZPu+HxQUxJ49e7SMPSx+fq6LiYnRdt9XbqCyslKtW7dOKaXUuXPnVGpqqsaJXK+iokKtXbtWKaVUS0uLmjt3rsrLy1NHjx7VOJnrnThxQmVlZfVbl5+frw4cOKCUUurll19WJSUlWkQbcZWVlaqoqEiZzWb1zTffaB3HZSwWizKbzWrbtm1q7969SinHY26xWNTChQtVR0eH6unpUUuWLFGtra1aRh8Wjvqfm5urPv30U6WUUvv27VPbt29XSil17733apbTVRz139HxbjSN//Xy8/NVdXW1amhoUCtWrNAgoes4Otdpve+7xVRdRUUF8+fPB+COO+6gvb2drq4ujVO51j333MPu3bsBGDNmDD09PdhsNo1TaaeyspIHH3wQgHnz5lFRUaFxopHx2muvsXHjRq1juJy3tzfFxcWEhoba1zka8+rqamJiYggMDMTX15e4uDiqqqq0ij1sHPW/sLCQhx56CLh6ZaGtrU2reC7nqP+OjKbxv6a+vp7Ozk63nWVxdK7Tet93i8KpqamJoKAg+7LJZKKxsVHDRK7n6elpn5YpKytjzpw5eHp6sm/fPtLT03nqqadoaWnROKXrnDt3jg0bNrBmzRo+//xzenp67FNzwcHBbj/+AGfOnGHChAmEhIQAsGfPHh577DEKCgro7e3VON3w0uv1+Pr69lvnaMybmpowmUz2Nu5yLHDUf4PBgKenJzabjQ8++IDk5GQA+vr6yMnJIS0tjXfeeUeLuMPOUf+BG453o2n8r3n//fcxm8325aamJrKzs0lLS+s3pX+7cnSu03rfd5t7nK6nRtHr9w4fPkxZWRlvv/02tbW1GI1GIiMjefPNN3n11VcpKCjQOuKwmzRpEps2bWLRokU0NDSQnp7e72rbaBn/srIyVqxYAUB6ejrTpk0jPDycwsJCSkpKyMzM1DjhyBlozN39u2Cz2cjNzSUhIYFZs2YBkJuby7Jly9DpdJjNZuLj44mJidE46fBbvnz5Dce72NjYfm3cffz7+vo4deoURUVFABiNRjZv3syyZcvo7OwkJSWFhISEQa/U3Q6uP9ctXLjQvl6Lfd8trjiFhobS1NRkX7548aL9v3B3dvz4cV5//XWKi4sJDAxk1qxZREZGApCUlERdXZ3GCV0jLCyMxYsXo9PpCA8PZ9y4cbS3t9uvsly4cMEtDhSDqaystJ8oFixYQHh4OODeY389g8Fww5g7Oha483dh69atREREsGnTJvu6NWvW4O/vj8FgICEhwW2/C46Od6Nt/E+ePNlvii4gIIBVq1bh5eWFyWQiOjqa+vp6DRMOj5+f67Te992icLr//vs5ePAgAGfPniU0NJSAgACNU7lWZ2cnO3bs4I033rD/qiQrK4uGhgbg6kn12q/O3E15eTlvvfUWAI2NjTQ3N7Ny5Ur7d+DQoUM88MADWkZ0uQsXLuDv74+3tzdKKTIyMujo6ADce+yvN3v27BvGfObMmdTU1NDR0YHFYqGqqor4+HiNk7pGeXk5Xl5eZGdn29fV19eTk5ODUgqr1UpVVZXbfhccHe9G0/gD1NTUcOedd9qXT5w4wYsvvghAd3c3X3/9NZMnT9Yq3rBwdK7Tet93i6m6uLg4oqKiSEtLQ6fTUVhYqHUklztw4ACtra1s2bLFvm7lypVs2bIFPz8/DAaDfQdyN0lJSTz99NMcOXKEy5cvU1RURGRkJHl5eXz00UdMnDiRRx55ROuYLtXY2Gifz9fpdKSmppKRkYGfnx9hYWFkZWVpnHB41dbWsn37ds6fP49er+fgwYPs2rWL/Pz8fmPu5eVFTk4OmZmZ6HQ6nnzySQIDA7WO/4s56n9zczM+Pj48/vjjwNUfxhQVFTF+/HhWr16Nh4cHSUlJbnHTsKP+m83mG453vr6+o2b8X3nlFRobG+1XmgHi4+P5+OOPefTRR7HZbKxbt46wsDANk/9yjs51L730Etu2bdNs39cpd58EFkIIIYQYJm4xVSeEEEIIMRKkcBJCCCGEcJIUTkIIIYQQTpLCSQghhBDCSVI4CSGEEEI4SQonIYQQQggnSeEkhBBCCOGk/wNK52S0PWNEwAAAAABJRU5ErkJggg==;" vertex="1" parent="1">
          <mxGeometry x="99" y="65" width="590" height="85" as="geometry" />
        </mxCell>
        <mxCell id="JDvXGBGlwjeCY7y2N17N-5" value="" style="shape=image;verticalLabelPosition=bottom;labelBackgroundColor=#ffffff;verticalAlign=top;aspect=fixed;imageAspect=0;image=data:image/png,iVBORw0KGgoAAAANSUhEUgAAAlcAAABVCAYAAABkbMGmAAAABHNCSVQICAgIfAhkiAAAAAlwSFlzAAALEgAACxIB0t1+/AAAADh0RVh0U29mdHdhcmUAbWF0cGxvdGxpYiB2ZXJzaW9uMy4yLjAsIGh0dHA6Ly9tYXRwbG90bGliLm9yZy8GearUAAAgAElEQVR4nO29d1xb97n4/z4aCAmxkdhgwOxhM7xnHM/sOMtunDSpe9PerLbXaVb7bXx70/S2TW9/3SNtkzRNHDdpkrpZznAcL4yNMduA2XuIvUHS+f2BRWwHMENCAp/368UfoHGeh88Zz+eZgiiKIhISEhISEhISElZBZm8BJCQkJCQkJCTmE5JxJSEhISEhISFhRSTjSkJCQkJCQkLCikjGlYSEhISEhISEFZGMKwkJCQkJCQkJK6KwtwAWWlq6bX4MT08N7e19Nj+OoyLpL+l/tep/NesOkv6S/lev/rbUXadzHfe1q8pzpVDI7S2CXZH0l/S/WrmadQdJf0n/q1d/e+nuMJ4riS/o6Bnk5Q+K6Oobxk2jxNdLw42rFuDirLS3aBIzoKd/mMziZnJLW6ls7CIx3JsbVi5A56G2t2gSEhISElZk2sbVc889R05ODoIg8PTTT5OUlDT62oYNG/Dz80MuH7EYn3/+eXx9fWcu7VVAe/cgP913lqa2PuQyAZNZhLJWsksNPHJbEoE+LvYW0aoMDZsorGpHKZehVSsJ8NGgnIe7rN6BYf77xdO0dg0AoFYpOJrbwIn8RtYvDuSuaxeikF9VjuR5R0tHPyKgn6fGcnNHP4aOfjxdVXi5OqNymn/XqYSEtZiWcXXq1CmqqqrYv38/ZWVlPP300+zfv/+S97zwwgu4uMwvQ8DWXGxYbVsWwu3rI+gfNPJBRjXvpVfx7N8y+c+b40mK8LG3qFahf9DIL97IobS2c/RvXm4qHro1kTB/NztKZl1EUeSl94to7RrgmuRAtiwNxsddzalzTfzreCWfZtXS1NHHQ7ckztsHVmvnAMU17QTptIT4jp+nMBcxiyLvnajknaMViIC/t4bUaB3XL18wb9Yzu9TA797Ow2gaGeghlwncsT6CTUuCEQTBztJZD7NZJKukhTMlLUQHe7AiwQ+Vcn6socTsMi3jKj09nY0bNwIQERFBZ2cnPT09aLVaqwp3tfHyh0U0tfVx3fJQblsXjiAIaJyV3LYugmC9lr++d47fvJXHd+5cTGyop73FnRH9g0Z+8Y8cSus6SY70IdTPFUPHAMfzGvjx37PYtTmKtYsC7C2mVfg8u54zJS1EBXtw96YoZLKRh9HyeD+So3T8/p18cstaeX7/Wb51+yK06vkT/s0+b+Cfn5dRZ+gd/VtiuDc3rlzAwiB3O0pmHfoGjLzw7wJyylrxclMRrNNyrqqdd09UUVLTybfvSMLZaW5nX2SfN/Dbt/OQywS2LQ+mt3+YnNJWXj9USlN7P1/ZFIlcNve9rtmlBv5xqJTGtpHk54zCJv75eRmbl4Zw/YpQZPPIiJSwPdO66g0GA/Hx8aO/e3l50dLScolx9cwzz1BXV0dqaip79uy54u7G01MzK4lnE2X325PKhi5yy1qJD/fmm7cv+tL/63qdK4F+bvz3n0/ym7fy+PGDq4gI8pjycRxBf7NZ5KnfHaO0rpN1yUF8Z2cy8gshsayiZn7290xe+qCIYRF2bIq26rFnW/+apm5e//Q8rholT923FJ8xQkb//Y2V/HL/WQ6fqeXn+7P57wdW4O1um9DSbOpf09TNHw4UYDaLpMX6khjhzanCJvLKW8krb+WujVF8ZUvMqLFpa2yh+/N/P0NOWSuLI3U8tisVd62KwWETv9iXxfGcen79Vj57/2M5GgfIl5yO/nmlBn73Th4KhYxndi8nceGI17ylvZ8f/uUkn52to3fQxNP3LRm9hh2VifSvbe7md2/nAyKbloaweXkomeea+OBEJW8fKadvyMSDty2atXPVFlyuf9/AMDnnDfT0DbEkzg8PV5WdJLM99njuWWVLdfns50cffZQ1a9bg7u7OQw89xMGDB9m6deuE3zEbZaI6neustHyYDvs+PAfAtSmBGAw9Y74n0FPN12+I44//KuAHfzzBk7tS8fPSTPoYjqL/2ZIWCivaWLzQh3s2RdLW9oVXI9hbzfe/msbz+87y6odFmIaMbF4aYpXj2kP/1w8WMWQ087XrYxGHjeMef9fGSBTAJ2dqeeyXR9izYzG+npNf28kwm/oPG0089/IZhoZNPHhLAmkxegDWJPhRUtPBX94rZP8nJZRUtfH1G+JQq2zr3bGF7g2tvRw5W0uIXsvDtyYw1D9ES/8QAPdtiWJ4yMipc818//fHeWxHMkqF/YyP6er/l3+NhAK/c2cSfu6qS77juzsW89u38zhV2MgvXjvDvVuiHTZEOJH+oijyy31nMZrMl5yrW1KDWBXny/Ovn+XgySp6ega5/7rYOWlgXax/Z+8QL75/jsLKttEwryBAbKgnW5eGkBDubU9RrY4t73tWb8Wg1+sxGAyjvzc3N6PT6UZ/v+WWW/D29kahULB27VpKSkqmc5irhrauATIKm/D31pAUMfGJvTTWl7s3R9HVN8xPXsuiobV3wvc7Ih+eqgbgtnXhY96o9B5qHtuZjIfWidcPlXI4u262RbQK/YNGMgqb8HZzJi1aP+F7ZYLAzo2R3LomDEPnAM+9coaCirZZktT67D9USm1LD+sXB4w+rCxEBXvw/766hNhQT86eN/Ds3zKpaxl7Q+HI/PtEJSJw46qwL53HcpmMB26MZ0mMnvO1nbz0QdGXNqGOTmltJ2X1XSxe6DNmGoJapeChWxMJ0Wv5PLueDzOq7SDlzDmR30hRdQeLF/qQGq275DWtWsl3dyYT5u/K8fxGXv5w7q3jxQwbTfzmn7nklrXi7+3CDSsXcNeGhYT7u1FY2c7//SOH372dR9uFwhuJ6TMt42rVqlUcPHgQgIKCAvR6/WhIsLu7m927dzM0NLKDO336NJGRkVYSd37ycWYNJrPI1qUhk4rrb0gJYse1kXT2DPHTfWfnlIFVVtfJ+dpOkiK8CdSNn6On91Dz2I5ktGolf/uwmI8za2ZRSuuQca6JwWETaxf5T2q3KwgCN64K496t0fQNGPm//dm8ebgMo8k8C9Jaj7L6Tg5l1RHo48KOa8e+9rVqJf911yI2LwmmobWP/3k5k2O5DXPmwdXY1kdGYRNBOi3JUWMXmMhkAruvjyU8wI30gkbeS6+aZSlnhmUTtGVp8LjvUasUfOuORXi6qnjjcBnpBY2zJZ5V6OkfZv+hUlRKOXdvihrT8+birGTPXcmE+rlyNLeBt49W2EHSmSOKIi9/WExZfRfL43zZe/8Stq8NZ8vSEL53bxp771/CwkB3Motb+N4LGRw4VsHgkMneYs9Z5Hv37t071Q/5+/tTWlrKr371K44ePcozzzzDkSNHqK2tJTY2lo6ODp599lneeecdQkJC2L179xXdxX19Q9PVYdK4uKhm5ThTYSQhthAXtZL7r4tFPkmXc0SgOxqVgsziFtILmnBzURKi1074f3YE/fd9ep6G1j7u3Rpzxf5OrhonEiO8ySppIbO4BYERr8d0Qw+zrf/LHxbT3Ts85bDXAj83EsO9OVfVTnapgYxzTSjkMgJ1LjNKHJ4t/d8+Uk5Ncw8P3BiPv/f4FcMyQSAh3JsgnZacslZOFzVz9rwBJ4UMPy+NVXN4rK3765+ep6a5h12boybcJMjlMhZFeJNZ1ExWiQEfd2e7VEtOVf+m9j5e/aiEMH9Xbl0bPuE1p1YpiFvgRUZhE6fPNRPg40KAg7WMGU//909WkVfexm3rIiaMGigVMlIidWSVtHD2vAGtWkl4wNypaHZxUfH24VI+zKgmzN+Nh7cnfqn1i7tWxaokf7zdnCmp7SSnrJVjeQ0YjWY0KgWuGqXDhn0vpqtviN+8lYdaJcff28Wm9z0Xl/Hz1ATRQbaKs5EL4ig5RxdzIr+BP797jlvWhHHTqrApf/54XgOvflzCwJCJhHAvti0LJSrYfcyHsL31b27v46k/niTEz5UffDVt0hdqc3sfz7+ejaFzgJQoHV/ZGImXm/OUjz+b+lc2dvHDlzJJjvThkduSrvyBMegfNPLm4TKO5tZjNIlo1UoWLfQmKcKH+AVeaJynlqc0G/r3DQzzX785jrvWiR9/Y8WkK6yaO/r55+EyzhS3YL5wS3JzccLDxQmzCMMmMyqFDL2nGj9vDWuTAsYsDhgPa+re1jXA479Px99Hw39/bemkdKxt7uEnr2XRN2Dka9fHsirR3yqyTJap6v/KR8V8llXHN2+OZ2ns5HoUltV18vz+bIxGMw9vT2TRQsdpGTOW/mZR5Infp9MzMMz/9/DqSbXNaG7v47lXztDVN8yuzVFsSAmylchWRa115r4fHkSlkLH3a0vx0E6cvN4/aOTgqWo+PFXN0PCI59zdxQlXjRKVUo5ZhMFhE0ajGXetE97uzkQGebAmyd/u/fpe+Hch6QWN3LcthrWLAuyWczUtz5UtuFo9VweOVdLQ2seuzdG4apym/PkQX1eWx/lR39pLQUUbJ/Ib+SyrjprmHhrb+ugbNOKmcUKpkNld/3+fqKSsvou7NiwkWD/53buLWklajJ6Khi4KKtr4PLseo8mMi1qJ2xR2U7Op/7+OVVDV2M2OaxfiO4Wig4tRKmQsWujDmkUByASB2uYeSuu6yCxq5uCpaoqq2unpHybQx2VSydKzof+RnAaySw1sWxZCdPDk24W4OCtZEqNnZYIfcrkMhVxg2GSmtWuQgSEToijS0TtITXMvJTWdHMlpwMVZQaif66TW35q6H89rILe8lZtXhxEeMLl2Em4uTsQv8OJ0UTOnzjXj6aoixHdiT7M1mYr+/YMj3nQPrYp7t0ZP2kD2cnMmMtCdjMImThY0MWwyExnkMWlvvC0ZS/+i6g4+OVPLing/lsRMnBM5+j1qJfFhI97000XNKOQCUcFTr9qebT49U8uZomZuWhVG4iQS1pUKGTGhnqxPDiRIr0UhF+joGaS7b5jWrgG6+oYxmUXMiDS09lHb3EtuWSuniprxcXfG11NtFy9XQUUb//islAV+ruzaPFJgYS/P1dxuwDLHGRo2kVfRip+XZkZudG93Z/7rzkUUVbWTWTzSAO9kYdPo63KZQGyoJ1tWLCAu2N0uJ70ojjTnU6vkV0zuHgtPVxVP3J3CibxG/vFZKQeOV3LgeCXuWidCfV3ReagJ8HEhMdwLHxu1MZgsRpOZjMImvNxUJITNvPLGQ6vijmsWctv6CKoau8ktayW3rJXi6g6Kqjt4L72Km1eHsW5xgF13jaIo8nl2HXKZwOqk6fUo8/FQc+c1C8f9/o6eIfLLW9l/qJRXPiohu7SVR277cojDlpy5EKJOidJd8b0XE+rnymM7knn+9bO89EERWSUt7NoUNSUP3GyQX9HGkNHMqkS/KYeho0M8+a+7FvPndwt5L72K7FIDW5eGELfAC08HK/U/ntcAwOopehGD9VqeujuF518/yz8/L6epvZ8dGxY6RLuNsTCazPz7aBnOTnLWLQ6c0me1aiUr4v1YEe834fe3dQ3w0ekaDp+t51dv5nLz6jBuXj31SMxMGBw28beDRcgEga9unb0WL+Mhea7sSG55K+n5TaxZ5E/8Aq8ZfZcgCOg81Cxa6MPmpcGsSPAjLtQTPy8NfYNGztd2kp7XQGNbH4nh3rP+EK5r6eW9k1WkROkmHWa4HEEQCPF1Zd3iAAJ9tDgpZbR0DFDd1EPFhT5hH2fWklXSgrOTnGD9pbkws7X+RdXtHMlpYFWiv1W76QuCgKeripgQT9YtDuCa5EA0zgqKazo4e95AXnkraTF6nMbpF2dr/cvru3gvvYrUKB1rpmlcTYQgCKhVI96qFQl+1DT3UFDZhiBAzBWa6lpL967eIV77pISIIHc2pY2f6D0eHloVqVE66g0jnubPc+ppaO3FZBbxcFWNu3YzZSr6v5deSW1LLzuujbxi+GgsvN2dWZ3kT9+gkbyyVs6eN/DR6RqO5NRzNLeB43kN5JW3UdnYTXffEH7eGps/CC/Xv3/QyIsfnMPLTcVdGxZOecOpVStJi9Zzrqqd/PI2juc14uWmwt/bxeHykk7kN3Iiv5ENKUEkT3FDMBlkMgEXtZKkCB9SY/Sja+7vrZkwH9Ha/OtYBdmlrWxZFnJJ2N1enivJuLIj75+soqa5h7s2LMTLdeo5ROMhCAJatRJ/b5dR1+7yeF/qW/vIKTWQXWogMdx7VgdBf55dR1F1B9evDCVohhecUjFiOKVG69m6LIRNaUGkxegJ0WsRRaho6CKzqIWu3iHiFniNhiVma/0/PVNLWX0Xt64JR+9pO6+EyklOVLAHaxYF0NE9SH5FG+cq21kSox9zPqOt9X/naAXVzT3s3BhlU71hJIk6OVJHRmEjuWVtxId5TZiHZy3dTxY2kl3ayqa0YBYGTq/DvFatZGWCH3pPNWX1XZyv7SSzuIUPTlaTWdRMdVMPLmoF3tPIKxyPyepvNJl5+YNi3FyU3L4+YtqGgiWkvSRGj95jJETU0z9E34CRtq5B6gy9lNZ1cqakhazzLQT6uNjU43y5/icLGzlT3MLmJcHEhExv2oVapWBNkj9KhYz8ijZOnWvmeF4DA4MmdB5qm/dumwyiKPLndwvpGzDyzZvjbS6Tm8aJuAWenChoJKukhYSw2fFYDg6Z+MOBAlycFTx866WebMm4usqMK5PZzMsfFqN2VnDXhkib73a0aiXXr4mgpW0kNl5S08HqpMm1CLAG+w+V0t03zH1bY6w+mFmpkOOhVRHm78aKeD+WxflSVN1Bblkr5yrbSIvWz2rO2aufnMdoNLNrc/Ss5JuolHKSo3S0dQ2SW95KUXXHBQPrUu+kLfU3mc289EERWrWSr4xT0m5tlAoZob6uHM9roKimgzVJ44dFraX7W0fKaW7v56tbomcUBhIEgWC9K5vSgkmO1OHpqkIQBOoMvZTXd3Est4Hy+i4CvF2m5T26nMnqX1Tdzuc59ayM9yfJCgnprhonIgLdWRHvx+YlIWxbHsoNK0O5JiWI5EgfZDKBgvI2juU1Mmw0EzdDD/54XK7/vk/O09o1wNeuj53ROspkIzlXS2L1DBtNVDR0U1DZxseZNVQ0dOGklOPnpbGbN6ugso2PTtewLiWI5XHTixhMFTcXJ4J0Wk7mN5Jb3sr6xYE2j5ScyG8ks6iZLUuDv9QE1V7GlWPPK5jHnK/ppKd/mJRI3azNrFIqZOzaHM3qJH+qm3p4f5b67rR3D1LZ2E1UsMes5CXoPTV8795UlsX5UlbfxeuHztv8mBaa2vtoausjboHnrHbklgkC922LYWWCH+X1XbzxWemsHRugrK6L3gEjixb6zOoMtugQT7YsDaG5vZ8Dx23bf6hvYJhzle2E+rpaLU9KEARC/Vy5aVUY392ZzG++s4YnvpJMTIgHeeWt/M/LmeSWtVrlWJPh7PmR5tCLx+ndZQ0EQcDdxYmoYA/u2xbD0/em4uul4f2TVZw613TlL5ghnT2DlNR0EBXsYTVvmZ+Xhvu2xfJ/D6/ivm0xhPm7kVvWym/eyuNn+87S1Gb7CSRjkXEh9/a6FbOb/7R4oQ/blofS3j1o8x6FoihyKKsWmSA41DxaybiyE1nnWwDGbUBoS3ZsiMTTVcW/T1RS3WT71gTZFl0jZ09XlVLO7utjCfHVciy3gZxSw5U/ZAVyS0cehFfqtG8LZLIRAyvQx4XD2fWU1nXO2rFzykb+v/bQ+9a1Ybi7OHE4u47+QaPNjpNT2orJLH6pi7c1kctkRId48t2dyXzr9iTkcoHfv5NPVaPtr1NRFMk+34JapSB6FivgIgLcefS2RFROcl78oMjmTZFzy0eu0cU2aBWhVilYuyiA79+bxg+/tpTkSB+Kqjv4f385xadnaq1+vIkwmsxklRjwclMRfYWcRFtw/YpQtGolH2RU0dM/bLPjlDd0Ud3Uw+JIn2m16LEVV6VxNTRs4nRRM7/+Zy4P/eIIz/4tkzcOl1LR0DVrMuSWtuLsJJ92vH8maJwV3L8tBpNZ5M/vnrN5B/DR3fAsGlcACrmMr18fh1wm8NKHRXTPQkgwd9TIsE+PH4Vcxj1bRoZd/+3DYkzm2enunlvailIhG3NMiq1RKuRsSAmkf9DEsdwGmx3HsiGaapXgdBAEgUULfXjgxniGhk384o0cWjr6bXrMmuYeWrsGWRQx+wUv/t4ufHVrNINDJn7/Tj5Dw7brDJ53wRO4aKFtNwJBei0Pb0/kwVsS0DgrePXjktEKxdmgoKKN/kEjadF6u1TOqVUKblgRSv+giffSK212nMNZI+PRrkmZWiWkrZn2FfTcc89x1113sWPHDnJzcy957cSJE9x+++3cdddd/Pa3v52xkNYkr7yVp/50kt+/k8/Z8wY0KjlVjd18cLKa5145w5niZpvL0NzeR3NHP7GhnnYrnU8I92Z1oj+1LT2cKW6x2XH6B42cq2onRK+1S4uEIL2WW9aE0dkzxF8PFNj0WANDRoprOgjRa+1adh4V7MHqpJG1/STT9rtlQ0c/dYZeYkM9USltU+12JdYnB6JUyPg4swaz2fp9kU1mM4WV7eg8nGe1+3hqtI6vbIqiq3eIv753zqbjgey1CbKwPM6P9cmB1Lb0cijLNvNEjSYzBZVt6DycpzT0froIgkBajJ7Hdybj4qzgpQ+KZm1m6OmikWfZktipt76xFtekBOLlpuLTM3W0dlp/XmFP/zAZ55rx9VTbZWM3EdN6sp86dYqqqir279/Pj370I370ox9d8vqzzz7Lr3/9a/bt28fx48cpLZ3d/I+xGDaa+M0b2fziHzl09Q6xZWkwP9y9lJ89uIpff3sND96SgEIh4w//KiCrxHbGBjB6cSWE2SZ5c7LcsDIUATh4qtpmN+3i6g5MZpEkG+8SJ2LrshACdS4cOlNjkwvcQmFlO0aTfXW1cMf6CLRqJf86VkHfgO1CZQA5o54A+3XkdtU4sTLBD0PnAGfPW//6rWjopn/QSLwV+pZNlWtTg0iK8Ka4psOmD+b88taRkUR20NHC9rXhqJzkHDxVzbDR+t6r87Wd9A+aSAr3mdUk8wAfFx65LQlBgN++nWfz0Oew0czZ8y14u6kI97ffmB6lQs4tq8Mxmsy8n2H9HN+MwiaMJjPrFgfOaq7nZJiWcZWens7GjRsBiIiIoLOzk56ekan2NTU1uLu74+/vj0wmY926daSnp1tP4mly9ryBgyerCNJp+X9fTeOuDZGjLQGcnRSkxej5zh2LUMhl/P6dfAoqbXgTu3CDjJ9Ep1xbovfUkBylo7Kxm/O1tsnPsfwfZ9rHaybIZTK2Lg3BbBZtmlxpWdfJdEC2Na4aJ7YsDWZgyMSRnHqbHms038rOelv6Tn102vprbDFq7HUeb18bDsA/Py8fHQ9kTXoHhilv6CI80G3KY5WsiVatZENKIJ29Qxy1QYjXEhK0xwYoKtiDr10fy8CQidc+LrGpF3IkJGhiSYyv3fturUjwxctNxYm8Rqtv9DIKmxAEWB4/O5WQU2FaV5HBYCA+Pn70dy8vL1paWtBqtbS0tODl5XXJazU1V77ZeXpqUNiogR7AZk8NfnpXkhbqxq3i0ulccXdX870/nOC1T87z2+9usHrFl9Fkpqi6A39vF+IjZ99de/kspDs3RZNV0sLnuQ2sSpl6U8QrUVLbgcpJzrJFQbNaPXc516914e2jFRzNref+mxPRqq1ftVhS04FaJWdpku1LjyfDbRujeTe9ikNn69i5LRaYeBbWdBgYNFJc3cECfzdiFto+F2kidDpXUmP0nClqptcosuCyHftMdC+p7UQmE1idGmyTc+dK6HSurE0O5MjZOkobelg1jaqoifQ/n1uPKMLSeH+rnyNTZefWWD7NrOXg6Rpu2xhttWtJp3OloKoNlZOc1SnBONkhhH3DWi2ZJQayipqpaO5lWYJtZkzmflwCwKYVC0bX057resPqcP72/jlyKtu4aU2EVb6zsXWkV9riSB2RYRN7ze2hu1W2KNawwNvbbV+qmhrje8UBjr5uKtYvDuBQVh3/+KiIzUusa3CU1HTQP2hkefyVZbE2Yw2w1GmVhPm7cjKvgfySJnw9rZeH0NY1QE1TD4nh3nS029YNPhluXBPOy+8V8tanxWxbFmrV727rGqDe0EtShDftbfbX1cLqBH8+zarlg2Nl3Lgu0urnXPZ5A8NGM/ELPB1iKPrSC8bVB8fKuX39FzfxmQxv7RsYpriqnbAAV/p7BujvsV1oeSK2LQnmWHY9L71bQISfy5RG01xJ//SckRynBXoXh1jHtYsC+ORMLQcOn7dKt3+dzpXC883UNPWweKEPnR32aY0AsH11GNnFLfzpnTyCvTU22cBn5Dfg7eaMh7OclpbuWR1aPxYpC715TS5w4Eg5y6Kt037o/ROVACRHek+om70GN09rVfV6PQbDF6Xtzc3N6HS6MV9rampCr7dfQt10uHl1GGqVggPHKqxeQprvIPlWFgRBYPOSEESwevLzuap2AOIXOEai4dYVC1A5yfkks9bqFZIWXeMcLKly05KgC3l1NTYJQ1jCvo5yPi+K8EblJOfUuSar6XuuqgOzKNo1tA3g66VhdZI/jW19nC2xbmuRgso21CoFYf729VpZ2LosBLlM4MMM6+WDWvqFJdqhXcjFBPi4sCElkOb2fpu0Zyiu6aB/0ERy5OzmlU2Em8aJpbG+NLX1UWiFvEFRFDlZ0IhCLiM1yjHti2kZV6tWreLgwYMAFBQUoNfr0WpH8peCgoLo6emhtrYWo9HIZ599xqpVq6wn8SzgqnHiplUL6Bs08q9j1m1MWFDRhlwm2KUFw3ikRutwc3EaTQ60FpYHr626Lk8VrVrJmiR/2rsHrV60UFg5YlzFOoiuFvSeGlKidFQ1dpNfbv1mlIWVbaiUciKmOQrG2jgp5aRE6jB0DlBWb53WKoWjBqT9c+k2pgUBWDUfqbm9j5aOAWJDPac8qNlWeLk5kxqto6G1j3IrtcixGFf2zg0EuHlNGC7OCt49UcnAkHXzkHIuVH0uslPV53hcm0DP9mgAAB+bSURBVDpy7lrDoKxp7qGhtY9FC73tmiM4EdO6klJSUoiPj2fHjh08++yzPPPMM7z11lt8/PHHAOzdu5c9e/Zw9913c9111xEWNrvdYa3BtalB6D3VHD5bR1uXdcIAPf3DVDZ0ERHo7hBzpywo5DKWxurp6R8e9azNFFEUKaxsx83FiUDd7JWuX4n1F6bCn8hvtNp3iqLIuao2XDVKh9LVwqYLoe0PL7jRrUVb1wANrX1Eh3g4RI6ZBUtya0aBdbp9F1S0oVbJCQuwv1cnSKclIsCN/PJWq92XRpP1HcT7aMEyfPe4FQzJgSEjRdXtBOlc8Ha3f6NJF2clm5YE0zdo5Hiede9F2aUG1Cr5rDaCnQxh/m6EB4x0rp9pz7aTFzrPL4/zs4ZoNmHad8THHnuM119/nX379hETE8P27dvZtGkTAEuWLGH//v3s37+f3bt3W03Y2UQhl3H98lBMZpHPzlqn50phZRsijncTA1gRP3KSniywzoVeZ+i9MDjZ02Fc0zDikg/1cyW/vI3OXus0FW1s66OjZ4jYUE+HKwcGiAxyx89LQ3p+A30D1gtzO2ooNDbUE61ayemiphk3Uf2iJ52Xw3h11iwKQASrNUwtuOB1dbT7UvyCkaG/GeeaZ9xUNLd0JDfQ3iHBi1mfPFL48vFp6/Vmqzf0YugcID5s9hvBToZrkgMRgaO5069gNosiGYVNqFUKkiIc65y9GMf77zsQy+J80aqVfJ5db5WOwY6Wb3UxC/xc8fVUk33eYJURIpa4elyo4+m6Mt4PsyhyqtA6no3RkKCDGRkWBEFgdZI/w0YzGees1yS30MHCvhYUchlLYvV09Q2PGoDTxRENj6WxelROco7m1s/4oWwymzlXNdJUU2+leYnWQiYTWJngR/+gcbQ7/nTJvDCzcJGdJieMhduF3mzNHf1WG8+VfeF7ku3Yc24i0mL0qFUKjuY2TDsFpaS6g/buQdKidSht2GFgpkjG1QQ4KeWsWxxwoQvszB7EoihSUNGGVq0k1Nf+4YXLEQSB5fF+DF1oPjdTCi1eDQdJZr+YZXG+yASBE1by0lke4I6Wb3UxK+L9kAnW83Y4atjXwrLYC6HBGRrQjhgyc3ZSsCxWT2vXIIVVMwvjV9R30z9osktz1MlgjdCgKIpknmtCo1IQEWi/hppjYQnZH7RSb7ac0lYEwf5J++OhUspZmeBHZ88QOaXTywEdDQnGO25IECTj6opckzzS+fXTzNoZVa3Ut/bR3j1I3AJPu8x5mgyWXJWTM8xVMZrMFFd34O+tcahBmhbcXJxICPeiqrGbesPM2iaYzSLF1e34uDvezv9iPF1VJEfrqWjoom6GOsNI2LfTAcO+FhYGuePpquJsiWHaO2RH9uqsXTSSO3gkZ2bG8hdNfh1vEwTg56VhYaA7hZXt084xqzP00tLeT0K444R2LQT6uJAQ7kVJTceMZ9t29Q5RVtdJZKC7XXqxTZZ1F3q0fZ4z9XSbYaOZzKJmPLRODpdTdjmOdaY5IF5uzqRE+VDd3DOjLuaOuAO+HF9PDeEBbhRUttHZMzjt7ymr62Rw2OSQIUELKxNGdj3pM/ReVTR20TtgdEgP3eVsXBoCYJXhsY4c9gWQCQKp0Tr6Bo2jYdup4shenTB/VwJ8XMg+b5hR1+uCijYEwXFD2gCrEv0QgePTLEIZrRJ0UG/O5guTBQ5lzayKLresFRHHqxK8nCC9lohANwrK2zBMMbE9r7yVvkHjSPTBQZ0UFiTjahJsvHDyz6SENL9i5AJ3hHLuiVgW54soQuYMhjlbHmZxYY57w1680Ae1Sk56QeOMxokUlDtOmf6VWBbvh4uzgvT8xhknejty2NfCkpiR/jeZRdPLM7Ncs/bubzUWgiCwLM4Xo8k87bYifQNGyuu7CPd3Q+PsuJ6OJTG+OClkHM9rmFb0ILdsJFSW4AAtGMYiLswLvYea0+ea6Z1BwcmZ4pHzPDnSvpMSJsO6RSOJ7Z9PcTTXXKgStCAZV5MgMsidQB8Xskpa6OqbeoXZsNFESXUHgT4ueLqqbCCh9UiL1iMAp2eQY1ZY2YZMEIgOdtwHr5NSTkqUjrauQcrqpu+RzKsYGXbryEaGBaVCzrI4Xzp7h8grn36uzrDRRFF1u8OGfS1EBF4IDZ5vmVZosODCeRwb6pjhh+VxF8L4hdPz6BRVt480R3VgbzqAxllBSrSO5vb+KUcPevqHKa3tJCrYEzeNk40knBkyQWBdcgBDRvO0W8T0DxopqGwjSKfFz8t6UzZsxZJYPS7OCg6frWNwaHLFYv2DRnJKDfh7awjx1dpYwpkjGVeTQBAE1i4OwGQWOTGNniQltZ0MGc0OfxODkdycqGAPztd20t499dBg34BxZABsgH0HwE6GmSY99w4Mj+z8Ax17538xq5NmniBcXN3B0LDZYcMsFmSCQGqUjt4BI7nnp1aN1TcwTEV994Xz2DHXVuehJiLQjXNV7XRMI4w/F1IVLKy+kNh+bIoh7aySFsyiyIpE28zwsxarEv1RyAUOn62blncup9SA0SSSFu34XisYSWy/NjWI3gHjpNc0o7CJYaOZZXH2H0Y9GSTjapKsiPdDqZDxefbUT/4CB27BMBZLYvWIwOlphFOKqtsRRccOF1mIXeCJq0ZJZlHztMJkhZUjus6VdQUI9XUlSOdCdqmB7ml4YQFyHKjT9ZVIuxAaPDbF5NnRkTcOvrbL4/wQRTg1jRYbBZVtODvJCfN3rAq6sYgJ9cTbTcXpouZJezrgi43T6gvNgx0VN40TqdF6Glr7ppXba0njSI1xzFEwY7EhNQilQsbBU9VXvP+azGY+zKhGIResMmtyNpiWcTU8PMyePXvYuXMnu3btoqbmy2Wk8fHx3HPPPaM/JtPM+0TZE61aSVq0nqb2foqqO6b02byyVhRyGVEOXt1gITVajyBMLzToqL2PxkIuk5EWM/1+SJZxMolzwMiwIAgCqxP9MZnF0fyFqSCKIrllBpyd5ETOgfN5YZA77lonTuZPra/OaBWdgxtXS2L0yARhys1/mzv6aW7vJzbU0yGbTV6OTBBYmeDP4JCJzOLJGZKdPYMUVbcTEeiG7xwIla1fPGI0HJ5i0+qBISN55a34e2sI9HG8tijj4aZxYnWiP4bOATKLJs4bzCxqobmjn1WJ/g6fWmNhWlfVu+++i5ubG/v27eOb3/wmP//5z7/0Hq1WyyuvvDL6I5c7brOvybLuwsn/efbkT/7qpm7qDL0khnvhpJwb/wN3FydiQjwpq+/C0Dm1ao7CynZUTnLCAxx/NwzTDw2Koki+A/ctm4jl8X7IZcK0QoNN7f20dAwQv8BrzjyU06L1dPcNjxr+V8JsFskpNaBxoEHG4+Hm4kRcmCeVjd00tvVN+nOj1Z5zYBNkYVXiSBLzZKtdM4tbEEVYeuEad3Sigj3w99aQWdw8pWrtvPI2ho1mUqPnjtfKwualwQgCEw7oFkWR909WIQiwbVnILEs4faZ1d0xPTx8ddbNy5UqysrKsKpSjEhnkToAlsX2So1MsPaMspf9zhSWxlkqryVcitXYO0NjWR3SwY82am4iFQe54uanIKmlh2Dh572q9odfh+5aNh5uLE0kR3lQ391Dd1D2lz+Ze6ADt6PlWF2O59o5OsidUcc2FDtAxOofrizQWKy80U5xKg9i8C15XR/fMXYzeU0NMiAdF1R3UNPdc8f0Z55oQ+KJq1NERBIGNqUEYTSKfZk1+A2+php0r+VYX4+upITVaT1VT97jJ/HnlrdQ097AkRo/e0/E9kBamlXFsMBjw8hq5KGUyGYIgMDQ0hJPTF9UYQ0ND7Nmzh7q6OrZs2cL9998/4Xd6empQzEIre51uZjvRm9aE84e380gvambX1tgJ32syi5wqakarVnLt8gUO0ap/svpvXhHG3z8qIbO4hXtuiJ/UZ44XjlzkK5MCZvx/thVjybU+JZi3DpdS2dLHyknG849ZjOZFgQ6r61hYZL1udThnzxvIKm0lNWHyOQxFNSP5IOuXhjp0peDF+PhoWeDvRnapAaWzEx5XCCvsO1QKwNaV4XNibbes0vDaJ+c5UdDIf2xPGndjY9Glu2+IvPJWQvxcSYjSz4nkYAt3bormh3/J4LOcevZ8JXXc97W091Na20nSQh8iw0b6Ps2FtbzpmkjeOVbB59n1fPXGeJydJn5E9/QPk1veir+3Cynx/hOupaPq/43tSRT+32Fe/biEJYkBBOq+qAQcGjbx7slqAHZdFzdtHeyh+xWNqzfeeIM33njjkr/l5ORc8vtY7rzHH3+cm266CUEQ2LVrF2lpaSQmJo57nPb2ybu0p4tO50pLy9R26pezKNwLrVrJu0fLWZfoN+HJX1DRRlvXAOsXB9AxC/pdianqvyjCm7PnDZzOq2OB35XDfIdOVyETBGKC3Gf8f7YF4+m/ONyLtw7Du0fLiZxkGOizzBoEAUJ9NA6p61hcrH+ojwZXjZJDmTXcsDxkUp7G/kEjeWUGQn1dMQ0O09JivSHQtmbTshBeeCeff39eytYJQgvDRjPHcurxdFWhd3OaM2u7PM6XT87U8kl6xZjhoYvX/rOzdRhNIsti9BgMV/YAORIhPiN5RUey6rhuaTA+7mN3zv8gowqAxRHetLR0W+XeP1usWxzAuyeqOHC4lGuSJ07E/yCjisEhE6sS/SZcS0fWXw7cszmaPx4o4McvnuJ796aikMsYNpr57dt5lNZ0sDzOF61SNi0dbKn7REbbFe+od9xxB//4xz8u+bn11ltpaRkJFw0PDyOK4iVeK4CdO3fi4uKCRqNh+fLllJSUzFANx+DiEtIrjZ6wuDkdfQbSeKy9MKbgSPaVG701tfVR0dBNXJgnbi6O2U9mPCwdg/PLWyfVMbihtZeKhi7iw7xw186N5MrLUchlrIj3o6d/eNJDYwsr2zCZRYedWzYR61OCUcgFjubWT1jtm1vWSv+gkWWxI/Mn5wprLfmgk2jKeCK/AYG5eV+SCQJbl4VgFkU+Pj12U+f+QSMfnarBSSEjdQ6Gyq5NCUIhF/jodM2EDY6NJjOfZNaiujADdy6zLM6X1Un+VDV189N9Z3n3RCW/fyef3LJWEsK9uP+6iaNEjsi0EgpWrVrFhx9+CMBnn33GsmXLLnm9vLycPXv2IIoiRqORrKwsIiMjZy6tg3BtahBOShkfna4etwJpcMhEVkkLPu7ORAa5z7KE1iEx3BtPVxUnC5sYGJp4xIZlsPWyOZI8ejnrF0++Y7DFaF6V4Ni9c67EaO+gSebqHL/Q4y01au49sNxcnEiJ0tHQ2kdZ3fgz3CwNOS1zNucKQbrJjRRpah/RP3aB55ypurqcZXG+eLqqOJJTT0//l72nH2RU09k7xNZlIbg6aOPQiXDXqlge50dTWx85E/Rnyyxqpr17kNVJ/rg4aC+2qXD3xiiigj0ore3krSPlZJcaiFvgycO3JqJUOH7u4+VMS+LrrrsOs9nMzp07efXVV9mzZw8Af/rTnzh79izh4eH4+flx++23s3PnTtatW0dSUpJVBbcnWrWStUkBtHUNcmqcdgXH8xsYHDaxIt5vTuU0XIxMJrAmyZ+BIdOEfXREUSSjsAmlQkbKHHzwwkjSq4uzgqO5E5fsm80iJ/IbUavkJDv4DK8rEaTXEurnSl75lWdJtncPklNmINTPlVA/x8zduBKW/jjjVfv2DRjJKR0paQ/WO34H6MtZuygAETg6gbGcfmFjMNcKbC5GIZexKS2YwWET+w+dv8QT2dY1wMFT1Xhondi2LNSOUs4MSxXd/s9Kx+zrJYoiB0+NpCZsWhJsBwmtj8pJzpN3p/CLh1fx0K0J7Lg2kke2J82ZKvvLmZZxJZfL+fGPf8y+fft4+eWX8fcf2QE/8MADJCcnA/Dd736Xf/7zn7zxxhv853/+p/UkdhA2Lw1GLhN447OyL3UyN3T28+bhMtQqBeuvEDN3dNYkBSAIcGQCj05Ncw8NrX0sWuiDWuXYXdnHw0kpZ2WCP129Q2RPsFs8V91Oe/cgS2L0c/aiv5jVif6YRZH0golbUYyE05jT4YfYBZ74e2s4kd845sgjiyd6+RzdEC2N8UWtkvPZ2boxPTqiKJJe0IiTcu5ugixckxJIqJ8rx/MaeetIOTCi3z8/L2PYaOa2dRGonObu9Rmk07JlaQjN7f28+XnZl14vqu6gqqmblCgdeo+x887mKu5aFanRejYvCZ7Tazj3fG0Ogo+7mjvWR9DZO8Tv38kf9XaIosiL7xcxMGTiKxsj56zr3YK3uzOJ4d6U13dR1Th2UqClGeVcDQlaWJ88Yjh8NkETP8v4o5VzPCRoYVmcLwq5wLEJhuKazSJHc+pRKeVzeo1lgsBXt8YgAi99UHSJh7KqsZv30qvwclNxbUqQ/YScASonOTeuDKOnf5g3Piv90utnilto6RggNUp/xSo0R0ellPOdOxbh66nmvfQqfv9OPk//6STpBU2E+rqyYg575izcuiYMf28Nn56ppeiiJscNrb388UABAFuXzp2+T1cbknE1AzYtCWZprJ7Suk5eOVjMuco23jlawbmqdhZFeM9p1/vFbEwbedi88lExZvOlD+CWjn4+y6pDq1aSFDF3euaMhb+3C3ELPDlX1U5WyZf7e3X3DXGmpBmdx9zNo7scrVpJcqSOekMvWSVje+wKKtto7RpkWZzvnPVMWogK9mB9ciB1hl7eTx+pKBs2mvnzu4WYzCL3b4t1+JmYE7ExLYggnZajuQ2U1HwxSaK5rY+XPijCSSHjuhVzN1x2MW4uTvzXXYtxd3HidFEzHT1DpEXr+ObN8XOqGGE8lAo5u6+PQxDgT/8u4OCpaoqr2/npvrN09Q5x96YoIgLnx31oPjJ37yIOgCAI3L8tljpDL0dzG0ZzHTQqBfdujZmToYWxSAjzZlmcLxmFTXx0uma0lN0sirz4/jkGh03csyXKIfp4zZSvbIxi74uneeVgMVHBHmjVI4mioijy1/fOMTRs5trU4HmztgC3rAnj7PkWXvukhLgFnl8yoCzjOOZySPBi7lgfQU6pgX+fqKS4pgOjyUydoZf1yYFzqqnmWCjkMr66NZrnXjnDyx8W8dSuVJyd5Pzi9Wz6Bo3cty1mTo1IuRI6DzXfuzeVekMfMSEe8yJUfzHhAW7cvi6CNz8vY/+hL7yROzdGcm3q3PSwXi3I9+7du9feQgD0TXOI7FRwcVFZ/TgKuYzkSB0alYLoEE+Swr2545qF6D0dLw4+E/2jgz04kddAXkUbS2L0aNVKDp+t41BWHYsX+nDbugiHNzgmo7+rxgmZDM6eN9DZOzSam/JJZi2fnKklboEnd2+Ocnhdx2I8/V01TpjMIjmlrQwOmy7pvp5e0Mh76VWE+rly8+qwOak3XKq7UiEjWK+loKKN2pZe2roG0XuoeWh7wpyZLDARXm7OdPUOkVfexgcZ1RzJqae2pYelsXq2rw2fs2s4HhpnJb5eGuQTrJ0t7v2zRWSQB9ckB6L3VCMCW5aFTDl0PZf1nym21N3FZfy0H8lzZQU8XVXctDrM3mLYFFeNE7s2R/O7d/L5n5dP4+nqjKGjH41KwT1boufVDXvrshDOFLdwIr+RwWETek81H52qwU2j5D9uiJsXIYfLuX7FAk6da+bQmVoWR/oQF+pJSU0HL75/DrVKwddviJtXaxy3wIv/e3g1w0YTnT1DuKiVcz4P6WLu3LAQdxcnSmo7qGjoJthXy71b5o83/WrDzcWJ9cmBc75A6mpi/txNJGxOWoyeG1Yu4PS5Jjp7BjGLcM+W6DmftH85cpmMr10fy8/3Z3Om+Ivcq6/fEDdnm4ZeCaViJJz0k9fO8vPXs9F7qOnpH0YU4aFbE+ZVKOlilAo5PvOs2gpGEr4tGz5RFNHpXOdcN3YJibmMZFxJTInta8PZvjYcGLlpz9edcJBOy88fWkVb18gwaieFnKhgD3uLZVOiQzz59h2LOJbXQF55K4NDJu6/Loa4BXM7D+lqRxCEeXudSkg4KpJxJTFt5vsNWyYI+Lirx51fNh9JivAmKcKbYaOZzp7BeenVkZCQkLA1cz97U0JCwuooFTLJsJKQkJCYJoI40RRTCQkJCQkJCQmJKSF5riQkJCQkJCQkrIhkXElISEhISEhIWBHJuJKQkJCQkJCQsCKScSUhISEhISEhYUUk40pCQkJCQkJCwopIxpWEhISEhISEhBWRjCsJCQkJCQkJCSty1XRof+6558jJyUEQBJ5++mmSkpLsLZLN+elPf8qZM2cwGo184xvf4NChQxQUFODhMTLGZffu3axfv96+QtqIjIwMvvWtbxEZGQlAVFQUX//613n88ccxmUzodDp+9rOf4eTkZGdJbcMbb7zBgQMHRn/Pz88nISGBvr4+NBoNAE888QQJCQn2EtEmlJSU8OCDD3Lfffexa9cuGhoaxlzzAwcO8PLLLyOTybjzzju544477C36jBlL96eeegqj0YhCoeBnP/sZOp2O+Ph4UlJSRj/30ksvIZfL7Si5dbhc/yeffHLM+918XHv4sv6PPvoo7e3tAHR0dLB48WK+8Y1vcOONN45e956envzqV7+yp9hW4fJnXWJiov2ve/EqICMjQ3zggQdEURTF0tJS8c4777SzRLYnPT1d/PrXvy6Koii2tbWJ69atE5944gnx0KFDdpZsdjh58qT4yCOPXPK3J598Unz//fdFURTFn//85+Krr75qD9FmnYyMDHHv3r3irl27xOLiYnuLYzN6e3vFXbt2id///vfFV155RRTFsde8t7dX3Lx5s9jV1SX29/eL119/vdje3m5P0WfMWLo//vjj4nvvvSeKoij+/e9/F3/yk5+IoiiKS5cutZuctmIs/ce6383HtRfFsfW/mCeffFLMyckRa2pqxFtvvdUOEtqOsZ51jnDdXxVhwfT0dDZu3AhAREQEnZ2d9PTM7wnxS5Ys4Ze//CUAbm5u9Pf3YzKZ7CyVfcnIyODaa68F4JprriE9Pd3OEs0Ov/3tb3nwwQftLYbNcXJy4oUXXkCv14/+baw1z8nJITExEVdXV5ydnUlJSSErK8teYluFsXR/5pln2LJlCzDioejo6LCXeDZnLP3HYj6uPUysf3l5Od3d3fM2WjPWs84RrvurwrgyGAx4enqO/u7l5UVLS4sdJbI9crl8NPzz5ptvsnbtWuRyOX//+9+59957+c53vkNbW5udpbQtpaWlfPOb32Tnzp0cP36c/v7+0TCgt7f3vD8HAHJzc/H390en0wHwq1/9irvvvpsf/OAHDAwM2Fk666JQKHB2dr7kb2OtucFgwMvLa/Q98+F+MJbuGo0GuVyOyWTitdde48YbbwRgaGiIPXv2sGPHDl588UV7iGt1xtIf+NL9bj6uPYyvP8Df/vY3du3aNfq7wWDg0UcfZceOHZekDsxVxnrWOcJ1f9XkXF2MeBWNU/zkk0948803+etf/0p+fj4eHh7Exsbypz/9id/85jf84Ac/sLeINmHBggU8/PDDbNu2jZqaGu69995LPHdXyznw5ptvcuuttwJw7733Eh0dTUhICM888wyvvvoqu3fvtrOEs8d4az6fzwWTycTjjz/O8uXLWbFiBQCPP/44N910E4IgsGvXLtLS0khMTLSzpNbn5ptv/tL9Ljk5+ZL3zOe1hxFD+syZM+zduxcADw8PvvWtb3HTTTfR3d3NHXfcwfLly6/o8ZsLXPys27x58+jf7XXdXxWeK71ej8FgGP29ubl5dCc/nzl69Ch/+MMfeOGFF3B1dWXFihXExsYCsGHDBkpKSuwsoe3w9fXluuuuQxAEQkJC8PHxobOzc9Rb09TUNC9uKFciIyNj9IGyadMmQkJCgPm//hY0Gs2X1nys+8F8PReeeuopQkNDefjhh0f/tnPnTlxcXNBoNCxfvnzengdj3e+uprUHOH369CXhQK1Wy2233YZSqcTLy4uEhATKy8vtKKF1uPxZ5wjX/VVhXK1atYqDBw8CUFBQgF6vR6vV2lkq29Ld3c1Pf/pT/vjHP45WyzzyyCPU1NQAIw9dSyXdfOTAgQP85S9/AaClpYXW1la2b98+eh589NFHrFmzxp4i2pympiZcXFxwcnJCFEXuu+8+urq6gPm//hZWrlz5pTVftGgReXl5dHV10dvbS1ZWFmlpaXaW1PocOHAApVLJo48+Ovq38vJy9uzZgyiKGI1GsrKy5u15MNb97mpZewt5eXnExMSM/n7y5El+/OMfA9DX10dRURFhYWH2Es8qjPWsc4Tr/qoIC6akpBAfH8+OHTsQBIFnnnnG3iLZnPfff5/29na+/e1vj/5t+/btfPvb30atVqPRaEYvsvnIhg0beOyxx/j0008ZHh5m7969xMbG8sQTT7B//34CAgK45ZZb7C2mTWlpaRnNMRAEgTvvvJP77rsPtVqNr68vjzzyiJ0ltC75+fn85Cc/oa6uDoVCwcGDB3n++ed58sknL1lzpVLJnj172L17N4Ig8NBDD+Hq6mpv8WfEWLq3traiUqm45557gJFinr179+Ln58ftt9+OTCZjw4YN8yLReSz9d+3a9aX7nbOz87xbexhb/1//+te0tLSMeqsB0tLSeOedd7jrrrswmUw88MAD+Pr62lHymTPWs+5///d/+f73v2/X614Q53vQWUJCQkJCQkJiFrkqwoISEhISEhISErOFZFxJSEhISEhISFgRybiSkJCQkJCQkLAiknElISEhISEhIWFFJONKQkJCQkJCQsKKSMaVhISEhISEhIQVkYwrCQkJCQkJCQkr8v8D3HM1PTwziPwAAAAASUVORK5CYII=;" vertex="1" parent="1">
          <mxGeometry x="90" y="128" width="599" height="85" as="geometry" />
        </mxCell>
        <mxCell id="JDvXGBGlwjeCY7y2N17N-6" value="" style="shape=image;verticalLabelPosition=bottom;labelBackgroundColor=#ffffff;verticalAlign=top;aspect=fixed;imageAspect=0;image=data:image/png,iVBORw0KGgoAAAANSUhEUgAAAlEAAABWCAYAAADv5sNPAAAABHNCSVQICAgIfAhkiAAAAAlwSFlzAAALEgAACxIB0t1+/AAAADh0RVh0U29mdHdhcmUAbWF0cGxvdGxpYiB2ZXJzaW9uMy4yLjAsIGh0dHA6Ly9tYXRwbG90bGliLm9yZy8GearUAAAgAElEQVR4nO3dd2BUdbr4//fMZNJ7MpNCGgnpJEAIvUlXmoAKqIisWHZd265edd39CXt/V9eCu3tFt7muFRFFZFlBQQEVIdQAqSQkIZWUmfRMJsmU8/0jkCsYUmcySfi8/tFkJjPPw5k55zmfKpMkSUIQBEEQBEHoFbmtAxAEQRAEQRiKRBElCIIgCILQB6KIEgRBEARB6ANRRAmCIAiCIPSBKKIEQRAEQRD6QBRRgiAIgiAIfWDXkye9+OKLnDt3DplMxnPPPUdiYmLHY8eOHeOPf/wjcrmckSNH8sILLyCXX78202ga+x91D3h5OVNb2zwg7zXY3Mi5g8j/Rs7/Rs4dRP4i/xs3f2vmrlK5XfexbluiTpw4QVFREdu3b+eFF17ghRdeuOrx559/ntdff52PP/4YnU7H4cOH+x+xBdjZKWwdgs3cyLmDyP9Gzv9Gzh1E/iL/Gzd/W+XebUtUSkoK8+bNAyAiIoL6+nqamppwdXUFYOfOnR3/7+3tTW1trRXDFQRBEIThq+BSAx/sy8HLzYH7l8Th7NijDiPBRro9Olqtlvj4+I6fvb290Wg0HYXTlf9WVVVx5MgRHn/88S5fz8vLecAqxq6a4Ia7Gzl3EPnfyPnfyLmDyH+o5m8wmvn46xx2HLyA2SxRVNnIy9vO8PyGSfj7uPT4dYZq/pZgi9x7XeJ2tktMdXU1P//5z9m4cSNeXl5d/v1A9deqVG4DNv5qsLmRcweR/42c/42cO4j8h3L+nxzK46vjxfh6OLL+lhjO5VXz9akSfv3n7/jtPeNRezl3+xpDOf/+smbu/RoTpVar0Wq1HT9XVVWhUqk6fm5qauKBBx7giSeeYPr06f0MVRAEQRBuLPVNrRw8XYq3uwO/v28icWHe3DkvklWzR9HYbGBPSpGtQxSuo9siatq0aezbtw+AzMxM1Gp1RxcewEsvvcS9997LzJkzrRelIAiCIAxTXx4vps1oZvGUMJwc/q+DaMGEYNReTqRkVlCva7NhhML1dNudl5SURHx8PGvWrEEmk7Fx40Z27tyJm5sb06dPZ9euXRQVFbFjxw4AlixZwurVq60euCAIgiAMdXVNrRw6U4a3uwMzEgOuekwul7FgQjAf7s/l4OlSVswMt1GUwvX0aEzUU089ddXPMTExHf+fkZFh2YgEQRAE4Qbx5bFiDEYzS6aEYaf4aefQtIQAPv++gENnylg0JRQH5Y27jMFgJFYsFwRBEAQbaNIb+PZsGT7uDky/phXqCgelgtlJI2jSGziaUTHAEQrdEUWUIAiCINjAqZwqDEYzs5OCOm2FumJuUhB2ChnfnCrpdIa8YDuiiBIEQRAEGziWWQnApFi/Lp/n4erAmFG+lFc3c6n6xtzWZbASRZQgCIIgDLDq+hZyS+qICvbEx8Ox2+cnRbUvLZSaU2Xt0IReEEWUIAiCIAyw49ntrVCT47tuhbpiTIQPCrmM1Fxt908WBowoogRBEARhgB3LrEAhl5Ecre7R850dlcSGelFU2Yi2Tm/l6ISeEkWUIAiCIAyg0qomSjU6EiN8cHVS9vjvkqIvd+nlaqwVmtBLoogSBEEQhAF0LOtKV55/r/5uXKQKGcO/iDKazJiHyCzEXm9ALAiCIAgDSVuv52h6BZeqdcSFeTN2lC/uLva2DqtPJEniRHYlDkoFYyJ8evW3Hi72jAry4EJpPfW6NjyG6L/B9RhNZvakFLEnpQizWcLNRUmQypXbZoUT5u9u6/A6JYooQRAEYVBqbG7j7T3ZpOdXc6Vd4kR2FTJg1rgRrJ0fhVwus2WIvVZU2Yi2voWJsWrs+7D6+PgoFRdK6zl7QcOssSOsEKFtFFU08s89WZRpdHi42uPr4Uh9UxuZF2vIuljDrLGBrJwV0avuz4EgiiihU20GE1V1esxmCZlMRoCPc5eLwQmCIFhSg66NzR+foVSjI2KEOzMTAwkPdCfjYg3fn7vEt2fKaG0zct/iWBTyoXNuOnm+fYmCCTE9m5V3rbGRvnx8MI+0/OphU0TVN7Xy2vazNOkN3DRuBLfPisDZsb08ySqsYevXuXx79hLpBTU8vGI0IwMGT6uUKKKEq5jNEj+kl/P59wVX7Roe4OPMmrmRJIT3rvl5qGgzmMi8WMOlah0jfF0JC3DD09XB1mEJ/VTT0MKB1FIamw0YjGZ83B1ZNDkEZ8fBdTcrXK1e18ar285wSatj7vgg7poXiUzW3uI0QuXKjMRA/vTJWVIyKzGZJR5YGjckCilJkjh1vgoHewUJ4d59eg21lzN+3s5kFdZiMJpR2g3+vLsiSRLvfHmeJr2BNXMjWTAh+KrH48K8+f19E/niaCH/OVLIHz48zV3zopg1NrDjM2FLoogSOlTUNPOXz9Mp1eiwV8qZnhiAo1JBo97AiexK/vTJOcaO8uXBZXE42g+Pj06Dro3tBy+Qmqul1WC66rG4MC82LI7Dy00UU0ON2Sxx6EwZO77Lp7Xt6uP6Q9olVs+NZHKc36A4CQtXM5rMvL4jjUtaHfOTg1kzd9RPjpOzox2/Xj2WP316jhPZVYT4ubFocqiNIu654somNHV978q7YkyED/tPlpBTUsvokUP7xvbbs5dIy68mPsyLeclBnT7HTiFn+YxwIkZ48I/dmby/L4fTuRruWRiN2tNpgCO+mmLTpk2bBvINm5vbun+SBbi4OFjtvcxmiZY2E3I5yAfhSbgvuZdpmnhl2xk0dS1MTwjgkZWJTB3tT0KED8nRapKiVJRrdWQW1lBY0cjEWPWgHYvQ0/xzimvZvP0seWUN+Hg4MnNsIAsnBBOkckGS4HxxHUczKvD3cSbAx2UAIreM7vI3myXOXNCSll/NxfIGLml1qDychvwdLbTnXlev5887znEwtQxHpYK750exes4obpkUgpuzkqzCWk6er0KnN5IQ7j3kC6nq+hYyLlZzNKOCc3nVuDjYDekBx58fLuBEdhWT4/249+bo6x4fpZ2ccZEqjmZUkF5QTVK0Gn+V64BdY/rim1OlXCitZ/mMkQT69v2cIpfLOJpRgYuT8qreAWte96yhqraZN3am42iv4Nerx+Hs0PXNuZ+XM5Ni/Siv1pF5sYbvz17C39uZQF8Xq+bu4nL9G+nh0ZwwAPStRvYeK+JQahnNrUYAXJ2ULJgQzJykoI7+26GouLKRzR+390ffPT+KueN/ejcQrHblyTVjeWNnOmn51fzziyweXBY/KIvInvj6VAkfH7iADBl3zI5g4cSQjlzGR8OSqWF8e6aMbQfy2PJZOutviWHmmEAbR90/ZrPE8exKvjhaSPk1+299eiifW6ePZNbYwCE99s1gNPOXXRlkFdaSGOHDzxbFXlVQLJ4SxsRYP7Z8lsaB1FLU3k7MTw7u4hUHL6PJzOeHC/jqWDE/ngz+7+/ziQr2ZNXsUYQHDp6xIz2RXVTL3pQiVJ6O3LPg+gXUFa5OStYtjGbLznT+tSebP0X1bOFKW+joylMq+j0sIirYEwd7BWn51dw1z0IB2sB/jhTSZjBz780xPW7x9/Fw5FerxnA8u5JPDuZRXNVEcoztjrtoieqBY5kV/O+ONDIKanBytGNkgBuBvi5U17eQVlDNoTNlqDwdGaFytcj79Vdvcq+ub+Hlrak06Q2suzmaOUmdN6dC+93PuCgVOSV1pBfUYDCaiR/Zt359a+ou/29OlbDtmwt4uNrz61VjmdRJt45MJmNkgDtjRvlw8nwVp3M0hAe6o/Zytnb4/dZZ/i1tRt78PIMvjxWjbzUyLSGAZdNGkhytZoSvC7mldR2tU+OjVTj0o6vBVsxmib/uSudkdhWjw7159LbETu9sXRyVJEb4ciK7ktO5GkL93fD3HvzH9cfKq3X8+ZM0TuVoUHk6smRKGIumhDJnQgjV9XrOF9VyPLuSmBAvvN2735dtMGjSG/jj9rO0Gsw8sWpMj79rAT4uVNY0k3GxBicHO0LVg+M8fK2iykb2HitmfLSKSXG9Wx/qWnK5jMLyRvLK6pkU59cxY20otURp6vS8+2UOgb4urF3YfcH8YzKZjCCVKwsmBBMb6oVMJrNZS5Qoorqx70Qx7+/LQUJi6dQwfr58NLPGjmByvD+zk0bg5KDgQmkdxzMrcXVSDoo7v57m3tpmYvP2s2jqWrhrXmSXBdQVdgo5SVEqUnM0nM2rJirIA5WN+6Sv1VX+h86UsfXrXDxc7Hnm7iRC/Ny6fC0PVwcigzxIyazkVK6GxHAfPAb5gPNr869tbJ/5kltST3yYF79ePZbpCQEE+LgQ6OtCdIgX0xMDqde1dkwnTo7p35gNW/jkUB6HUsuIDPLg8dvHYG93/fidHe2IDvEkJaOC07kaJsb64TJEBpuXVDXx8kdn0NTpmZ4QwKO3JRIb6oXK04mokT6MGelNkMqF41lVnMiuJCbUC2+3wV9IfbA/h9yS9q6u3i5CGR3ixZH0cs5d0DItIWBQjtncc7SIi+UN3H5ThEWK9pY2E2fztKg8nYgY4QEMrSJqx7f5FFY0cue8SILVXZ+Hr0cmk3UUX7YqooZuu/0A+OJoIdsP5uHl5sDG9RNYNn3kVXfoTg52LJ4SxjN3JeHmYs/Wr3P59w8XbRhxz5kliX/uyaKkqombxgZ22oV3PS6OSh5Y2t6V98892ehaDFaM1HKOZVbwwb4c3JyV/Ned43p8IosM8uSBpXG0tpnY8lkazUMkX4CqOj0vfnCK4somZo4J5PE7xnRa9Hq42HP/kjhuGjeC4qomNn98hib90MkzJbOCfSdKGKFy5fHbE3vUkjYywJ11N0fT2mbivS/PIw2BFZJLNU28uq392Nx7czT3LY7FqZPWtvHRah66NZ42g5k/bj9HZU1zJ682eGQUVHMkvYJQPzcWTen9AHFXJyXLZ4bT0mZi1+ECK0TYPwajmWNZFbi72DO6j7PyrpV4eaHOtPyhtyFxTUMLP6SV4+flxMQ+LvUwWIgi6jq+Ol7Mzu8L8HF34Jm7xnU5sDjEz43n1ibh6+HIv3+4yLdnywYw0r7Z/cNFTudoiAnx5K75Ub0eXBse6M6yaWHUNraydX+ulaK0nKzCGt7ek42Tgx1PrRnX60GdE2LULJsWRnVDK+99lTMkLrjaOj2vfpRKdUMrK2aGc+/N0V2Od5LLZKxd0D51uLiyib//OwOzefDnWVTRyLtfnsfJQcHv7pvYq+ULpsT7kxjhQ3ZRLYfTyq0YZf+V/aiAWn9LTLdrBE2IUbP+lhj0rUb+8Z8sjCbzAEXaO/pWI+99dR6FXMbPFsX0eamCGYkBhPi7cTitnNKqJgtH2T/n8rToWoxMjfe32FIMnq4OhPq5kVNcR3OL0SKvOVC+Ol6MySyxaErooJ2g1FOiiOrEqfNVfHKovQXqmbuTetQ3r/Zy5qk7x+HqpGTr/lyyi2oHINK+OZFdye4jhfh6OPKL5aP7PJB48dRQIgLdOZZVyanLC8gNRsWVjbyxMx2ZDB5dmUBwH8dMLJ0WxqggD06er+KHQX7Bra5v4ZVtZ6huaOW2WeEsnRrWo0JZLpNxz8JoxkT4kFlYy64fBt9d/Y816NrYsjMNo9HMA0vjCeplt4BMJmPdwmicHBRsP3iB2sZWK0XaP2VaHa9uO0Njc/vYxZ5OcpieGMDkeD8uljfwxdFC6wbZRzu/K6C6oZVbJod0273eFYVczs+WxCNJsP1QngUj7L8f0tvPF9MS+jcW6lrjonwxmaUh1RqlazHwfdolfNwdmNLLbtvBSBRR18i/VM9bX2ThoFTw+O2J+Hr0fLyP2tOJR1YmAPCXz9OprB18TeiFFQ38a082Dvbt+bk5930qtEIuZ8OSOOwUcrZ+nTsou/XKq3Xtg1XbTNy/JI6YUK8+v5ZCLufBpXE4Odix9Ztcyqt1FozUcrR1el7Zloq2voXlM0ayeEpYr/5eLpNx/9I4VJ6OfHG0iLMXBucJ2mgy89ddGdQ0tLJ8xkjGjvLt0+t4uzuyavYo9K0mPtg3+FoZL10uoBqaDdyzMJqberlK9dr5Ufi4O/DF0SLyyuqtFGXfZF6s4UBqKQE+ziydGtbv1xsfoyY+zIvMizWkF1T3P0ALqGtqJb2gmpEBbhaffDQ+un1W2umcobMh8ZG0ctoMZuaMDxrSM4Gv6FEGL774IqtXr2bNmjWkpaVd9djRo0e5/fbbWb16NW+++aZVghwo2jo9W3akYTSZ+fmt8X26K4oK9mTdwmh0LUZe35E2qJpZtXV6Xt+RhsFo5qFl8Rb5Qvt7O3Pr9DDqdW1sPzi47v60dXo2f3yWhmYDdy+IYmJs//vefT2cuPfmaNoMZv6+OxODcXB1kdQ2tvLcX4+gqWth2bQwlk0b2afXcXFU8ssVCSjt5Lz1RdagvCHYfjCPnJI6xkepWNzPC/DMMYHEhnpxNk/L8exKywRoAbkldby0NZUGXRt3z49i9rjeb/Ph7Kjk/iVxSJLE23uyMRhN3f/RAGjSG3h7TxYKuYwHl8aj7GIiQE/JZDJWzYlEBnxyMA+T2fbfz5TMCiQJpiUEWPy1A32c8fd2Jr2g+ieLBQ9GZkniYGoZSjs5MxKH9pIxV3RbRJ04cYKioiK2b9/OCy+8wAsvvHDV4//zP//Dli1b2LZtG0eOHCEvb3BdSHuqucXIn3ek0dBs4K55UYzp410twIwxgSyYEEx5dTN/+3fGoPgi1+va2Lz9LHVNbayeM6rPd+2dWTgxhBC1Kz+klZNVWGOx1+2P6voWXv34DLWNrdwxO6JHMw97amKsH9MTAyiubGLn9/kWe93+qqxt5pVtZyjX6lg8JZRbp/etgLoixM+NdQuj0bcaeXNn+qA6SR9KLeXA6VJG+Lpw3+LYfq9XJpPJuPeWGOyVcj76+gINg2CG0+G0S7y67Qz6ViP33hzdq8kf14oO8WJecjCVNc3sPlJouSD7SJIk3t+XQ11TG8tnjCTUv+/deNcKVrsyPTGAMq3O5t3uBqOZA6dLUdrJLXITdy2ZTMb4aBVtRjMZg6TlrSsZBTVU1emZFOs36DYS7qtui6iUlBTmzWtfzSsiIoL6+nqamtoH7ZWUlODh4UFAQAByuZxZs2aRkpJi3Yi70Wow8dXxYqp6MRulvVsgnUtaHfOSg/p1srpi1exRJEb4kHGxxuYtNM0tBv60/SxVtXoWTwllwcQQi76+nULO+kUxyGTwzt7z6Ftt2/qWV1rH/7x/Ck1dC0unhnHLJMtvB3HXvEj8vJ3Zd6JkUJy8zuVp+e93T1FZ08ztcyJZOTPcIitxT0sIYPa4EZRqdLz/1eCYwfbd2TI+2J+Lm7OSR25L6HR2Wl+oPZ1YOTOCJr2Bj7623WSJUk0TWz5L45295y+v5DzWIhvNrpwZjq+HI18eK6aootECkfbdwdQyTp2vYlSQh1W+n8tnhGOvlPP54Ys2PR8dTrtETUMrs8eNsFrRMD5aBQyNLr2DqaUAFrnGDhbdnn20Wi3x8fEdP3t7e6PRaHB1dUWj0eDt7X3VYyUlJV2+npeXM3YWaLa9nvzSOj45lMdXJ4p59t4JJER03eLSZjDxx49SySysZWKcP4+sTkJhodkCv71vEk+9fphvTpUS5OfObXMiLfK6PaFStd/ZlWt1vLztLCVVTdw8JYyHbku0yjYXKpUbq+Y2sP2bXD47fJFf3Zlk8ffoiWMZ5by29TStBhMP3DqaZTMjrPZez947gf96/Xve3pvN5sdm4m+DrWHqm1r55EAu/zlcgFIh51d3jmNOsmWL5EfXjONSdTMpmZXEj1JxqxX/Tbuz/3gR732Vg7uLPS/+YhqhnezmfuWz3xdrbo7lbJ6WE9lVzBhXx03jLbOaeUubkYamNpr0BlrbTNgr5dgrFchk7YuENukN5BbXkZGv5URWe/dPbJg3T6wZR2Avu927yv/R1ePY+I8UPvwml9cem4nCBmNSjqRd4qNvcvF0c+DZeyfiZ+GFTlUqN1QqN26fHclH+3P4Pr2CtbfEWvQ9eqLVYGLvsWIc7BXcszgeTyvtwenr64ray4m0gmoMRlO/Pv/WdEnbRHpBNTGhXiQnWKcrzxa59/oWrr93orVWHlvh7qBg3cJotn6dy//3t6OsnjOKOUlBnU6jbGxuY8tn6eSV1RMV7Mn6m6Ooqbbs1NhHV47mDx+m8u6eLExGU5/GNPSWSuWGRtPI+aJa3vw8HV2LkXnjg7h9xki0WutN/Z07LpBjGeUcPFVCTJDHgC7F36Br4+MDFziWVYm9UsEvVySQFKVCo7HeHbeHg4I750bywf5cNv4jhefWjh+Q7X+MJjNFFY2cuaDlQGoprW0mfD0ceXjFaML824sKS+f9wJJY/v/3TvH2vzNQSBKT4gZ2bZeWNiMfH8jj+3OXcHVS8uTqsTjbyX6S55XPfn/cuzCa/37vJFs+PYuHkx1BfRw7WKpp4mR2FVlFNVy81Ii5h+fOYLUrK2eGkxjhgwypV/l0l3+wtxPTRvtzJKOCf/07neUzwnv82paQW1LH5o/PYq9U8PhtichNJot+Vn+c/4zR/uw9epHPv81jQpTvgK/cvv9kCTUNLdwyOQRDSxuaFut1EY8d5cv+kyWcu6Al1Hdwrr7/2YELSBLMTAywynnZEt/9rl77ero946vVarTa/5udU1VVhUql6vSxyspK1Grb711007gRxEb48sI7J/jomwscTitn1exRxIW1Lw/f0mYkJaOCL48Xo61v31F7w+I4q2zA6uvhxFNrxvLS1lQ+3JeDXIZFmua7UlGt4+3dmRzLqkQhl3HvzdFWf09o79Z7YEkcv3/3JO/vyyE80N3qJ66G5ja+O1PG/pMl6FqMjAxw59d3j8fFbmDWHpmdFER5TTPfnCrlr7vSefyOMX2ecdJmMFFU2UhpVRP1ujYaL7damM0SRpOZ5lYjOr2RiprmjvFJ7i723DYznFljR1h1A2Fv9/b9ql7+KJV/fpGFi5PdgOwebzSZOXtBy47v8qmq1ROsduWhZfH92ry1O37ezty3KI43P0/nzc8zeP7e5F51GeaW1LH3WBFp+e3dvHKZjJGBbqg9nXFxtEOplGMwmmkztI+VlMtlOCjlhPq7ERHoga+Ho1U3Rb5zXiTni+v4z9FC4sK8iQr2tNp7XSFJEt+dvcS2AxeQJIlHViRadBxUZxzsFayYGc47e8/z+fcFbFgSZ9X3+7GWNiN7UwpxsFdYpbvyWuOjVew/WcLBUyX87OZoq79fb7UaTPyQVo67i71N97mzhm7PDNOmTWPLli2sWbOGzMxM1Go1rq7td2ZBQUE0NTVRWlqKv78/hw4dYvPmzVYPuidGR/jy+/smsvO7fI5mVPDa9rPYKeR4utrTpDfQ0mZCIZexZGooy2eEW3Uj3QAfF55cPZZXt53hva9yyCurZ+38aBzs+9+taTKbaW4x0qBrI7ekjozLU3uNJolQPzfunh/FqCAPC2TRM4G+LqyaPYqtX+fy50/T+M3aJIuNWbmiQddGZmENafnVnM7RYDSZcbRvbxWaOz4IPz93q7ZAXWvNnEiqavWk5Vfzxs50Hlwa1+MFH5v0Bk5kV3Isq5KLlxowdbO4pYNSgY+HI9HBnkSHeDImwtcin6OeCPFz47HbEnlt+zne2JnOvQtjmDK6b+u8tLQZqW9qQ99mRJLaZ+1IUvvFVt9qpKpWz6XqZk6dr6JJb0AG3DI5hOXTw61aLF4xPlrFzRND+OpEMX/5PJ1fLE/otpXxklbHJ4fyOoqnyCAP5icHEz/S2+Lfgf5wdlTy4LI4Xtqayj/+k8mmn0206iDfyppmdnybz+lcDS6OdmxYEjdge25OGx3A1ydLOZpRwbzkYKsXbtD+WX57TzYNzQaWTg0bkAHUo0Z4MMLXhaNpl1gxPQzPQbY11fGsSppbjSwdHzYsljX4MZnUg/65zZs3c+rUKWQyGRs3biQrKws3Nzfmz5/PyZMnOwqnBQsWsGHDhi5fa6Aubj9u2iuqaOSrE8VU1TZT19SGQi5jemIAs8YEDug+aFV1ev66K4OiikYCfJy5eVIIE2P8Or0ISpJEY7OB8modFTXNVNQ0U9PQSnOLgaYWIzq9AV2LsdNBk8F+biyaFMKEWLVVi8PrkSSJD/fncuhMGXFhXjzRj9YZaC8U88sayLhYTXpBzVWDYv28nJg7PohpCQEdFyprNuteT0ubkb98nkHGxRrUXu3rhV2vG8hgNJOWr+VoRgVp+dWYzBIyWfs2JOGB7oT5u+Hl6oCbsz2O9goUCjkKuQwnB7seFRDWzv9cnpa/786kpc3EjMQA7poX1WUhp2sxcL6ojvyyei6WN1Bc1Yi+tWcz/dyclUyJ92dGYkCPluSwZO4ms5k3PkvnXH41AT7OPH57YqcL71bV6fnyWBGHz5VjliRiQjxZMTOcyCDrt/Bcqzf57z5ykV2HL5IY4cMjKxP6fXGTJInmViO1ja1oavVU1DSTmqsh/1IDANHB7dsnWbN1urP8MwtreO3js8SEePJfd46zaisfwM7v8/niaBFRwZ48tWbsgBUNh86U8cG+HJZNCxvwbtquSJLEpndOUqbR8erDU/Gy0tgwW3Xn9aiIsiRbFFGDicFo5tNDeRw4XYoEONoriBjhgZuzEid7O+qaWqm5fBJqvs6sEgelAhcnO5wdlLg62eHiqMTFyY5QPzfiw32Ij1TbPHeT2cybOzM4m6clOUbNhkWxvWox0bcaOXtBS+oFDVmFtR3FokIuIzLIg4RwH0aH+xCkcvnJSdFWx95slvj8cAF7UoqQySA+zJsp8f54uztgNEtU17eQXlBNVmFNRxERpHJl6mh/JsX5WezkMhD5V9Y289ddGRRXNuHkoGB8lJpxUb442dshl8vQ1OkprGik4FI9hRWNXDnLyAB/H2d8PBzxdHHAycEOuby9y6t9M9H2z7fK0wm1lxPBatdeXYQsnbvZLPHJoTz2nyzBxdGOiXF+jInwxcXRjjKtjpg9bfcAAA9NSURBVKzCGk6er0KS2rsBV82OYOwoX6tfqK+nN/mbzRJ/+uQsmYW1jB3lyy+Wj+5xK5/BaOZ8cS05xXWUapoo0+ioa2r9SUuqTAZxYd7tn/FYP6tv8XG9/P/86TnS8qt5ePloq3UnSZLEt2cv8cG+HNSeTvx23fh+LWbcWy1tRv7rL0exU8h59eGpg6bF58paZ8kxah5ePtpq7yOKKAsbrEXUFdp6PT+klXMkvZzqhqu3mrBTyPH1cCTAxxn/y4upBfi44OvhiIujstsT3WDJvbXNxGvbz5JXVo+/t3O3C5i2Gkyk5VdzIqvy8kyT9jEjvh6Ol4smb2JCvLrtGrF1/mdyNXyR0r5je2dUno6Mj1IzZbR/n7eg6cpA5W8wmtiTUsQP6eXUNHS+XYpCLiM80L1j7E2Yv5tVu7aslfv35y7xycG8Tm9sglQuLJoSyoQYtcX2Reur3ubfamjfVDursJbECB8eWhZ/3eNjNJnJKKghJbOCtIJqWtv+rzXRw8UeXw9H3Jzt8XC1R325CA4P9LBay0Nnrpd/ebWO379zEoVCzvPrk/HrwVZevVFS1cS2b3I5X1yHk4Mdv1s3vsv9Vq1l19FCdn9fwEPL4gd88sf1/O3fGZzIruKZu8YRHdL3HSO6I4ooC7P1hbQ3Wg0mGpvbaGk14e5qj5uTsl93soMpd4PRzGff5bP/ZAl2ChnjIlUkRakYGeCGySyhbzWRX1bP+eJasgprOwZMB/g4MynWj+QYNQE+zr369xgs+ZdX60jN1dBqMGOnkOHqpCQuzBs/LyertlQMdP5mSeJCSR25pfWYTGZMZglPVwfC/N0IVrtirxyYMVtg3dyNJjN5pfWkXy7wg9SuBKtdCfN3s1nL07X6kn+bwcQbO9PJuFiDs4Md85KDmDLaH0elAgnIK60ns7CGM7kaGprbt3ZSeToyLlJFQoQPIWrXAW1x6UpX+R9JL+ftPdkEqVz57brxOPTxcylJEpo6PcWVTVworSenuJaSqiYk2mfJrZ47yuJFWk8ZZDIe+sMBRo3w4Ll7xtskhh/T1On5zd+PEeDrzH/fN3HInvdEEXWDGYy5p+Vr+eibC1TV6q/7HLWnExNi1UyM9eu0m66nBmP+A+lGzv9Gzh36nr/BaGb/yWL2nSihSd/5HpiuTkomx/kxNcGfUL/BUzj+WHf5f7Avh0NnypgU58f9S2J73HJoMJrJvFjDiexKzuVXXzUW1U4hJzLIg1smhTA63PozVruiUrnx27/8YPWuy55698tsvj9XzoNL45hs5c2GB+0SB4JgCYkRviSE+1Cq0XEmV4OmTo+dnRylnZxQPzeigz3x9ez5Zs+CIFiO0k7O4ilhzBsfzPdplyiqaMRgbG9VDPVzJS7Mm7AAN5t3V/bXmrmRFFc2cjyrktrGVn5xa/x1JxeZzGayi2o5kVXF6VxNR+Hk6+FIYoQPIX6uhF+eDGKJff8sZfWcUWQX1fL+vhyigj1xd7FNK6G2Ts+R9Ar8vJ2tsuXNYCGKKGHAyGQygi93gQiCMPg42CuYn2yZVdoHI6WdnF+vHsu/9mRzOlfDpndPsmhSKHEjvQnwdqamsYWKmmbOXNBy6nwVjZe7L73cHJg5JoCJsX6Dqvu2MwE+Ltw2K4KPD1zgva/O88jKBJvEu/dYESazxNKpoVafUGBLoogSBEEQbhhODnY8vGI0+06UsOPbfLYduAC0zyT88eAWd2clc5JGMDHWj1FBHjZZLqav5iUHcSZXw5kLWvafLGHBhOABLaSq61s4nFaO2stp0AxwtxZRRAmCIAg3FJlM1r5OX6yazIs1ZBbWUN3Qgq+HEypPJ6KDPYkJ9Ryy3ZdymYz7Fsfy3++eZPvBPM4X1bL+lpgBWxdxx3f5l1uhwobsv2FPiSJKEARBuCF5uzsyY0wgM8ZYZ0NcW1J5OvH7+yby9p5szuVX8+zfjxF6ecasu3P7KupyuQxnRyWuTkr8vZ37NaHnilPnqzieVUl4oDuT44d3KxSIIkoQBEEQhiVvd0eeXDOWg6dLOXSmrH0pkpK66z7f3cWe+DAvZo0dQWSQR68LqgZdG+/vy0FpJ2fD4p7PfhzKRBElCIIgCMOUXCZjXnIw85KDaW0zUabVoW9rn2loMkk0txho1BsoLG8gq7CWlMxKUjIriQh0Z9HkUMZG9mwFfrMk8f6+HJr0BtbMjbTJYqO2IIooQRAEQbgBONgrCA90v+7jkiRxobSefSeKOXNBy5ad6UQEunP7TRFdrjbeZjDxzz3ZpOZqiAr2ZF5ykDXCH5REESUIgiAIAjKZjKhgT6KCPSnT6th1uIDTORpe/ugMkUEeLJgQzLhI1VVLFmjq9Lz1nyzyyuqJCvLgkZUJQ2omY3+JIkoQBEEQhKuM8HXhlysSKLjUwK4fCsgoqOFCaT2uTkpG+Lrg6+lIYUUjZRodAJPi/LhvUWyPN7EeLkQRJQiCIAhCp8ID3fn1qrGUaXUcOFVCxsUackvqyClp3/ImIdyH5BgV0xICbqgWqCtEESUIgiAIQpdG+Lqw7uYYoH0MlLa+BR8Pxz5v5DxciCJKEARBEIQes1cqCPS9MWbfdUcmST9e6F4QBEEQBEHoiRtrBJggCIIgCIKFiCJKEARBEAShD0QRJQiCIAiC0AeiiBIEQRAEQegDUUQJgiAIgiD0gSiiBEEQBEEQ+kAUUYIgCIIgCH0w7BbbfPHFFzl37hwymYznnnuOxMREW4dkda+88gqnT5/GaDTy0EMPcfDgQTIzM/H09ARgw4YN3HTTTbYN0kqOHz/O448/TmRkJABRUVHcf//9PP3005hMJlQqFa+++ir29vY2jtQ6Pv30U3bv3t3xc0ZGBqNHj6a5uRlnZ2cAnnnmGUaPHm2rEK0iNzeXhx9+mPXr17N27VrKy8s7Pea7d+/mvffeQy6Xs2rVKu644w5bh95vneX+m9/8BqPRiJ2dHa+++ioqlYr4+HiSkpI6/u7dd99FoRj6q0tfm/+zzz7b6fluOB57+Gn+jz32GLW1tQDU1dUxduxYHnroIZYuXdrxvffy8uL111+3ZdgWc+31LiEhwbbffWkYOX78uPTggw9KkiRJeXl50qpVq2wckfWlpKRI999/vyRJklRTUyPNmjVLeuaZZ6SDBw/aOLKBcezYMenRRx+96nfPPvustHfvXkmSJOm1116Ttm7daovQBtzx48elTZs2SWvXrpVycnJsHY7V6HQ6ae3atdLvfvc76YMPPpAkqfNjrtPppAULFkgNDQ2SXq+XFi9eLNXW1toy9H7rLPenn35a2rNnjyRJkvThhx9KL7/8siRJkjRx4kSbxWktneXf2fluOB57Seo8/x979tlnpXPnzkklJSXSihUrbBChdXV2vbP1d39YdeelpKQwb948ACIiIqivr6epqcnGUVnXhAkT+N///V8A3N3d0ev1mEwmG0dlW8ePH2fu3LkAzJ49m5SUFBtHNDDefPNNHn74YVuHYXX29va89dZbqNXqjt91dszPnTtHQkICbm5uODo6kpSURGpqqq3CtojOct+4cSMLFy4E2lsc6urqbBWe1XWWf2eG47GHrvMvKCigsbFxWPe+dHa9s/V3f1gVUVqtFi8vr46fvb290Wg0NozI+hQKRUe3zY4dO5g5cyYKhYIPP/yQdevW8atf/YqamhobR2ldeXl5/PznP+fOO+/kyJEj6PX6ju47Hx+fYf8ZAEhLSyMgIACVSgXA66+/zt13383zzz9PS0uLjaOzLDs7OxwdHa/6XWfHXKvV4u3t3fGc4XA+6Cx3Z2dnFAoFJpOJjz76iKVLlwLQ1tbGk08+yZo1a3jnnXdsEa7FdZY/8JPz3XA89nD9/AHef/991q5d2/GzVqvlscceY82aNVd1+Q9lnV3vbP3dH3Zjon5MuoG2Bfzmm2/YsWMH//rXv8jIyMDT05PY2Fj+8Y9/8MYbb/D888/bOkSrCAsL45FHHuGWW26hpKSEdevWXdUSd6N8Bnbs2MGKFSsAWLduHdHR0YSEhLBx40a2bt3Khg0bbBzhwLneMR/OnwWTycTTTz/N5MmTmTJlCgBPP/00y5YtQyaTsXbtWpKTk0lISLBxpJZ36623/uR8N27cuKueM5yPPbQXzKdPn2bTpk0AeHp68vjjj7Ns2TIaGxu54447mDx5crcteEPFj693CxYs6Pi9Lb77w6olSq1Wo9VqO36uqqrquDMfzg4fPszf/vY33nrrLdzc3JgyZQqxsbEAzJkzh9zcXBtHaD1+fn4sWrQImUxGSEgIvr6+1NfXd7S+VFZWDpsTR1eOHz/eceGYP38+ISEhwPA//lc4Ozv/5Jh3dj4Yrp+F3/zmN4SGhvLII490/O7OO+/ExcUFZ2dnJk+ePGw/B52d726kYw9w8uTJq7rxXF1due2221AqlXh7ezN69GgKCgpsGKHlXHu9s/V3f1gVUdOmTWPfvn0AZGZmolarcXV1tXFU1tXY2Mgrr7zC3//+947ZKY8++iglJSVA+8X1ysy14Wj37t28/fbbAGg0Gqqrq1m5cmXH52D//v3MmDHDliFaXWVlJS4uLtjb2yNJEuvXr6ehoQEY/sf/iqlTp/7kmI8ZM4b09HQaGhrQ6XSkpqaSnJxs40gtb/fu3SiVSh577LGO3xUUFPDkk08iSRJGo5HU1NRh+zno7Hx3oxz7K9LT04mJien4+dixY/zhD38AoLm5mfPnzzNy5EhbhWcxnV3vbP3dH1bdeUlJScTHx7NmzRpkMhkbN260dUhWt3fvXmpra3niiSc6frdy5UqeeOIJnJyccHZ27vgyDUdz5szhqaee4sCBAxgMBjZt2kRsbCzPPPMM27dvJzAwkOXLl9s6TKvSaDQd/f8ymYxVq1axfv16nJyc8PPz49FHH7VxhJaVkZHByy+/TFlZGXZ2duzbt4/Nmzfz7LPPXnXMlUolTz75JBs2bEAmk/HLX/4SNzc3W4ffL53lXl1djYODA/fccw/QPqlm06ZN+Pv7c/vttyOXy5kzZ86wGHDcWf5r1679yfnO0dFx2B176Dz/LVu2oNFoOlqfAZKTk9m1axerV6/GZDLx4IMP4ufnZ8PILaOz691LL73E7373O5t992XScO8sFgRBEARBsIJh1Z0nCIIgCIIwUEQRJQiCIAiC0AeiiBIEQRAEQegDUUQJgiAIgiD0gSiiBEEQBEEQ+kAUUYIgCIIgCH0giihBEARBEIQ++H+LO5EhVF7KjAAAAABJRU5ErkJggg==;" vertex="1" parent="1">
          <mxGeometry x="96" y="188" width="593" height="86" as="geometry" />
        </mxCell>
        <mxCell id="JDvXGBGlwjeCY7y2N17N-13" value="" style="shape=image;verticalLabelPosition=bottom;labelBackgroundColor=#ffffff;verticalAlign=top;aspect=fixed;imageAspect=0;image=data:image/png,iVBORw0KGgoAAAANSUhEUgAAAk4AAABVCAYAAAC/12uEAAAABHNCSVQICAgIfAhkiAAAAAlwSFlzAAALEgAACxIB0t1+/AAAADh0RVh0U29mdHdhcmUAbWF0cGxvdGxpYiB2ZXJzaW9uMy4yLjAsIGh0dHA6Ly9tYXRwbG90bGliLm9yZy8GearUAAAgAElEQVR4nO3dd3yUVb748c/U9J5JryQhDRJK6B0URYqFvrLYVt3rirqrV929XnV/v6ur6969v9XVa1k7oAiKIr2DQAghCamkk0JI7z2Zmef3R0gESULKJDMJ5/168UdmJpNzeOZ5nu98zznfI5MkSUIQBEEQBEG4KbmxGyAIgiAIgjBSiMBJEARBEAShj0TgJAiCIAiC0EcicBIEQRAEQegjETgJgiAIgiD0kXK4/lB5ef2Q/w0HB0uqq5uG/O+YKtH/W7f/t3LfQfT/Vu7/rdx3EP0fyv5rNDbdPj6qMk5KpcLYTTAq0f9bt/+3ct9B9P9W7v+t3HcQ/TdG/4ct4yQIgulIyCwn5mIpxZVN1Da08viKcEL9HI3dLEEQBJMnAidBuMVkFFTzz53JSBKoVXLa2vXsOZsvAidBEIQ+EIGT0K22dh2ZhTWUVjdTVd/CjHA3vDTWxm6WMEgNze18+GMaMmT8YV0kob4O/HVrAml51ZRWNeHqaGnsJgr91NSiRa8XG0AIwnARgZNwg+ZWLW9ujaegtKHrsaLyRp5ZHWnEVgmDJUkSn+69SHV9K/fO8Sf8aoZpwURPMgtrOJZQxLpFQUZupWHVNbWx+WAmY9xtmTfBAwuz0XXJO59exoc/puLmZMWSqT5MDXNBIR9VU1cBqG9q42BsITlFtaxdGISvW/eTdgVhOIy+M0wYlHatnn9+l0xBaQNRwRoeWxGGq4MF6fnVtGt1xm6eMAhnUkpIyKogxMeepTP8uh6fHKzB1lLF6eRi2tpH1zHefTqP8+llfHMsm39/7wz7YvKN3SSDOZtawvs/pCKXyyiuaOSj3Wm8+mksza1aYzfNYPR6ie9/yuX596PZE51PekENr2+O43RysbGbZnDNrVrOppbQ0jZ6jt9oJQInoYtekvh4TxoX86uZGOTMb+8ex/QwNyYEOdOm1ZNRUGPsJg6py+UN7DubPyoDxNZ2Hd+eyEGtlPPI0jDkclnXc0qFnDmRHjS2aIlNLzNiKw2rur6V4xeu4Gxnzj1z/JHLZWw/lkNm4cj/HMeklfLR7jTM1Ar+fd1EPvjjbUQFaygqb+TEhSvGbp5BSJLEFwfS2XU6D3OVgnWLgvjdveNQKeR8vOciu05fMnYTDerz/el8+GMa//mvGC5kVxi7OUIvROAkdIlJLeXcxTKCvOx4fEV41801YowTAEm5lcZs3pBKyqngtS/j2H48hyNxRcZujsEdii2kpqGN26d442RnfsPz8yI9kAHHEkZP3/dE56HV6Vk+048Vs/x5alUEALvP5Bm1XYNV39TGFwcyMFcr+Pf1EwjwtMPV0ZIHloRgplJw6HwhWp3e2M0cFEmS2HY0m5OJxfi4WPPao9NYPMWbycEuvPxgFA42Zuw9m09TS7uxm2oQF/OqOHexDAcbM2oa2nh7RxJbD2Uau1lDrrGlna+PZI24LzMicBIA0On1/HD6Egq5jEeXhaFW/VwbI8jbHjO1guSc0Rc4SZLE4fOF/GNHEnq9hJlawb6Y/FGVLq9ramPv2XysLVQsmebb7Wuc7S0I9XMg90odtY1tw9xCw6usbeFk4hVc7C2YMc4NgEBPO0J9HUi5VMWl4jojt3Dgdp3Ko7lVy92zx+DnZtv1uJW5ijmR7lTXt3LuYqkRWzh4B84VcjC2EHcnS/6wbgKW5qqu51wcLFk02Yu2dj2nU0qM2ErD0Or0bD6UiQzYtHI8rzw0BXcnSw7HXR7Rn9O++O5ELgdjC3lzSzzbj2fTrh0ZAb8InAQAolNKKatuZk6kB872Ftc9p1TICfN1oLS6mdJRVKH2clkDb26JZ+vhLGwsVDz/q4ncMcWb+qZ2jsaPnszL7tN5tLTpWD7LD0vznidHh12dLJ5RUD1cTRsyu6Pz0Ookls/yQ6n4+TK3bKZfx/MjNOt0paKRYwlFuDpYsHCS5w3PL47yRi6TsT+mEEkamSvtKmqa2flTLrZWap5bNxFbS/UNr5kd4Y5SIeNYfNGI7WenQ7GFFFc2MX+iJ35utnhprNmwOBiAb0/kGLl1Q+dyeQPHLxThYm+Bs705+84W8LevE0bE8RSBk4BWp2fX6UsoFTKWzeg+IzE+oGO4biRnnbQ6PZsPZvDWVwm8/PE5Xv00lszLtUwaq+HlB6cQ4GHH4ineWJgp2R9TMCom2ZZWN3EsoQiNvTkLJt54o71WsI89AOkjfC5bfkk9JxOv4OZoyfRw1+ueC/GxJ9DTjoSsCgrLGnp4B9P1zbFs9JLEmoWB1wWEnZztLYgK0XC5vIHUvCojtHDwth3tyDysXRCIg41Zt6+xtVQzJcSFkqomkrJG7nyglEuVfH/qEtYWKu6dO6br8VBfB8b5O5KWVz1ij2NvJEni6yNZSBL86vax/PnhqYz1tifrci1lNc3Gbt5NicBJ4ExKCRW1LcyL9MTR9sb5L/DzPKfk3JF7EsdllHM0voiL+dVU1jXj7WLNM6sjefK+8V39tjRXccdUbxqa2zkaf9nILR68707kotNLrJwX0O2N9lp+bjaYqRWk54/cjJNekth8MANJgvsXj71hab5MJmPZzI4vB0fiCo3RxAFLuVRJUk4lIT72TAh07vF1ncOxx0Zg1jTlUiVxmeUEedndEPT+0oJJXgDsOTMyJ4knZJXz9o4kJAkeXR6GtYXquudXzgsA4NvjOSMiC9MfidmVpOVVM26MIxEBTpirlUwaqwHg0hXTH54UgdMtrq1dxw+nLqFSyrmrh2wTgKOtOZ4aK9ILqkfskvWTiR2rjV57dBrv/n4erzw0hYirmbRr3R7VkXU6ljCyhwFyrtQSm16Gv7sNU0Jcbvp6hVzOWC97SqqaqGloHYYWGt7ppGJyrtQxJcSlq07VL40b44StpYoL2ZXoR8jx1en1bDuSjQxYtygImUzW42t93WxwdbDgYn71iJok3tauY8uhLGQyuP/2sb32ESDAwxYfF2tiUkuoqmsZplYaRlJOJe/tTEEul/HM6gjGj7nxOuTrZsPUUBfySupJGsGZ/u58fyoXuUzG2oU/140b494xXy93BMzrEoHTLe5gbCHV9a3cHuXdY1q8U0SAE+1aPWkjMCNRVtPMxfxqgr3tcXey6vW1FmZKJgY5U1XXyqXi+mFqoWFJksT2Yx3zI9YsCLzpTahTiG/ncN3IO8YNze1sP56DmUrB2oWBPb5OLpMREeBMXWMb+SUj4/j+lFhMUUUjsyPc8XG9efHHcH9HWtp05BTVDkPrBk+n1/P+D6mUVjWxcJJXn/ook8mYE+mBXi+NqMBCr+8YpgL4w5oJXXMLu7NockdWLXkUrWiurG2hoLSBcH9HPJ1/vhb7uFojl8lGxIR4ETjdwmob29hzdbXVXdN7zjZ1mhjUkUpNyCwf6qYZ3E9Xs01zIz369Pqo4I4MzfmMkVnX6NzFMjILa4gMcCLYx6HPvxdy9bUjrWZXu1bHezuTaWhuZ8Vsvx6HnDtFBnZ8w78wAubHNLVo2flTLmZqBfddMw+mN+P8O/qXcsn0h9YlSeKzfelcyK4gzM+BNQt6Dnp/KdS34/M6kpazn88oo6SqiZnj3Bjrbd/ra/3dbVGr5CPufOxNZ1mbX2b71SoFXi5W5Jc0mHymVAROt7Bdpy7R2qbj7tn+va626jTGwxZbKzUXsitG1N5YOr2eU8nFWJgpmRys6dPvhPs7YKZWEJdRNuKG686mlvCv3WmolHJW9eMmBB3f+izMRtY8J0mSeHvbBdILapg8VsMdU3xu+jthfo4oFTISc0w/cNoTnUd9UztLp/tiZ917VrhTiK89CrmM1BEQOH17IpfTySX4u9vwu3vHo1L2/bbk7mSJrZWajMKaEXGe6iWJH8/kIZfJWNrL1IhOSoWcQE87iioaqWsa+WVCAJKuFveM7GaaxBh3W7Q6PUXljcPdrH4RgdMtqqC0nhMXOlYezZvQtyyMXCZjYpAz9U3tZI+QIQCA5JwqahvamBHuel19qt6olAomBDpTXtNy3Z59pu5I3GU+/DENtUrBs2snXJcK7wuFXE6Qlz2l1c1U14+MeU7fnczlePxlAjxseXT59VXRe2JhpiTYx4GC0gaTnh9TVtPMofOFONmasXiKd59/z1ytJMjLjvySeupN+IZ7JqWYvWfzcXWw4OnVkf3eS1AmkxE+xonq+lYqa033OHZKyKygqLyRaWGuuDj0bUPtzoxx5ijIOrW167iYX42Hs9UNZW8A/K7OczL14ToRON2CqutbefvbJPSSxLpF3S9r7knXcF3WyBiuyyioZuvhjgq8fR2m6zT56iqPuMyRMVyXc6WWLYcysbVS88KvJt50GKAnncN1aSNgGfSPZ/LYE52Pu5MVm1ZF9Dkwhp+/8Zry/Jgdx7LR6iRWzg/oV9+gY56TBCa7nD33Sh2f7cvAwkzJU6siuq3X1BfhVydWZ1427cBCkiR2n8lDBl0rO/si5GqZkNEwXJdeUEObVt/tohwYORPEReA0AJIkUVXXQkPzyCv339yq5R/bE6mqa2XlvDFEBPS8rLk7ob4dQ1gJmRUmnRrX6vRsOZTJm1sTqKxrYcUsvz5NOL3W+AAn1Co5senlJt1X+LkuCsAT94zrd1+vFRHghEzWUU+nuNJ0U+Z7ovPYeTIXJ1tz/uu3M/t94428uqTfVPcFyyys4XxGOQEetkwL7X1pfnc65zmlmmAJkeLKRt75LgmdXs+/3R1+0wUbvekKnEx8nlNeST35pfVMDtb0q7/+7raolXIyCkfO8HlPkq4OjUd0s4oQwMPZCjOVwuQzTv3Li97icq/UseN4Nvml9TS36lAr5axbFMS8CR59XrVkTJIk8a/daRSUNTA30qNPE8J/SaWUM36ME+fTyyiqaMRLYz0ELR283WfyOBJ3GXcnSx5eGkqAh12/38NMpSBijBPnM8pNuq8Apy5cIaeojqhgzYAzTZ08nK144M4QPtuXzt++vsCfNkzudn87Y8krqWPPmXziMstxtDXj+V9NxMXRkvLy/q2Q09hb4OlsxcX8alrbdZj1M6MzlPTXBMI3Kz/QE29Xa2wsVaTkVSFJkslco86mlvD5/gxa23WsWxTEuB5uon3l72GHuVpBRqFpTx9IvBqgT+1nEKxUyAnwtONifjX1TW3YDDAzZ2yS1LH60cJMSaBX99djuVyGr5sNWYU1NLdq+z10O1xExqkPJEniaPxl/rI5joyCGuytzZg8VoNKKeeLAxn887vkEZF9ik0vIyGrghAfe359x83rpPRkUlDHN/UEE12RlF9Sz57ofBxszPiPX0cNKGjqNPnq6rq4DNMdmmzX6vhsTypKhazfk8F7MjfSg1XzA6iub+Xv31ygXWv82l16vcR7O5P5P5+dJy6zHH93G55fPxFNN3Ml+ioy0Jl2rZ4UE8nKXC5r4Juj2fzpw7PkldQzLcyVAM+BfX7lMhnh/o7UNrSRZwJlFzqzoh/+mIZMBr+9O7xf87Z6opDLCPSyo7SqyaT3WbyQXYFC3nFM+quzqn+miQeHvSmubKKitoVwf8dep4eMcbdFomMerqkacOD0+uuvs3btWtatW0dSUpIh22QyahtaOZl4hb9vu8Dmg5lYmCn5w9oJvPbodH5333j+/PBUQnzsSciq4C+b40x6cmJzq5avjmShVMh5YEnIDRWV+yMiwAmFXMa5i6UmN4Sl1en5ZO9FdHqJh5aE9Gm1YG8iApxQKuQmXZZgX0wBZdXN3BbljcsggohfWjLNh/kTPSmubOJwnPGrqB+Jv8z5jHL83W15dt0EXtoY1ecJtj2JCrk6j83Ix1eSJA7FFvLnz2LZf66A2oY2poa6sH5R0M1/uRczwzs2ON4bnW+IZg7KvpgCDsYW4uFsxcsPTul35qU3wVezrFkmOlxXVdexyCTEx35AWZSfy4SMzOE6SZLY+VMuABN7qXoP4O9xdZ6TCVcQH9Bd5dy5c+Tn57Nt2zZycnL405/+xLZt2wzdNqPQ6yWScys5Gl9ESm4lnWHBWG97Hlsedl19GEdbc55bN5FvjmVzMLaQ1zfH8fs1kSY5pLPzZC61DW3cM9sf10HebCzNVUwIdCYus5yC0gZ83QY+n8bQ9kTnU1jWwNxI90EPAUDH6qtx/o5cyK6guLJxUHMxhkJOUS27TuXhaGvOshl+Bn1vmUzGynljiL1Yyu4z+cyJ8LhhW4jhUlXXwncnc7EyV/L06oFPJP4lX1cbnO3MuZBdQbtWh0o5/MN1LW1aPt2bTmx6GbZWajbcPpbIQCeDtCXc3xF/d1viMsu5XNaAl4txrk2x6WXsOJ6Dg40Zz66dcNNiu/0V5NWZkakhqg9V8odb4tUFCJE3CRp64u9ui0opH5GFaaFj14a4jHLGetszLaz3gNnXteMzerncdFczDyjtEB0dzW233QZAQEAAtbW1NDSYbidvpq6pjbNpJXy8J41n3zvNP3YkkZxbib+HLWsXBvKXx6bz4v2Tui2qJ5fLWLcoiDULAqmub+XNLfEmsby5qaWdd75N4j8+OstrX57nSPxlXB0tWTKAeU3dmTXeHYDTycUGeT9DKK1q6hqiW7NgcN/Ur/VzVsK0huuaWtr5YFcqkiTx3P2TB51d646VuYplM/1obtWy+0yewd+/r746nEVrm47VCwINFjRBR3AYFexCS5uO1EvDf1Nqa9fx9o4kYtPLCPKy45UHpxAV4mKwAE4mk7Filh/QsQLRGLKLavnoxzTM1AqeXhVh8KAJfg4sLppoYNE5v6m3PQZ7o1LKCfa253J5I6XVTYZs2pArqmjkq8NZWJkreawP5UKc7SxQKuRcqTTdfg7oSltRUUF4eHjXz46OjpSXl2NtbbxMy9dHsojPLEdjb4GbkyUeTla4OVnibGeOhVqJmVqBDJAkqG9uI6+4ntziOi7mVZN/zViqjaWKuZEeLJjo2a9Myp3TfFAp5Ww5lMnHey7y7LoJyI00GbO5Vcvfv0kk90odFmZKSquaUchlbLwjuF/F5XozbowjtpYqzqaV9rhT+3D7Ym8aWp2eVfMCDBpETAh0RiGXcT6jjGUz/Qz2voOh0+v5bH8GFbUtLJ/px/hA535Pju6rhZO8OBJ3maPxl7ltsle39VeGUnRKCXGZ5Yz1smN2hLvB339yiIb95wo4n1HGhKCB3dgGQqvT8973KR2FO4M1PL4ifEjOo4gAJ3zdbLoWdPS3ttdglNU08/aOJPR6iU0rxw9qtWdvVEo54X4dmeHCsga8jZRZ605rm460vGo8Nd3XLuqraWGupFyqIia1lBWz/Q3YwqHT1KLl/e9TaNPqeXR5+E0r+kNHMsLN0YKSyiaTWtRwLYPcXfoyz8XBwRLlEKbBfT3suJBdwcX8ai72o+qxUiEnItCZicEuTByrwd/Drk8F9Lqz9o4QsorqOJdWQkxGOSvmBAzofQbDysact74+S+6VOhZM9uLpdZOQyzqGIBUGvigviPLhh5M55JU3MWO84W9o/ZGeX8XJhCICve1ZNi9wwMewJxPGaohLL0Mnl+Nm5OG6uPRSPvkxlYKSesL8HXnknvEAaDRDN2T6wLJw/ntLHAfiLvPMuklD9neupddLfHUwg68PZWCuVvD0+km4utj2+PqB9t/Z2Rpn+zQSsyuwd7Ay2JeL3jQ2t/OPbQkk5VQyKcSF/3ho6qCzTL31/9dLQvmvT8+x71wBf3xg6qD+Tl/VN7XxzsfnaGhu54lVkSyc5jdkf0ujseGu2f5cyK4gIaeSSeHGvR5d62xKMVqdnpkRHoM6RxfPNOfLg5mcSy/j4XvGXxdQDOW5P1DtWh3/8+FZiioaWTFnDHfO7tt2QdBxP79c3ohMpULjcPNgc7j7P6DAycXFhYqKn1dUlZWVodH0vpVF9RCnF2eEurBibgCXi2ooqWqiuKqRksomKutaaGnT0drWsSpILpdhrlbg62qDn7stY9xtMVP/fMGqrBzckOP6RYGkXarks91p+DhbDdu3O0mSSCus5ZMfU6mub2VamCv3LwqiapD96c2kQCd+OJnDvtO5BLoZ7xueJEm8/20iAKvmjhn0MexOhL8jcellHIy+xJJphhnu7K92rZ6P96Rx7mIZMhnMjXRn1fxAqqoa0WhshizjBBDqZYu7kyXH4y5z11SfIRluuZZOr+d/v08lPrMcZztzNq2MwEIh67GPg+3/xEBnDp0v5OT5gh6L8xnKhewKvjyQQXV9K2O97Xl0aSg1g7w+3qz//i5WBHjaciapmH0/5Qz5PKCWNi3/75tEisobuHOaD1GBTkP2+ezsu5/GCmsLFUdjC7hrqrdRs+C1Da1kF9WRnFvJhavFgoM8bAf9fzAh0IlzF8uITb6C/9VikUN97g+EXpJ4/4dUknMqmBysYcUM33610cm6Yzg+NavspqsQh7L/PQVkAwqcZs2axTvvvMO6detITU3FxcXFqMN01zJTK/B1szHahGU7KzUP3BnCuzuTeWNzHA8uCe3z/mgDob9aG2P3mTxyr9ShUspZPtOPFbP9DJ51+SVvF2t8XK1JyqmktrENOyvj1Bc5FFtITlEdsyI8Bl3DqCcTx2r4fH8G59LKuHOqz7Cnj5tbtbzzbRLpBTUEeNqy8Y6QYR2OkMtk3DHVh8/2pXPofGG/NmIdiIOxhcRnlhPsbc/v7hs/5JPSo0I0HDpfyOHzhYT5ORj0ppuWV8X2YzlU1DbT2q5Hq9OjkMu4Z7Y/d83wHZYbvEwm45GlYbz6yTm+OJBBkLf9kJ2vTS3t/M/2RHKK6pgS4sKq+cOTeVcq5EwLc+VI3GVScquGddi105G4y+w9m3/ddkXWFiqWTPdhjEfP2dK+mh7uxrmLZUSnlnQFTqZGp9fz2b50zqeXMdbLrk/zmn7JzaljAVNxZeOAyjcMtQEFTpMmTSI8PJx169Yhk8l45ZVXDN2uEW1ysIYH7gxm6+Es3t2ZzPwJHqxeENjvZahanZ7SqiZcHS2vu7hW17eSV1xHYVkDsRllXRsizor04O4ZvsM6B2VupAebD2ay50wev7p97LD93U6nk4v5+mg2dtZqHl4RDkNUb8jaQsXEoI6VhBeyK7q2nhkO1fWt/GNHIgWlDUwaq+HxFWFGWf01I9yNnSdzOXGhiOUz/YasOF1pdRPf/3QJG0vVsARNAAGedoT42JNyqYr//T6F3949btBDdg3N7Ww7ksXplBJksp+rIttbm3HPHP9hX33r5mjJynkBfHUkiy/2p/PkfeMH/AWguVXLtydySMqpxNPZCn8PW2wt1UiSxInEKxSUNjA93JVHloYO61zP2ePdORJ3mdPJxcMeOOUU1bL1cCbmagWRAU74u9sS5ufIGA9bg32JHefviLWFinNppaxdGDiosjJDoV2r4/0fUknIqsDPzYZNqyIGdK3yuDodothEJ4gP+Mr33HPPGbIdo868CZ4Eetrxwa5Ujl+4QmJOJesXBTE5WNPtxaqppZ3zGeXUNbbR3KqlsLyBrMJaWtt1ONiYsXCSJ64Olpy4UERq3s9zuOQyGTPC3Vgy3YeJYe7DnrKdG+nBwXOFHEsoYuFkL9wcB1fq4GbS8qr49kQOGnsLHG3NOXiuEEszJc+umYCLQ/+rR/fHvXPHEJ9Vzo7jOVdrWQ39RSunqJZ/7kymtqGNeRM8+PXi4CHPJPZEpZRzW5QX357I5cSFK9w5zafX15fVNHM6qZiiikaKKxuxMFMyc5wbU0NdqW9qI/dKHVbmKiIDnbrOCb0k8dnedNq1eh5ZGjps5Q/kMhlPr4rkne+SSMiq4J1vk3hkaSh21n0bkuyc59nZj3atnr9vu0BeST0+rtY8uCQEPzfjZwgWRXkRn1lOQlYFf/8mkdXzA/o1YVuSJFIuVfHF/gwq61owUylIzKnsWm7faW6kBxvvGP7Pqo+rNV4aKy5kV9DQ3D5sn592rY5P9l5EkuCplRFdG/MamlIhZ0qoC8fii0jLq2a8AUquGEq7Vs//257ExfxqQn0dePK+8QP+cuXqaIkMTHbLJ9OsZz5KeGqs+c8HotgTnc/es/m8930KIT72LJ/pR4ivAzKZDJ1ez8kLV9j506Ubqo+7O1nipbEmKbeSb0/kdj0e5GXH+DFO+Lha4+dmi62Rhsig40RevSCAd3emsP1YNptWRgzq/cprmvnxTB4llU3UN7WhVil46K6Om05FTTP/+30KjS1aLhV3BEhqlZxn1kQOS30aD2cr5kS4czKxmNPJJf3eNLi/TicX8/n+dHR6iXULA7l9irfRV5jMn+jJ7jP57I/Jp6q+BUszJRODNNcNjVfWtvDjmTxOJxej03cEFJ2rO3Ov1LH5YOZ17zl7vDu/viMYvV5i1+lLZBTWMDHImSnDXI+nc7n8uztTSMqp5IX3o1k02Yt5Ez1xtjO/IXOSdbmGo/FFFJU3UlbThL2VGY/fHY6/uy1fHckir6SeGeGuPLw01GQyA3KZjMdWhPOv3WmkXqoi9VIVt0d5s25RYK+frYqaZo5dKCL2YhkVtS3IZTKWzfRj+Uw/GlvaySuup6VNi1wuw9pCRejV69twk8lkzBrvzraj2Rw+X8g9c/o+IXkwvj91ieLKJhZN9hqyoKnTrHHuHIsv4lBsockETpIk8cX+dC7mVzMxyHnQGVszlQInO/PRl3ES+kalVHDPnDFMD3dj6+FMUnKrSC+4gIezFZIkUdPQkWEyUyu4d44//u62WJgpcbYz7/q229TSzqmkYuqa2pkR7oqniRXYnDRWw1gvOxKyKkjPrybEt/8Xjnatjr1nC9h7Np92rR65TIa1hZKy6mb+ujWBJ+4Zx7cnc2ls0bLxzmDC/RwpLGvAS2M16OrR/XH37DGcTS3l+59ymRbmOqj9zTqHYj2cra67yUiSxO7ofHZeLfj427vHmcw4v5W5ituivNgTnc/h8x3VxPdE5/Or28cyb4IHx+KL2H48m7Z2PW6Oliyf5UeYrwO2VmpqG9uITikhMTx2hbQAABP0SURBVLsCRztz/N1sOZNawqnkYgrK6qltaKO2sa2jCOTiYKPceFVKBU/eN55TycX8eDqPfTEF7IspwEylwMPZEg9nKzycrUjPryE5tyPLYqZS4GJvSVF5A29siWfmODdOXLiCl8aajXcOrkr/UHCwMePf108k9VIVWw9ncuh8IX7uNsy4WmX8l6JTS/jyQAYtbTrM1QpmhLuyeIpPV7Bsb23GhKChXSzQH3MjPTgYW8jes/lMD3cb0ix4a7uOg7GF7I8pQGNvzqp5Qz+fa4yHLaG+DqRcqiLnSq1JrKg7cK6Q0ykl+Lvb8PiKcIOsTHVzsiQlt4qmlnYszY1TeLcnMmmY9swYjiEkU1xd8Eu5V+rYE51HYnYlFmYK7KzNGOttz92z/Po8LNATY/b/UnEd//fz8zjYmPFvd4/rcRPH7mh1HcMa6QU12FmpWbMwkGlhrshlMmLTy/hwV2pX5mL2eHceuiuk25vqcPX/2xM57InOZ+kMX1YO8EJZWtXEB7tSySupZ/JYDQ8sCcHaQkVrm47tx7M5Gl+Ek605f1gb2adq5cN57CVJorKuhaYWLcWVTWw5lElDczsu9haU1TRjZa5k7cIgZo5zu+lQTVu7js/2pXM2rRQzlYLbp3hz51Tvfl8oh6L/7Vodp5KKybxcS1F5A8WVTV2fQ4AQH3vumTOGIC87ZDIZSTkVfLArleZWHRZmCl5+YAquQzx03Wmg/S+rbuKVT2ORy2T8+eEpONv9PD+yqUXL1sOZnEkpwUytYP2iIKaHuaI2oc2Qofu+n08v473vUwj1deC5dROGJAg/m1rCN8eyqWlow9pCxVMrI/p13RuMjIJq3tyaQESAE689Mduo973E7Are3pGEnbWa/3xgisFW3H59JIuDsYX8x8bJve43OmJW1QkDN8bDlk0rI0y2sNdA+bvbsnpBADuO5/DGlnjunevPbVHeN83ISJLEFwcySC+oYUKgM48uD7tuXHxKiAsWZgre/S4FNydLNiwe+ObEhnLXdF9i0krZezafCUHO/dpEWJIkTiUVs/VwFq3tOpztzInLLCf7Si1j3G1JvVRFm1aPl8aK368x/NYUhiCTyTpusHbg42pDgKct7+5MIb+knogAJx5cEoJ9H78EqFUKHl0expwIdzw11kYddv4llVLBgkleLJjkBXQE+GXVzVypaMTOWt21zUeniABnXtoYxbcnclkw0XPYgqbBcHGwZP2iID7bl87Huy/y9OoIzNVKErMr+OJqyQQ/Nxsevzt80Fs1DafJwRoiApxIyqnkbGopM8Z1n00bCK1Oz9dHsjgaX4RaKWfZTD+WTPMZssUS3Qn2cSDY256knEoyC6pxsDDOrbyovIEPdqWiVMrZtNKwVeG7VtZVNA1qo/ahIDJOo4gp9D+joJoPdqVS09CGWiknzM+RWePduy3J0Nqu4+C5Anb+dAlfNxtevH9Sj4FWY0s7aqWi1xTwcPY/Pb+av36VgKujJa8+NKXbdre26fjiQDpOduYsmuSFUinn833pnM8ox8JMyQN3BhMV7MKBcwV8dzIXnV7C3cmSycEu3DnVp1/Vz4197Nu1eq5UNOLjam2UwNbY/Te2wfRfkiT++V0yCVkdtfkszJQ0t2pRyGUsn+k3bCUTBqqnvlfUNPPSv2JQqxS8+tCUPlWt7k5ru44DMQWU1zRjYa4kr7ie7KJavDRWPHnf+GGdKnCti/nVvPVVApNDXHji7vBhP+/qm9r4ry/OU17Twm/vDjfops3Qse/gG1viWTLdh9Xzey5/IjJOwogX7OPAqw9P5eC5Qi5kV3T9mxbmyobFY6moaeHQ+UIu5ld31TpxsDHjqZURvWanrExsjDvE14Hbo7w5dL6Qrw5nsWHx2BtuLtuOZROdWgrA/pgCLM2U1DW1E+Rlx6PLw7qGRZZM92VamCttWv2Qr0ocKiql3KQ2exb6TiaT8dBdoTifzqO4spHKuhb83GxYf1uQSW5Y3lfO9hasXRjIlwczeXdnMi/eP6nfS+OzL9fy8Z40Squbr3s8KljDw0tDMVcb7xYa4mNPsLc9cellvKPV85tloQaZC6TV6W8aKLe263hvZwrlNS0sm+ln8KAJrs84mRoROAkGZ2upZtX8AFbND6CovIHP9qcTk1ZKYnYFLVcruNtZqwn1dcDV0ZLFU7xNckjqZlbOG0PKpUpOJl4hLa+K5TP9mDHODaVCTlJOBccTivDUWLFwoicHYgupqGnh3jn+LJ1xY3HSgX4bFgRDsLZQsf42w22MbSrmT/Qk50odZ1JK2HIoiweXhFz3fF1TGzX1rbRrOwqTtmv1tLbryC9tIKOgmuzLtQAsnuLNgkmetLR2XL+MlVm9lkwm49/uGccn+9K5kF3Bnz+L5alVkQPerUKSJPafK+C7E7lMDtawdmFQt9fluqY23t6RRO6VOiaP1XDPnKHZN8/WUo21hYriKtMLnMRQ3Shiqv3X6fXsic5n95k8gn0cWDzFm3B/R4MXxjNG/+ua2th9Jo/jCVfQ6vTYW6uZN8GTYwlFNLW0858PTMHbxRq9XqK5TTtkmTNTPfbDRfT/1u3/zfre1q7j9S/jKChr4L65Y1g6wxeZTMbZ1BI+3nPxugn/15LJOuZurlkQOGQ7EhiCo5M1H32XyJ7ofNydOqYO9CWzptXpKShtwMHGDFsrFVsPZ3EsvgiFXIZOL2GuVnDvnDEsnOzZtTK0uLKRf+xIoqy6menhrjx8V+iQDuO+vjmO3KI63n9uXo9/RwzVCaOSQi5nxSx/lnWTaRnpbC3V/Oq2sSyZ5su+mHxOJxfzw6lLAKxeENC1LYpcLjO54UZBuBWoVQp+d9943tgSz3cncymrbsbH1ZqvDmdhfrUoq1opR3X1n1Ihx9XRkrFe9v2aZ2gsCrmMlfMCaG7VcjS+iO9PXep1TlBTi5YTF4o4dL6QmoY2AJQKGVqdhJfGiqdXRZJyqZIdx3P46kgWp5KLWTU/gOScSo4lFKHTSyyd4ct9c8cMedbNW2NN9uVa8kvrTWqCuOl/KoRRY7QFTddysDHjV7eN5d45Y4hOLaGhqZ07pvReWVsQhOGhsbfgpY1RvP1tEqeSiyEZbC1V/GHthH5VTjdlq+YHkJxbyf6YAiYFaQjwvD7QqKpr4WBsIScTr9DSpsNMrWB2hDstrVqKq5rwdLZi4x0hWJormTfBk4ljNew4nsOppGL+55uOTdQ19uasnh845JtEdwr1deBYQkeVdBE4CcIoZWGmZOHV5euCIJgOBxszXrx/Ep/vT6ewrIHf3Tt+xC7G6I65WsnDd4Xy5tYE3vs+hQBPO8xUcuqb2imvaaa0qhm9JGFnrWbZTD/mT/DodTK5raWah+8KZU6EO/vOFhDm58D8iZ7DusIyxNcBGXDx6hxSUyECJ0EQBOGWYKZS8NjycGM3Y8gE+ziwYpYfu07ncT69rOtxCzMl/h42zIv0ZFqYa78qewd52RO0yjhzvKwtVPi42ZBdVEvr1SyZKRCBkyAIgiCMEvfMGcOS6b60tOlobdNiZaEa0fMrw/wcyC+pJ+tyDeNMZG8+061qJgiCIAhCv5mpFNhZqXFxsBzRQRNAmF/HPp2peVVGbsnPROAkCIIgCIJJCvK0Q6mQk5ZXbeymdBGBkyAIgiAIJkmtUjDW247CsgbqGtuM3RxggIGTVqvlhRdeYP369axZs4bz588bul2CIAiCIAhdw3UX800j6zSgwOmHH37AwsKCr776itdee4033njD0O0SBEEQBEEgzM8BgJi0UoZps5NeDWhV3YoVK1i2bBkAjo6O1NTUGLRRgiAIgiAIAD6uNgR62XEhu4LTySXMjnA3ansGlHFSqVSYmXVs/vf55593BVGCIAiCIAiGJJfJeGxZGBZmCrYcyqTEyBv/3nST3+3bt7N9+/brHtu0aRNz5sxhy5YtHD16lPfffx+Vqvclj1qtDmUfNh4UBEEQBEH4pZMJl3lrcxyBXnb87am5KIaxivm1bho49WT79u3s37+f9957ryv71Jvh2Ln7Vt4hHET/b+X+38p9B9H/W7n/t3Lf4dbr/6d7L3IquZi/PTELBxuzIe2/RtP9PoYDmuNUWFjI119/zebNm/sUNAmCIAiCIAzWA0tCuGfOGBxsjBd7DChw2r59OzU1NTz22GNdj3388ceo1WqDNUwQBEEQBOFacpnMqEETDGKoThAEQRAE4VYjKocLgiAIgiD0kQicBEEQBEEQ+kgEToIgCIIgCH0kAidBEARBEIQ+EoGTIAiCIAhCH4nASRAEQRAEoY9E4CQIgiAIgtBHAyqAaYpef/11EhMTkclk/OlPfyIiIsLYTRpyf/3rX4mLi0Or1fL4449z9OhRUlNTsbe3B+CRRx5h/vz5xm3kEIiJieHpp58mKCgIgLFjx/Kb3/yG559/Hp1Oh0aj4a233hq1BVm3b9/Orl27un5OSUlh3LhxNDU1YWlpCcALL7zAuHHjjNXEIZGZmckTTzzBgw8+yIYNGyguLu72mO/atYvPP/8cuVzOmjVrWL16tbGbbhDd9f+Pf/wjWq0WpVLJW2+9hUajITw8nEmTJnX93meffYZCMfL3Cf1l/1988cVur3e3yvF/6qmnqK6uBqCmpoYJEybw+OOPs3z58q5z38HBgbffftuYzTaIX97rxo8fb9xzXxoFYmJipMcee0ySJEnKzs6W1qxZY+QWDb3o6GjpN7/5jSRJklRVVSXNmzdPeuGFF6SjR48auWVD7+zZs9KmTZuue+zFF1+U9u7dK0mSJP33f/+3tGXLFmM0bdjFxMRIr776qrRhwwYpIyPD2M0ZMo2NjdKGDRukl156Sfryyy8lSer+mDc2NkqLFy+W6urqpObmZmnp0qVSdXW1MZtuEN31//nnn5f27NkjSZIkbd68WXrzzTclSZKkqVOnGq2dQ6W7/nd3vbuVjv+1XnzxRSkxMVEqLCyU7r33XiO0cOh0d68z9rk/KobqoqOjue222wAICAigtraWhoYGI7dqaE2ZMoV//OMfANja2tLc3IxOpzNyq4wnJiaGRYsWAbBgwQKio6ON3KLh8e677/LEE08YuxlDTq1W89FHH+Hi4tL1WHfHPDExkfHjx2NjY4O5uTmTJk0iPj7eWM02mO76/8orr3DHHXcAHZmFmpoaYzVvyHXX/+7cSse/U25uLvX19aN2lKW7e52xz/1REThVVFTg4ODQ9bOjoyPl5eVGbNHQUygUXcMyO3bsYO7cuSgUCjZv3szGjRv5/e9/T1VVlZFbOXSys7P57W9/y/r16zl9+jTNzc1dQ3NOTk6j/vgDJCUl4e7ujkajAeDtt9/m/vvv5+WXX6alpcXIrTMspVKJubn5dY91d8wrKipwdHTses1ouRZ0139LS0sUCgU6nY6tW7eyfPlyANra2nj22WdZt24dn376qTGaa3Dd9R+44Xp3Kx3/Tl988QUbNmzo+rmiooKnnnqKdevWXTekP1J1d68z9rk/auY4XUu6hbbfO3z4MDt27OCTTz4hJSUFe3t7QkND+fDDD/nnP//Jyy+/bOwmGpyfnx9PPvkkS5YsobCwkI0bN16XbbtVjv+OHTu49957Adi4cSPBwcH4+PjwyiuvsGXLFh555BEjt3D49HTMR/tnQafT8fzzzzN9+nRmzJgBwPPPP8+KFSuQyWRs2LCBqKgoxo8fb+SWGt7dd999w/Vu4sSJ171mtB//trY24uLiePXVVwGwt7fn6aefZsWKFdTX17N69WqmT59+00zdSHDtvW7x4sVdjxvj3B8VGScXFxcqKiq6fi4rK+v6Fj6a/fTTT7z//vt89NFH2NjYMGPGDEJDQwFYuHAhmZmZRm7h0HB1deWuu+5CJpPh4+ODs7MztbW1XVmW0tLSUXGhuJmYmJiuG8Xtt9+Oj48PMLqP/bUsLS1vOObdXQtG82fhj3/8I76+vjz55JNdj61fvx4rKyssLS2ZPn36qP0sdHe9u9WOf2xs7HVDdNbW1qxcuRKVSoWjoyPjxo0jNzfXiC00jF/e64x97o+KwGnWrFkcOHAAgNTUVFxcXLC2tjZyq4ZWfX09f/3rX/nggw+6VpVs2rSJwsJCoOOm2rnqbLTZtWsXH3/8MQDl5eVUVlZy3333dX0GDh48yJw5c4zZxCFXWlqKlZUVarUaSZJ48MEHqaurA0b3sb/WzJkzbzjmkZGRJCcnU1dXR2NjI/Hx8URFRRm5pUNj165dqFQqnnrqqa7HcnNzefbZZ5EkCa1WS3x8/Kj9LHR3vbuVjj9AcnIyISEhXT+fPXuWv/zlLwA0NTWRnp6Ov7+/sZpnEN3d64x97o+KobpJkyYRHh7OunXrkMlkvPLKK8Zu0pDbu3cv1dXVPPPMM12P3XfffTzzzDNYWFhgaWnZdQKNNgsXLuS5557jyJEjtLe38+qrrxIaGsoLL7zAtm3b8PDw4J577jF2M4dUeXl513i+TCZjzZo1PPjgg1hYWODq6sqmTZuM3ELDSklJ4c0336SoqAilUsmBAwf429/+xosvvnjdMVepVDz77LM88sgjyGQyfve732FjY2Ps5g9ad/2vrKzEzMyMX//610DHwphXX30VNzc3Vq1ahVwuZ+HChaNi0nB3/d+wYcMN1ztzc/Nb5vi/8847lJeXd2WaAaKiovj+++9Zu3YtOp2Oxx57DFdXVyO2fPC6u9e98cYbvPTSS0Y792XSaB8EFgRBEARBMJBRMVQnCIIgCIIwHETgJAiCIAiC0EcicBIEQRAEQegjETgJgiAIgiD0kQicBEEQBEEQ+kgEToIgCIIgCH0kAidBEARBEIQ++v+BsR1eoZo4PgAAAABJRU5ErkJggg==;" vertex="1" parent="1">
          <mxGeometry x="97.5" y="250" width="590" height="85" as="geometry" />
        </mxCell>
        <mxCell id="JDvXGBGlwjeCY7y2N17N-16" value="" style="shape=image;verticalLabelPosition=bottom;labelBackgroundColor=#ffffff;verticalAlign=top;aspect=fixed;imageAspect=0;image=data:image/png,iVBORw0KGgoAAAANSUhEUgAAAlwAAABVCAYAAACcjDpRAAAABHNCSVQICAgIfAhkiAAAAAlwSFlzAAALEgAACxIB0t1+/AAAADh0RVh0U29mdHdhcmUAbWF0cGxvdGxpYiB2ZXJzaW9uMy4yLjAsIGh0dHA6Ly9tYXRwbG90bGliLm9yZy8GearUAAAgAElEQVR4nO3deXyU1b348c/MZLJNErJOErKTnSQQ9n2VXVFBWVSg9rrUulutWtsK995q1drfbbW9t2pd6lYQRERBAVmUJRtJICvZ933fk9me3x+BCBggJDOZCTnv16uvmslM5nt4Zp7nPN9zzvfIJEmSEARBEARBEExGbu4ABEEQBEEQbnSiwyUIgiAIgmBiosMlCIIgCIJgYqLDJQiCIAiCYGKiwyUIgiAIgmBiVuYO4Frq6tpM/h4uLvY0NXWa/H0slWj/6G3/aG47iPaP5vaP5raDaL8p2+/h4djv4yLDBVhZKcwdglmJ9o/e9o/mtoNo/2hu/2huO4j2m6P9Fp/hEgTB/LQ6A/GZ1XyXXI6NtYJ7V0Qw1l1l7rAEQRBGDNHhEgThqvLLW/j7F+m0dGiQyUCSYNv7SaydP45l0/2Qy2TmDlEQhBuI3mCgtUOLo70SK8WNMxAnOlyCIFxRe5eW//syg7ZOLSum+7Nkqi9FVW18eOAcnx3NxyBJrJoZYO4wBUEY4SRJ4nByOd8mltLU1oMkgZuTLQ+viSbI28nc4RmF6HCZUEVdO2W17TiqrHF1tMHbTQzBjGSSJLEvroRTGdW4j7FlrLuKeRPH4nODDq1JksT7+7NpauthzfxxrJ4dCICrky0hvmP4/T8T+PpUMXNivBmjsjZvsMKAtLT3kF7YSEe3Fo1Wz8q5weIiIJhde5eW9/dnk5pXj52NFSE+Y7C3sSKtoIE/fpzMxptCWTTJB9kIz6aL75qJnEyv4oNvzqE3/LhV5S2zA1k7f5wZozKdbo2OmsYu6pq7cFJZE+bnbO6QjMogSWz/Lo/vksuxUsipbuwko6iRhKwatv3H9Buyw3HsTCWpefVE+Dtz82VZrDEqa26bG8Qnh3L58nghW1ZEmClKYaDqW7p4+aNkmts1fY8dPVPJc3dNwtPV3oyRCaNZQ0s3r36aQn1LN5EBLjywejzODjYAZBY18tbeTD4+mIuVQs78iWPNHO3QKLZt27bN3EFcTWen5tpPGiKVysZo7yNJEnuOF7H9SD521lbcPj+IUF9nGlu7OZNXj9rFDj+1g1Hey1iG2v7s4kb+64PTHE4pJ+lcLSfSq3CyV46YNPC12i9JEv/65hzHzlTi46Fi673TWD07CGulnLP5DZTVtjEzymtE3n1dqe0tHRr+svMsttYKnt4Qi72t8ifPCfBy4PS5WjKLG5kS5oHTCOx0GvO7b8nau7S89mkq9S3dLJ/ux8oZAfi4qziTV8+ZvDqmhKmxtx1d99+j5dhfiSW0v7VDw2v/TqWuuYubZwXwH6sisbP58XOodrFjWoSaH9KqyCltZkHsWJRGWl1oyvarVDb9Pj7o2Wgvv/wyGzZsYOPGjaSlpV3yu/j4eNavX8/GjRv5zW9+g8FgICEhgZkzZ7J582Y2b97Mf//3fw/2rS3a/vgSvjpVjIezLb/dMoWVMwK4bW4QT66biJ2NFe/vP0dBZYu5wzSa2qZO/ndPBjq9gUWTfVi3KBgneyUfH8wlPqva3OEZRXxWDcfTqgjwcuS5uyfj7GCDva0Vt8wOZEKwG1nFTeyPKzF3mEb1TXwJGq2BtfPH4epk2+9zFHI5GxaHIEmw42j+MEdoOl09Ospr28kpbUKrM5g7nCHTaPX8dedZqhs7WT7djw2LQ5kc5sHqOUFsWRVJQ2sPr+84Q49Gb+5QhVGks1vH//vsDDWNnayc4c8dC4KRy3960+rubMctswJo79Ky92Tx8AdqRIPqcCUmJlJSUsKOHTt46aWXeOmlly75/Ysvvsgbb7zB9u3b6ejo4Pjx4wBMnz6djz76iI8++ojf//73Q4/ewpRUt7HneBHODta8sHnqJXO2vN1UPHRbFHqDgf/9IgOtbuSf3Lp6dPx1Vxod3Tq2LA9n87JwVs4I4FcbYrG1UfDu19lkFjWaO8wh6dHo2XWsACuFnEfWRONg92OmRy6Tcf8t43FxtOGL44WU17abMVLjaWrr4WhqBW5ONsy7Rgo/ZpwbEf7OZBY1UlnfMUwRmoZOb+DNz9N45H9+4MX3Enn101Re355KV4/O3KENyYGkMgoqW5kZ5cm6RSGX/G7dTWHcNMWXmsZOjqZWmClCYbTRaPW8sesspTXtzJ84ljsXBl/1+cum+aN2tuNwcvmIPs8MqsMVFxfHkiVLAAgODqalpYX29h8vNrt378bLywsAV1dXmpqajBCqZdPq9Pzz6yz0Bon/WBXZ75yemHFuLJ/mT1NbD3GZNWaI0rg++OYcVQ2dLJ3qd8mF2d/TkSfunIgkwb8P52GQpKv8Fct2YcXMihl+uI+x+8nvHeyUbFoahiTBodNlZojQ+PbHl6DVGVg9J+iaS7JlMhmLJvsCcDytcjjCMwmDJPHuvt5Ju/5qBxZO8iFmnBt55S28vj2V9i6tuUMclNZODd/El+Bgp2TzsvB+S3jcPi8IOxsF3ySUiCyXYHI6vYH/3ZNBbnkLUyPUbFkefs3pGEqr3my63iCx48jIzaYPatC+vr6eqKiovp9dXV2pq6vDwaF3btKF/6+treXkyZM88cQT5Obmkp+fz0MPPURLSwuPPvooc+bMueZ7ubjYD0tF2CuV4h+o977KpKK+g1WzA1k0I/CKz9u4IoJDp8s4nFLO2pvCLGbez/W2P7e0iaRztYT7u/DI+lgUl12YPTwcWXCulqPJ5RTXdjAj2tuY4Rpdf+2vb+7im4RSXBxt2HJL9CVzCy62xM2BXd8XkpBVwy/umMgYh/7H7y3VxW2vb+7i+zOVeLrac9ui0AHVwFnqYs/HB3OJy6zhF3fEorQaWXVzPDwceXdvBglZNUQGuvLfD83GRqlAb5B487NUDieV8Zddabz++PwR17Yv9qTTrdHz4O3j8fd16fc5gX6u3DY/hO2HckjKq2fNwpB+n3cjGup5f6Qb7vbrDRL/82kKaQUNTArz4IWfzxjwd2qpuwNHzlSSXtiABhk+HkOfCz3c7TfKLEmpnwxGQ0MDDz30EFu3bsXFxYXAwEAeffRRVq5cSVlZGVu2bOHgwYNYW199ou1w7PXk4eE4pD0bi6pa2XMsH7WLHatnBlzzb02PVBOXWcORhBImBLsN+n2NZTDtf+/LdABumxNIY2P/Kd7FsWM5mlzOvw+cI0itspjO5eWu1P53v85Co9Vzz9JQ2lu7uNqA4YLYsWw/nMcXR3K5eVagyWI1tsvb/snBXHR6A6tm+tN0hePan5njPTl0uozv4oqYGqE2Ragm4eHhyL4f8tnzfQHebvb88rYoWpt/POfctTiEzk4NcZk17D6cw+Lz2byRoLapk/0ni1A72zE11K3fz/iF4z8nSs2XP+Sz63Au08LcsVGO/G1fCitbaWnvwdpagZuTLV6XrcQc6nl/pBvu9uv0Bv75dRaJ2bUE+zjx4C3jaW66vuHBudFeZBY28OWxPNYN8cbAlO036l6KarWa+vr6vp9ra2vx8PDo+7m9vZ0HHniAJ598krlz5wLg6enJqlWrkMlk+Pv74+7uTk3NyB9WMxgkPjyQgwT8bEUENtbXPlEtn+4PwIHEUhNHZxo5pU1kFjcxPtCFiID+75oBfDwciA1xp6CylZzS5mGMcOhqm7uIy6zBx13FnJhrZ+fmxnhjo1RwJKUCvWFkTrRu69RwPK0SNydbZkV5Xddr503s/Tc6nlZlitBMRqPVs/NoAVYKGY/fMeGSOXrQO09vw+JQbJQKvjpZPKKG3L44XoTeILF2wbhrZipVtkqWTPGjtVPLsRE+l8sgSXz+fQF/+PA0b+5O58/bz/DC2/EcTi43d2ijlkar52+700nMriXUdwxPrYsd0LXycpPD3FHZWnEyvRqdfuSdZwfV4ZozZw4HDhwAIDMzE7Va3TeMCPDKK6/ws5/9jPnz5/c9tnfvXt59910A6urqaGhowNPTcyixW4SjqRWUVLcxK8qLyKt0Pi7m7+lIZIAL2SVNlNaMrDssSZLY/UMhAGsGUFPs5lm99Zv2x4+sVXzfxpdgkCRunhUwoK1r7G2tmBPjRVNbD6m59dd8viU6mlKBRmdg2TS/695Ow9fDgXFjncgoaqCxtdtEERrf1yeKaGjtZvFk3yvWonJSWbNsmh8tHRq+Sx4Z8/RqGjtJzKrB39NhwBnHpdP8sFbKOZJSPmLnXWq0et76MpN9cSWone1YvyiE2+cF4aSy5pNDuRw7M7I7kyNRfXMXr36aSlpBA9FBrvxqQ+ygS5AorRTMivKitUNDWkGDkSM1vUF1uCZPnkxUVBQbN27kD3/4A1u3bmX37t0cOnSIrq4u9uzZw65du/pKQOzYsYPFixeTlJTE3XffzcMPP8y2bduuOZxo6Zraevj8+wLsbazYsPj60pvLpvkBjLi7ycziRvLKW4gNcSd47JhrPj/YZwwR/s5kFDVSUTcyVvE1tfVwIr0KtbMd0yIHPjx205Te4aYjKSPvTrpHq+e75HJUtlZ92arrNW+CN5IEpzJGRjmQ9i4tnx3Oxd6mt8TH1Syf7o/K1opv4kvp6Lb8CfTfJpYiATfPChzwXpcOdkqmhaupa+4mr2xkZaSh92bwrb2ZJJ2rJcx3DL/dMoUVM/y5dU4Qv75rEo72Sj78NodTGSMrCzuSpeTWse39JIqqWpkV5cVjd0wY8nD1hQVaP5wdeYt0Bj2H65lnnrnk54iIHytNZ2Rk9Puaf/zjH4N9O4sjSRIfH8yhW6Nny/Lw6y76GDPODSeVNadz6rh7adiI2aDzQr2p2+YGDfg1Cyf5cK60mVOZ1UMedx8OBxJL0eklVs0KQCEf+HHxdlMR5juGnNJmGlu7r1i/yhKdTK+ivUvLLbMDsbUe3GlhWoQnnxzKJTG75podGEvw1cliOrq0bFgc8pOhxMvZ21px86xAPjuaz4HEMoveMaK5vYeT6VWoXeyYEuZx7RdcZO4Eb05mVPPD2SrC/QeWsbcUx9Oq+nZGeGr9pYs3fNxVPLNxEq9+ksInh3KJHufG9f3LCNejtUPD9iN5xGfWoLSS8/OVEcyd4G2Uebx+ageCvJ1IL2wYcefZkXGVt0An06v7vtzzY69/uwG5XMa0CDXtXVqyS0ZG2YyiqlbOlTYTFehCgNfAV3fEhrhjZ6MgPrPG4ocq2jo1HDtTgYujDbOjr28eE8D08Z5IwOlztcYPzkT0BgMHEkuxUshZMmXwk8Ltba2IGedGeV2HxWcze2uNlaN2tR/wRPjFk31Q2Vrxw9lKi54/cuh0GTq9xIrp/v0WkryaMD9n1C52JOfU0tk9cuqP1TR18u/v8rCzseL+W8b3u/LNT+3AbXOD6OrR89UIL6BpqQySxLEzFbzwdjzxmTUEejny+y1TmTdxrFEXTc2f2JtNj8scGdn0C0SHaxAaWrr59+FcbK0V/MeqyAGn7C83I7J3DltC1shYPHBhHtbKy/bVuxZrpYKp4Wqa2nrIsfDO5aHTZWi0BlbM8B9U1nFquBqZDBKyR06HKym7lrrmbuZO8B7y9jzTz3+mEy28/ReymOtvCh3wsnRrpYJZ0b3zR87mW+Y8vc5uHcdSK3BSWTMn5vpvGGQyGfMmeKPRGUg8NzLOS3qDgXe+yqJHq2fz8rCrZjwWTfZB7WzHsdQKKi38pmCkKa9r55WPU/jw2xwMksTdS0L53Zap+JpgK7sp4WoUchnJOXVG/9umJDpc10lvMPDe/my6evTctSQUd+efFsMcqGAfJ9ycbEnJrbP4yvPVjZ2k5NQR4OU44MUBF7uQLTplwXcknd06DidX4GivHPQmqU4qa8YHuFBU1Uptc5eRIzQ+g0Hi67gS5DIZq2b4D/nvxYa4Y62Uk3iutt9yMZbg4izm4ql+1/XaBbE+QO/G3pboaGo5XT16lk71HfSec7OjvZHJ4MQIWXF6KKmcwspWZoz3ZOb4q3cyrRRy7lwYjN4g8a/9WcMU4Y3NYJDYF1fMf76fRH5FC1PCPXjpgZksmep33RnWgXKwUxLh70xxdRsNLSNnkY7ocF0HSZL46EAu2SVNxIa4M3cA5QKuRiaTMT1STbdGT1qBZW+Bc+D8JNxVMwMGlRoO9XPGzcmW0zl19Ggts3PZe7HSsWya35Amdl7I8iRlW36GIC6jisr6DmZFew7p5uECG2sFE4PdqWnspLTGMjMIh06X92Yxp/tfd6fEx11FqO8YMosaqbOwDnW3RseBxDLsbayGVC/MxdGGmHFuFFa2WvzQcG1zF3uOF+Jor+SepWEDes2UcA+CfZw4lVZFYWWriSO8sTW2dvP69lQ+/773GDx+5wQeWRODi6Ppiz9PDu9d0JSSO3KyXKLDdR2+PFHED2cr8fd04IHV440yJn3h4pxgwRfn+pYuTqQNbhLuBXKZjFnRnvRo9KTmWd4XpEer52DS0C9W0HtCV8hlJGRZ9rCaJEl8digXGRi1WOuPw4qW95nuzWKW92YxBzH3EnqL3ILlrZI6mlpBe5eWZdP8rrgrwkBduJm05LpqkiTx0bfn0OgM3HVT6DUXPlwgk8m4Y37v3n3fjLByNZakqKqV//ogiXOlzUwKdee/7ptBbIj7sL3/5FB3ZECy6HDdWAySxNenitl7shj3MbY8tW7ikE9oF/h7OuDlas/Z/Hq6NZY5SXXvyWL0Bonb5gQNKUV8oZhmXIblXYh/OFNJW6eWm6b4DvnY2tsqz08eb6fCgjdaTStooLCyhWmR6p9U4R6KCcGu2ForSMy2vGHFwylDz2JODVejsrXiRFqVxUye79Ho+TahFDsbBUumDr0afmyoOw52SuIyLbfAZFxmNZnFTUSPc2XG+Our6Rju70yInzMpuXXUNJp+N5MbzZn8el79NIW2Li13Lwnl0bUxA+7wGssYBxtCfMeQV9ZMS4dmWN97sESH6xpaOjT85bOz7P6hkDEO1jy9Idaoe+XJZL2rFbU6g0UWcqtu7ORUejVj3VXXfVK7nLebiiBvRzKLGi3qC9LeqWFfXDE2SgVLp13fnJ4rmT6+N91tqcOKBoPE59/3FrA1dgkHpZWCyWEeNLR2k1/RYtS/PRSd3VoOJJTiYKccUhbzwuT5FguaPH/sTAVtnVqWTPHD3nboFz4rhZxZUV60dWo5m29556Xa5i4+OZSLtVLOlmXX3vz4cjKZjLULQ5CAA0kjo5itpTiWWsGbn6eBBI+ujWHJVD+zbds2JcwDCSxy1KQ/g+5wvfzyy2zYsIGNGzeSlpZ2ye9OnTrFnXfeyYYNG/j73/8+oNdYmtYODXtPFvHiuwlkFDUSM86N//z59CtWox6KaecrQVtiKYE9xwsxSBK3zx1aduuCWVFeGCTJolZmfrAvi9ZOLavnBBrtLi02xB1rKzkJFpjlgd7hsPK6dm6a5oevETaBvdysC4skLKgI6reJZXT26Fg503/IWcwF5xdVfG8Bk+c7urXsjy/B1tp4Nwzw43ZNJ9LM38aLaXUG/m9PBl09ejYvCx/03MPZMd64j7HlZHoVrRZ0A2ippPNbJn14IAcHOyXP3j2ZSaHmrWY2+fwUl5QRslpxUGedxMRESkpK2LFjBwUFBbzwwgvs2LGj7/d/+MMfePfdd/H09GTTpk0sX76cxsbGq77G3Hq0eirrO8gtayantJmMokZ0egN2Ngo2LA5h6TS/QZd/uBYfDxWervakFTbQo9EPao8pUyitaSMxu5YAT0emhBvnizV9vCc7juQTl1HdV23fnPLLWzgQX4KPh8qo8dhaWzExxJ2kc7WU1rRfV90yU+vs1rL7h0JsrBVsWTUefY/xK6dH+rvg4mhDYnYtdy8JHfSKOWNp7dRw6HQZTipro2xA7ePhQMhFk+c9jLDgYLA+P1ZAW6eWOxaMM+qwjq+HA0HejqQVNtDU1jMsE6EH4rOj+ZRUtzE3xntA+5xeiUIhZ/l0fz45lMuRlHJun2faYraSJNHWpaW2qYvapk5qGruoa+mipV1DS4eGjm4tOp0Brd6AtZUCOxsFDnbWeLra4eVij7+nI8E+TjjaD/8OLTq9gff3ZxOXWYPaxY5frZ+I2sX4yYfr5e5sR4CnI9klTXR26wa9ZdBwGVR0cXFxLFmyBIDg4GBaWlpob2/HwcGBsrIyxowZg7d37xdhwYIFxMXF0djYeMXXmNPh5HK+Sy6ntrGTi/MQ3m69BRFnR3sZbb7WlchkMqaGe7AvroT0woYB731mSlqdgff2ZQNwx4JxRksZO9lbEx3kytmCBirqO/BxVxnl7w6GTm/gXwfOAfCz5RFGr/Y/PdKTpHO1JGbXWFSHa+/JYtq7ei/Qrk621NUZv8Mll8uYGeXJN/GlnMlv6Mvimsu38aX0aPTcMX/ckLcWuWBh7Fjyy1v44WwldywINsrfvF75FS0cO1OJj7uK5dOHXtbjcnMnjKWoqnc7HGMurBgMSZLYH1/C4eRyfNxV3LNsYKsSr2ZujDd7jhdyOLmc5dOHnvm8XEVdO2mFDZwraSa/ooWunv7n6apsrVDZKnGwU2Ill6PR6enq0VFa00ZR1aUrKdUudgSPHUOI7xiCxzrh6+FgsvIL0LvQ5O9fpJNd0kTwWCceu3MCTmbo9F3JpDB3SmraSC9sGPK0F1Mb1Kervr6eqKiovp9dXV2pq6vDwcGBuro6XF1dL/ldWVkZTU1NV3zN1bi42GNlwrvjtm4dGq2emBB3fNUORAS6Ej3OHQ+X4b1jXTYrqLfDVdzEynnDf/L28Li0Q/DeV5mU1razdLo/i2YEGvW9ls8O4mxBA2cLG4mNvP7ijMZgMEi88VkqFXUdLJ8ZwKxJQ896XG6xsz3v7c/mdG4dv1wXa7Z5DhcrKG/mcHI5nq723L1yPPDTY28sN88L5pv4Uk7n1rHKDJ/pC8pr2ziSUo67sx13Lg3/SbZtsO1fMdeefx/O51RGNfevmTDs23Pp9AY+/ddpAB7bMAlvr2vvbdqfq7V/1bxgdhzJ50R6NZtviUZhwgv71ej0Bv5311kOJZbi7mzH7++fiY8RhsJ9fZy5fWEIn3x7jqTceu5YHDrkv2kwSCRlVbP3eCFpF83xG+uuYmKoO97uDni7qxjrpsLLXYWrk80VM8B6vYG65i7Ka9vJK23iXEkTOSWNxGVW91VZt7NREOrnwvggN6LGuRIR4IrtADuO1/rs1zZ18vqO0xRXtTIjyotnNk0Z9NZfprJ4egB7jheRXdbMLQuub+s4U537rsQo/3KDmaMy0Nc0NZl2BcntcwJ54PYY6urafnxQp7v052HgoJShdrYjMbOaispmrI10Fz4QHh6Ol7Q3s7iRL47l4+lix5q5gUb/txinVmFnY8WR06WsmOZrsqHaKzFIEh98c44TaVUEeTvy81uiTHa8J4W6cyqjmvizFYT4DO6CaCyd3Tpe/iAJvaG3CnRLc+dPjr0x2StkBHg6knKuloLihiFXsR8Mg0Hi9Y+T0egMrF8YTPNl55Ohtn/WeE++Sy7nu7hiow27D9RnR/Iprmpl3gRv1I7Wg2rHQNo/O8qTY2cqOXSqkCnhxstUSpJEdWMnrR0a9AYJGeDsaIOro23ftIrWTg2JWTUcT6uirLadAE9HHr9zAtZIQ/7cXmj7rAgPdh/NY/fRPGZEeAwpA1rX3MW7+7LJPb/5d2SAC3MneBNxfoj9J/T6n3wmL6cAAtztCXC3Z8lkHwySRFVDJwUVLb3/q2wlLb++r3Mnl8kI8HIgzM+Z8YGuhPk599umax37hKwaPjyQQ1ePjsWTfbh7SRhtLV0M75Xx2lRWMtycbEjKqqGqumXANz6mPPddqSM3qA6XWq2mvv7HnnttbS0eHh79/q6mpga1Wo1Sqbzia4Tzw4oRavbHl5BR1Ng3GXC45ZY18/beTBRyGQ/eGmWSuxlrpYJpER78cLaKrOJGooPcjP4eV1Je187eE0WcPl81/+kNsajslHS2m6Za8YzxnpzKqCYxq8asHS5Jkvjgm2xqm7tYNTOAmHHD828+O9qLfx/OIyGrxqgTugfqQFIpBZWtTI9Um2SofkHsWL5LLudISvmwdrj2xRXzbWIpXq72rFtk2g3hl07z49iZSg4klhmlw1Xb3MXRlHJSc+sHvBuDTAYzx3uyZUW40c9J9rZKbpriy9enSvjhTOWgP6fHz1by6eE8ejR6JoW6s2b+OJMsSJHLZPi4q/BxV/XtiNHepSW/vIXc8mbyypoprm6jqKqNA4llWCnkhPuNISrIjeggV3w8VFfNtlfUtfPVqWISs2uxUSq4d2UE84y08bQpyGQyYkM8OJxSTl5ZM5GBrtd+kZkM6pM7Z84c3nzzTTZu3EhmZiZqtbpvaNDX15f29nbKy8vx8vLi6NGjvP766zQ1NV3xNUKvqREe7I8vITG7Ztg7XJIkcSSlgu2H85Ak2Lw8jCBvJ5O934JYH344W8WhpPIhd7jaOjUkZteSlF1DS4cGnb43e+riZIO7ky3WSjl6g0Rdc3ffnWeQtyO/2hBrlCX0VxMZ4IKDnZLE7BrWLw4Z9mGnCw4mlXE6p44w3zGsmR80bO87Y7wnO48VcDi5nMVTfFDIh6/9FXXtfPFDEU4qazYtCzfJe/h4OBAZ4EJ2SRMl1W3DMlfvSEo5n39fiKuTDU9viDV5/SNvNxUTgt1IK2igoKKF4EHeOBgMEgeTythzvBCNzoCNtYKp4R54u6lQyGXoDRLN7T00tfWg0epBJkOpkBEzzo0Z4z2NWo7nckun+nEoqZxvEkpYOMlnwPtrQu+5c9f3BXwTX4qdjRUP3DKemVGew9pBcbBTEhvqTmxob+HRHq2e/IoWsooayShqJLO4icziJj47CmMcrIkOdGVSpBdWSDiplLR2aKhu7CK9oJ7M4t79boO8nXhw9XiTrMw3ttgwdw6nlJOaX3/jdbgmT55MVFQUGzduRCaTsXXrVnbv3o2joyNLly5l27ZtPP300wCsWrWKoKAggoKCfvIa4VIBno54u9mTkltPR7cWlVlf5RwAABinSURBVAk6Az1aPa0dGtq7tPRoeidmlsWVEJ9eRXVjJ472Sn55WzQRg9gv8XoEeTsR5juG9MLBT57X6gzsOlbAkZTy3iEJWe+kfCuFHIMkUVDRQn75pXWgIgNcuGmKL7Eh7iadaHqBlULO7GgvDiaVkZpXP+yTx6XzRXu/OF6Ek72SX9wWPaydHieVNXMneHMstYKkc7XX3OvOWEqq2/ifz86g0xvYsjzcpJ2SlTP9yS5p4puEEh66Ldpk71PX3MW/v8vjTH49DnZKnt4Qi9uYK2/UbEzLp/mRVtDAwaQyfjmIDldzew9/251OYWUrDnZKNi8PZ3qk2uyrVy9wtLdm0SQfvk0s5bvTZaycGTCg1+kNBj78NofjaVV4utjxqw2xZl2xeoGNUkFUoCtRga6sWwQt7T3nO16NZBY1cjKjmpNXKNkS4e/M0ml+TAwennOkMYT7OWNno+BMXj133RRqsdm4Qedmn3nmmUt+joiI6PvvadOm9Vvy4fLXCJeSyWTMneDNzqMFJGTVGGX5uiRJFFe3cTK9iqRztbR19r8izUbZe7e58aZQXJ2G5yS+bLo/ueXpHEoq496VEdd+wUXqmrv4vz0ZFFe3oXaxY9EkH2ZedhesNxhobtOg0xuQy2XYKBVmmUe0IHYsB5PKOJZaMawdLp3ewI4j+RxOLsfNyZanN8aaZWn/ihn+/HCmkn1xJUyP9DT5nL3Mokb+9kU6Go2ee5aGmTxbHBXoip/agaRztdyxwLglIno0ejKKGjmTV0fiuVq0OgMR/s5sXh6Ot9vwrfCNCHDBT+3A6Zxaapu7UF9HG2saO/nzjjPUt3QzPVLNPUvDzFLa4FpWzQrgVEYVXxwvYmKIO2OvcROo1en5x5eZpObVE+DpyFPrJ5rl/DIQYxxsmHO+jIZBkiiraaepU0t5dSutnRoc7a3xcrXHT+1g1F0nhouVQk7MODcSs2upqOvAV22Zo2eWtdxAYHaUF58fK+R4WtWQO1wt7T2883UWWedTxE72SqKCXBmjssbBTomttQIbpYLoMDVeTjbXlUY3htgQdzycbYnLrGbtgnEDXmqcX97CX3aepbNHx5xoLzYtC++3dplCLh+2DMDVeLupiPB3JrukiaqGjmG5UKYVNLDjSB5VDZ34eKj41XrzdLYA1M52TB+vJj6zhrT8hr5hj+tlMEi0dGhoauuhR6PDxtoKa6Ucg0FCqzNQVtvOyYwqCipasVLI+OXt0cNSYkUmk7Fyhj9vf5XFwcSyIZcraO/ScjqnljN59WQVN/VtrePqZMOdC4KZMX54h6vgfBtn+vP23iw+PpjDU+smDiiGoqpW/rLzLG2dWm6fF8Tq2YEWm31wsFOyZUUEf9udzrv7snhh85QrZoO7enS8+Xka50qbiQxw4dG1MSYvH2QsvZPqHZlqwknj5hAb4k5idi2peXWiwyUMzBgHGyYEu3Emv56y2nb8BvnByS5p4u29mbR0aIgKdGHJVD+ix7n2ewIx5WqNq5HLZSyd6sen3+VxLKWCW+dee25Rblkz/7PzLFqtgXtXRvRNGrV0Cyf5cK60me/PVLLxpqEvPe9PS4eG0+dqSciqIb+iBZms933vXDDO5HPVrmXVzADiM2vYF1fMxBC3AV90DQaJrOJGTqRXkZpXj1Z39X39ZMD4QBdumxtEqK/z0AMfoKkRaj7/vpDjaZXcMieQMYPIdJTWtPFdcjkJWTV97fT1UBEb6s6kUA8CvByHfUXvxWZEenIyvZqMwkZOplczd8LVi45mFjXyt93paHR6tqwIZ2GszzBFOniTwzyYFeVJXGYN++JKuHXOT89JNU2d/N+eDEpr2pkS5sGDt463mKHR0WxCsBsKuYzknDpW93PcLIHocFmguRO8OZNfz4m0Ku5acv0X58TsGt7am4lcJmPD4hCWTTPfXlfXMneCN1+eKOKbxFJmjPe86gTNnNIm/rIzDZ3ewEO3RVlEgdiBmhzmgZPKmpPpVaydP84oZT90egPnSpvIKmoiu7SJ0po2JKm30xEzzo11C4Mt5k7P18OBSaHupObVcyy1gkUDyN5mFDXw6aE8qs9vLuzpYoe/pyMujjbYWivQ6Az0aPUoZDKUVnLGqKyZGqEetiHxi1kp5Kya6c9HB3P5+EAOD6+JHvB3rq1Tw86jBZxIrwJ6M4ILJ/kwOdzjuobuTE0mk3Hvigh+924C2w/nERXkesWsaXxWNe9+nY1MJuPh22OGvWTGUNy9NIyskib2HC+irqmLu5aEYm+rRJIkjp2pZMeRPDRaAwtix7J5WfiImed0o7O37R3BSStooKapE08LqIR/OdHhskATgt1wtFcSl1nNukXB17WyLaOogXe+ysLWWsGT6yYO613+YNhaW3HPsjDe3pvFP77M5IXNU/od2kzNq+MfX2ZiMEg8dFv0iDqBQ+8Fed4Eb/bFlXAqo5qFkwZ3ty9J0vlMWQXphQ109egBUMhlhPo6MyXMg6kRaovZhuVidy0JJa+8hU+/y2Osu4pw//4XZtS3dLHjcD7JuXXIZL3VwBfEjmXcWCeLvXGA3pW3CVk1JOfWEZ9Vw6yoqy8QkCSJUxnVbD+cR0e3Dj+1A2vnjyMm2M2smayrcRtjy/pFIXx0IIe39mby0G1ROF80b7Jbo+PzY4UcTinHzsaKx++IueJxtlQqWyW/3jiJd77O4mRGNRnFjTirbKhv6aKjW4fK1oqfr4y0+Krmo9HUcDVpBQ2cPldr9p0R+qPYtm3bNnMHcTWdnabfVFSlshmW9xkouVxGW4eWrJImHO2VjBs7sFVBhZWt/GVnGhLw1LqJhPkN7ERn7vb7ejjQ0NJNemEDGq2e6MtqRB1Pq+Sdr7JRKGQ8unYCkwY5B+hKhqv93m4qvj9TSW5ZM/Njx2J9HcMQkiRxJr+ef36dxb64EirqO3B2sGF2jBdr5o1j0/LeIZtgnzHXNZdkOI+9va2ScWOdOJVRTWpePVMj1JesxNXq9OyLK+GtLzMpr+sgxHcMj98xgYWTfHB1sjVJZ8uY7ZfJZIT5u3D8bBUZhY3Musq2YK2dGv75dTb740uQy2WsWxjCz1dF4O129RpJxjaY9gd4OVJW205mUSMn0qpwsFPS2qkhq6iRd77KIrO4EW83e55aN3HA5y5zuFrbHe2tmRvjjZVCRkZRE+1dWsY42BAT5MqjaycQ4mu57Rooc5/3TcHVyZaDSWW0d+uuOYRtyvarVP3f8MqkwZSJH0bDMbfIXHOYrqa1U8Nv3opDIZfzyi9mXnMOTmV9B698kkJHt5ZH1sRc18osS2h/j0bPf36QRHVjJ1PCPZg3wRudXuK702WcK23GwU7JE+smEGyCE/hwtv+b+BJ2Hitg0WQfNg+wNlRTWw8fH8whNa8eGTApzIMVM/wJNkLGxxzH/khKOR8fzEUhlxEb4k5koAsFFS1kFDXS1qnFSWXN+kXBzIryMnnnwxTtP5ZawYcHcvD3dOCB1VGXlDzRGwycSOtdCdfaoSHMz5n7b47E3UxDh4Ntv0GS+D61gs+OFdCj0fc9LpP1rkq9fW6Qxc9rGmjbdXoDCrnMorOrg2EJ531T+H+fnSGjsJFXHpp11SH5EVNpXqvV8vzzz1NZWYlCoeCPf/wjfn6XVufdv38/7733HnK5nFmzZvHUU0+xe/du/vrXv+Lv37vJ6uzZs/nlL385mBBueE721tw8K5BdxwrYF1dy1WrSja3d/L/PztDepeXelRFmq1I/FDbWCh5ZE81bezNJzqkjOaeu73dRgS7cvTRsWJfBm8rSaX6cSK/iWEoF8yZ4E+h15eKykiRxIr2K7Yfz6erREe7XWw7gWsvVLd2iST7IZTIOp5STnFtHcm7vsR6jsmbFdH9WzwkcMSu++rMgdiyFla2cSK/iP99PZMWMAFydbOjo0nIivZqaxk6UVnLWL+qdXzkS5wDJZTIWTfYlJtiN789UYq1U4OZkQ5C30w3xPb2YuYoVC4MzNVxNRmEjyTm1rJwxsHpqw2VQGa4vvviCtLQ0tm7dyokTJ9i1axd/+ctf+n7f1dXFzTffzN69e1GpVKxfv54//vGPpKWlkZeXx3PPPTfg9xqtGS7oHWJ54e14Wjq0vPzAjH7vgls7NLz6aQpVDZ3cuTCYVQMs2HcxS2r/hbphp84X5VsYO9Yom9RezXC3P6u4kde3n8Hf04FfbYjttxxGfUsX//o2h8yiRmysFaxfFMKC2LFGn9tjzmMvSRKlNe0UVbUybqwTfmqHYc8imLL9qbl1fHgwh5b2H4ctFHIZ8yaOZfXsQIuYZ2dJ3/3hNprbDjdu+9u7tDz5xgkCvBz4/c+mXfF5IybDFRcXx+233w70ZqleeOGFS35vZ2fH3r17+7bucXZ2prm5eTBvNaoprRTcsSCYt7/K4p9fZ/HI2phLCgaW1bbzxq40Glq7WTbNj5Uz/M0YrXHIZDKCvJ1Muq2QuY0PdGXeBG+Op1Xxn+8n8fDt0X3bpTS39/BtQinHUivQ6AxEj3PlZ8sjLKKemLHJztcDGo7tcMxhUpgH4f7OpOTWo1DIsLexwtfD4YY8loJgKRzslEQGupBZ1GhxqxUH1eGqr6/H1bV3vyK5XI5MJkOj0WBt/WNn4EJnKycnh4qKCiZOnEhpaSmJiYncd9996HQ6nnvuOcaPH3/V93JxscdqGOYCXKlHam43z3cgo6SJU2lV/OGjZJ6+ewo21gpySpr44OtMujV67lkRwYYlYUPKDlhq+4fLcLf/mc3TCDqax8ffZPPqpyl4u6sAGdUNHWh1BtzH2LJ5VSSLppi+pIc49qZtf4Cf5e7tBqP7+I/mtsON2/4Vs4PILGrkdG49994SdcXnDXf7r9nh2rlzJzt37rzksbNnz17y85VGJYuLi3nmmWf485//jFKpZOLEibi6urJw4UJSU1N57rnn+Oqrr676/k1NndcKccgsPbX6Hysj8Bxjy57jRTz/9xN9j1sr5Tx8vpp2fX37oP++pbff1MzV/oUTvFE72fDJoVya23qQJPBwtmPpVF9mR3ujtJIP6bgOhDj2ov2jtf2jue1wY7c/zNsRBzslB+JLWDbFt99SQxY5pLhu3TrWrVt3yWPPP/88dXV1REREoNVqkSTpkuwWQHV1NY888givvfYakZGRAAQHBxMcHAzApEmTaGxsRK/Xo1BY9moWc5PLZKyeE0SQtxPfn63EWWWDl5s90eNcLSpdKly/8YGuvPTATHOHIQiCcMNQWsmZO8GbbxNKSc6tZeb4q9fEGy6DWn4xZ84cvv32WwCOHj3KjBkzfvKc3/72t2zbto2oqB/Tee+88w5ff/01ALm5ubi6uorO1nWIHufGI2tiuGdZGDdN8RWdLUEQBEHox4LY3m3fjqVWmjmSHw1qDteqVas4deoUd911F9bW1rzyyisAvP3220ybNg1nZ2dOnz7NG2+80feae++9l9WrV/PrX/+a7du3o9PpeOmll4zTCkEQBEEQhPM8XewZH+hCVnETlfUdFlFOZ1Adrgu1ty734IMP9v335fO8Lvjoo48G85aCIAiCIAgDtjDWh6ziJg4nl7N5+cAKTZuSqOgmCIIgCMINJzbUHbWzHT+craSyvsPc4YgOlyAIgiAINx4rhZwNi0PQGyS2H8kzdziiwyUIgiAIwo0pNtSd8YEuZBQ2klZQb9ZYRIdLEARBEIQbkkwmY+NNochk8O/D+ej0BrPFIjpcgiAIgiDcsHw9HFgyxY+6pi7aOrVmi2NQqxQFQRAEQRBGig03hbBihr9ZN40XGS5BEARBEG5ocpnMrJ0tAJl0pY0QBUEQBEEQBKMQGS5BEARBEAQTEx0uQRAEQRAEExMdLkEQBEEQBBMTHS5BEARBEAQTEx0uQRAEQRAEExMdLkEQBEEQBBMTHS5BEARBEAQTG/WV5l9++WXOnj2LTCbjhRdeYMKECeYOyeRee+01kpOT0el0/OIXv+DIkSNkZmbi7OwMwH333cfChQvNG6QJJCQk8MQTTxAaGgpAWFgY999/P88++yx6vR4PDw/+9Kc/YW1tbeZITWPnzp3s3bu37+eMjAyio6Pp7OzE3t4egOeee47o6GhzhWgSubm5PPzww9x7771s2rSJqqqqfo/53r17+de//oVcLmf9+vWsW7fO3KEbRX/t/81vfoNOp8PKyoo//elPeHh4EBUVxeTJk/te98EHH6BQKMwYuXFc3v7nn3++3/PdaDn+jz/+OE1NTQA0NzcTGxvLL37xC1avXt333XdxceGNN94wZ9hGcfm1LiYmxrzffWkUS0hIkB588EFJkiQpPz9fWr9+vZkjMr24uDjp/vvvlyRJkhobG6UFCxZIzz33nHTkyBEzR2Z68fHx0mOPPXbJY88//7y0f/9+SZIk6c9//rP0ySefmCO0YZeQkCBt27ZN2rRpk5STk2PucEymo6ND2rRpk/S73/1O+uijjyRJ6v+Yd3R0SMuWLZNaW1ulrq4u6eabb5aamprMGbpR9Nf+Z599Vtq3b58kSZL08ccfS6+++qokSZI0ffp0s8VpKv21v7/z3Wg6/hd7/vnnpbNnz0plZWXSmjVrzBCh6fR3rTP3d39UDynGxcWxZMkSAIKDg2lpaaG9vd3MUZnWtGnT+Otf/wqAk5MTXV1d6PV6M0dlPgkJCdx0000ALFq0iLi4ODNHNDz+/ve/8/DDD5s7DJOztrbmnXfeQa1W9z3W3zE/e/YsMTExODo6Ymtry+TJk0lJSTFX2EbTX/u3bt3K8uXLgd5MRnNzs7nCM7n+2t+f0XT8LygsLKStre2GHdXp71pn7u/+qO5w1dfX4+Li0vezq6srdXV1ZozI9BQKRd/w0a5du5g/fz4KhYKPP/6YLVu28NRTT9HY2GjmKE0nPz+fhx56iLvuuouTJ0/S1dXVN4To5uZ2wx9/gLS0NLy9vfHw8ADgjTfe4J577uHFF1+ku7vbzNEZl5WVFba2tpc81t8xr6+vx9XVte85N8q5oL/229vbo1Ao0Ov1fPrpp6xevRoAjUbD008/zcaNG3n//ffNEa7R9dd+4Cfnu9F0/C/48MMP2bRpU9/P9fX1PP7442zcuPGSqQcjVX/XOnN/90f9HK6LSaNoW8nvvvuOXbt28d5775GRkYGzszORkZG8/fbb/O1vf+PFF180d4hGFxgYyKOPPsrKlSspKytjy5Ytl2T3Rsvx37VrF2vWrAFgy5YthIeH4+/vz9atW/nkk0+47777zBzh8LnSMb/RPwt6vZ5nn32WmTNnMmvWLACeffZZbr31VmQyGZs2bWLq1KnExMSYOVLju+22235yvps0adIlz7nRj79GoyE5OZlt27YB4OzszBNPPMGtt95KW1sb69atY+bMmdfMDI4EF1/rli1b1ve4Ob77ozrDpVarqa+v7/u5tra2767/Rnb8+HH+8Y9/8M477+Do6MisWbOIjIwEYPHixeTm5po5QtPw9PRk1apVyGQy/P39cXd3p6WlpS+rU1NTc0OcYK4lISGh7wKzdOlS/P39gRv72F/M3t7+J8e8v3PBjfxZ+M1vfkNAQACPPvpo32N33XUXKpUKe3t7Zs6cecN+Fvo7342245+UlHTJUKKDgwN33HEHSqUSV1dXoqOjKSwsNGOExnH5tc7c3/1R3eGaM2cOBw4cACAzMxO1Wo2Dg4OZozKttrY2XnvtNd56662+VTqPPfYYZWVlQO/F+MIqvhvN3r17effddwGoq6ujoaGBtWvX9n0GDh48yLx588wZosnV1NSgUqmwtrZGkiTuvfdeWltbgRv72F9s9uzZPznmEydOJD09ndbWVjo6OkhJSWHq1KlmjtQ09u7di1Kp5PHHH+97rLCwkKeffhpJktDpdKSkpNywn4X+znej6fgDpKenExER0fdzfHw8f/zjHwHo7Ozk3LlzBAUFmSs8o+jvWmfu7/6oHlKcPHkyUVFRbNy4EZlMxtatW80dksnt37+fpqYmnnzyyb7H1q5dy5NPPomdnR329vZ9X7wbzeLFi3nmmWc4fPgwWq2Wbdu2ERkZyXPPPceOHTsYO3Yst99+u7nDNKm6urq++QoymYz169dz7733Ymdnh6enJ4899piZIzSujIwMXn31VSoqKrCysuLAgQO8/vrrPP/885ccc6VSydNPP819992HTCbjkUcewdHR0dzhD1l/7W9oaMDGxobNmzcDvQuGtm3bhpeXF3feeSdyuZzFixffEJOp+2v/pk2bfnK+s7W1HTXH/80336Surq4vsw0wdepU9uzZw4YNG9Dr9Tz44IN4enqaMfKh6+9a98orr/C73/3ObN99mXSjD1YLgiAIgiCY2ageUhQEQRAEQRgOosMlCIIgCIJgYqLDJQiCIAiCYGKiwyUIgiAIgmBiosMlCIIgCIJgYqLDJQiCIAiCYGKiwyUIgiAIgmBi/x8pWVE+QUJ3XQAAAABJRU5ErkJggg==;" vertex="1" parent="1">
          <mxGeometry x="85" y="310" width="604" height="85" as="geometry" />
        </mxCell>
        <mxCell id="JDvXGBGlwjeCY7y2N17N-23" value="" style="shape=image;verticalLabelPosition=bottom;labelBackgroundColor=#ffffff;verticalAlign=top;aspect=fixed;imageAspect=0;image=data:image/png,iVBORw0KGgoAAAANSUhEUgAAAkkAAABXCAYAAAAQw9H2AAAABHNCSVQICAgIfAhkiAAAAAlwSFlzAAALEgAACxIB0t1+/AAAADh0RVh0U29mdHdhcmUAbWF0cGxvdGxpYiB2ZXJzaW9uMy4yLjAsIGh0dHA6Ly9tYXRwbG90bGliLm9yZy8GearUAAAgAElEQVR4nO29Z4Bc1ZWu/ZzKsXPOudVRLamVExISOVgEIYzAzMDYMxiwPfgC9ufPaO7M9Qz2+M7YeMYBbGyD7cHIBJkcRFBOLalzbnXOOVc690d1Ny2p1LGqK+g8/7oo1dmLc87ea6/17rUEURRFJCQkJCQkJCQkLkLm7gFISEhISEhISHgikpMkISEhISEhIeEAyUmSkJCQkJCQkHCA5CRJSEhISEhISDhAcpIkJCQkJCQkJBwgOUkSEhISEhISEg6Yk5NUWVnJjh07ePnll109HgkJCQkJCQkJj0Ax2xdGRkb453/+Z9avXz+nH+zsHFz0oGYjMFBHb++Iy6/jqUj2X732X822g2S/ZP/Va//VbDu41v7QUOMV/9uskSSVSsXzzz9PWFiYUwe1GBQKubuH4FYk+69e+69m20GyX7L/6rX/arYd3Gf/rJEkhUKBQjHr1yQkvBKzxUZRbTenyjuoauojNzmE2zcl4q9XuXtoEhISEhJuRphrW5LnnnuOwMBA9u7dO+P3LBbrVe/xSngHVquNp/7rMBX1vQCoVXLGTVa0ajl3bU/jzm0pyOW+e7bBYrVxvqqTyGA9UaEGdw9HQkJiApPZitUmIooiWrUCQRDcPaSrFqeHiJYiZxoaalwS7dOliKJI7+A4TZ3DmMxW8lJDULhhEV1K+3sGxhAEgUCjekmuNxecZf9HpxupqO8lJymYXVsSiQk1cOh8C28eruOld8s4er6Zv7sti7AArRNG7RycYbvNJnKitJ03j9TR0TuKIMDGnEhu35hIsL/GSSN1De569z0FyX7ftr+jd4TfvVdB2cTGDUCvURAbZiA9IZgQo4q4cCMh/ho0KvlFzpNNFOnsG6WxfYiGjiEa2weRyQQy4gPJSgwiMljvDpOchivv/UyaJCmPNkcGRkz88I9naekanvosJlTPV25YRnK0vxtH5nxEUaSwppuPC5ooru1BANLjAtiQHcm6rHC3OIbOpn/YxOuHatGpFTx0cwZ+E+m1bStjWJsZwcsfVHC8tJ19vznJTevi2ZoXhVHnGym4F98t40hRG3KZwKbcSOpaBjhc2MqJ0nYe+VI2y1NC3D1EpzEyZqF7YAyzxYZaKSPaRyNmoigyMm5Br1G6eyguZXjUTEVDL4IgkBLjj8xHIiyiKPLxmSb2f1aDyWwjMdIPo85+L9t7R6lo6KO8oe+if6OQC+g1SpQKGXK5jL6hccZN1st++2xVFwC3bEjgji1JrjfGx5jVSSouLubZZ5+lubkZhULB+++/z3PPPUdAQMBSjM9j+NNHVbR0DZOVEEhqTADdA2McKmzlBy+d4YZ1cdy5NdlnXti/fFbLO8frAUiJ9kcmEyifeEk/PN3IQzdnEBd+Zc/bG3j1k2pGx63svS5tykGaRKdR8NXbsshJDublDyp57fNa/nr0AivTQokJ1RMeqEOrtr86JouVrv4xuvvHGBg2MTRqxmoTyU4KYm1GOEF+nhWZKavv5UhRG3FhBh69I4eQAC02m8ixkjZeer+Cn71WxN/fns2q9FB3D3XRNHYM8ewfChgZt0x9ds2KaL68I9UnHH2Ak2XtnChtp6qpn6FRM0lRflyTF83qjDDUSt+RPZRd6OHlDytp7f4iUxHsp2FjTgTbVsZ4vYbwozNN/OmjKgxaJQ/euIy1GeEXRYlGxy0Mm0UKK9tpaB+ib2icoVEzw6NmLFYbo2Nmgv00xIUbiAszEhtuIDbMgMlkpbS+l3eO1fPW0QvoNQquXxPnRku9jzlrkubKUoRClzrkeq6qi5/+pZDkKD++s3cVMpn94a1s7OPFd8po7x1lY04ED964DLnM9ZOvK+0vrOnmP189T1iglke+lD3lDHX2jfLW0QscKmxFLhO4YW0cN6yNc8vOdbH21zT3839eOkNcuIHvf2X11P10xOi4hcOFrXx8pomOvtF5X2tNRhgP3ZyB0kk6vcXYbrHaeOY3J2nrHuF7X8knMdLvov9e0dDLf+4vxGy28dAtGazPinDGkJ3KXO3vHRznX35/mt7BcTbnRqLXKimu7aapc5j02AD+YVc2fl4YGZxu/5GiVn79dhkAwX5qgvw0VDf1IwIh/hq+efdyokK8O8UiiiIHC5r500dVCALkJIcQGaRlcNTMqfIOxk1WNCo5t21MZEd+jFc6v3WtA/zgpTPoNAqeeXD1FTdWi3n3u/pG+cHLZ+gbMvG3N2WwKTdyMUN2CjabPXpW3tBLY8cQYyYrt25M4NpVMQ4DDu5Kt8n37du3z5kXGxkxOfPnHKLXq5fkOmAP1//Hq+ewWG18c3feRTuWYH8NazPDqWjopbCmh6aOoSXRKbnK/t7Bcf7vK+ewiSL/uDuP+IgvHhy9RsmK1FASI/0ob+ilsKabTwqaGRm3YNQqMepVSyYuXKz9fz16gfq2QR6+JZPwIN2M31UqZCRH+7N9VQxrM8PJTgwmMdJIamwAGfGB5CQFsWV5FDesjee2jQns2pLE9WviCAvU0jdkovRCL3Wtg6xKD3XKc7EY2989Uc/Jsg62rYxma170Zf89xF/LsrhATpV3cKK0HVEUSY8L8CjR6FzsHzdZ+fEr52jrGeHOrUns3p5KVmIQG7IjaesZoai2h4KKTvJSQtB5WXpq0v6yCz38/M0StCoF371/FXdvS2FzbhQbsyMQgeK6Ho6XtJMc7UeIv+do6ubLKwereeNQHUadkm/tXs5Xbs0mIczAitRQdq6KJcCgprKxj3PVXRwvbQMgKliPUuEdztLImIUfv3KWoVELj96RQ3yE3xW/u5h3X6dRkpUYxMmyds5UdLIyLfSyCPpSYrZY+eWBEj441UhbzwhyuYDVJnK2qouy+l5SYwIwaC9+N1257uv1V9bcSk7SLPzlsxpKLvRy26ZEVi+7vFaUWilnTUY4da0DFNX2cL66m8yEwMtusDNxhf2iKPKz14po6Rpmz7WprExznG4JD9KxNS8KvUZJXdsgJXU9fHquhYMFzdS2DDA4YkatkmPUKl22uC7GfqvNxovvlKNRK9i7M23OYxQEAaNORUSwjuRof9JjA0iPDSA1JoDoUAOBRjVatQKFXIZKKSchwo+N2RE0tg9RVNtDTXM/+elhi3aUFmp739A4//1GMXqNgkfvyEF1hchWkJ+GvJRgimq7OVvVRUv3CImRRo9xJuZi/ysfV3O2uovNuZHcvS1l6h4r5DLyl4VhtYmcq+7idEUnucnBXqU10+vV1DT28u+vnMdqE/nm3ctJiflCE6nTKMlJCibEX8OZik6OlbQRGqglxgu1WJWNffzuvQoig3V8Z+8qYkINF91/hVxGUpQfW5ZHYbbYKG/oo7Cmm4MFTTR3DTM6bsWoU02lxj2R379fTnlDHzeti+eaFZdvXKaz2HnfT68iKkTP8ZJ2GtoH2ZQT6ZYN0PCYmf/883mK63pIjw3gO3tXcseWZDblRtLVP0pxXQ+fnWvGbBVJivKbmjMlJ2keLJWTZLXZ+PXbZaiVch69I+eKaRmlQsaajHCGRs0U1nRztLiVIKOG6FC9Sx5CV9hf3dzP64fqyE4K4ss7ZnYeFHIZKTH+bF8ZTUSwDq1KQd/QODUtAxTV2iNMn55r4ULbAMNjZvz1aqdOVIuxv6K+l0/PtbAhO4K8VNcKlOUy+6Lc0jVMUW0P/UMmVlzB+ZwrC7X9o9NNFNf1cPe2FNJjA2f8rp9exbqscGqb+ymq7eGj003UtPTT3T82FUX84FQjfz5YzZtH6jhc2EpBZScalcLl6Z3Z7B8YNvHC26UEGdX84z15l6W/BUEgMyEIlVLGmYpOTpV3EOynITLENe+qs9Hr1fz8tUIa2of425syrriZiQs3khLtz5nKTk6UdqBUyEiJ9vcKG8GeivnZ60X0D5v4xl25U4J7R/dfpZSTkxzM1hVRaNUKmjuHqW7q52xVFx+eaqSudQCtWkFYgNaj7O/qG+XFd8uJCdXztduzZkz7g3Pm/YggHa3dwxTX9WDUqUiKunLkylW8+E45hTXd5C8L49E7sjFo7ZsUjcoecIgO0VPZ1E9hTTcnStvJXxaGVq2QnKT5sFROUll9L5+ebWFDdiQrUmde3OQygeUpIYQFaDlb3cWp8g4KKjsx6FQEGtRODf+6wv6/fFZDU+cwX7lhGaFzPPIul8uIDTOyMi2UnfmxbMiOICbMgEYlp2tgjNqWAc5X2xfUwpouBEEgNsyw6IlqMfa/d6KBC22D3H1N8pztXAwymcDKtFAKa7opqu0mJlS/KEdiIbbbRJEX3ynHbLXx8C2Zc3oW1Uo567IiCAnQMDBioqKhj7L6Xsob+qhu7qejdxS9VkGgQc3wmIWWrmFOlnfQ0TvCsvjAK0aqFsts9r99/ALl9X3s2pJEygynTlNjAvDXqyiotDtKZ6u6UClkaFRydBrPrUszPG7ll28UERdu4P7r0mccZ2iAluXJIZyr7qKgspPOvjGiQ/UujXI7i0OFrXx2roX1WRHsyI+d+nym+69WykmPDeC61bHkLwsjIkjHiMlCeX0fJ0rbOVrchtlqIzxI5xGi9gNHLlDTPMDd21JImCHNNomz5v3U2AAOF7ZQfKGH9ZkR6DRLF2nr6Bvl9++VExtm4Nt78hxG1qNC9GzNi8JmE2npGmb1sjCMOpXbnCTPjUN6AKfK2gFY4yDNdiXWZ0eQHO3HgSMXOFbSxs/fKAYgyE9NdIiB6FA9MaF6lqeEeMxx3cERE6fLO4gI0rEsbmGnFgVBICxQR1igji3LoxBFkfbeUYpquzlX1UVlYx+/fbecgwVN3HttKulxM0czXIHNJnKmshODVknaAu1cCAq5jL+7NZN/+u0pfvdeBcnR/gQYlq7uVGVDHx19o2zMjphXRE8hl7E5N4rNuVG0dA3ba2bJBJRyGZHBuovSVC1dw/z67VKOlbRT2djPd+9fteS1tUbHLRw804xRp5yTMPWaFdFkJARy4HAdx0vap0TQBq2SxEg/kqL8SI3xJy02wGMEwW8dqUMUYWd+7JwcuZgwA997IJ+fvHqeYyVtHCtpY1lcADFhBtRKOYFGNcuTQzyqPtbImJm/fFaDWinnrmuS5/3vBUEgJtRATKiBnatjqW8b5JOzzRwvbWP/pzW8caiWdZkR7FwdS2yYe9KQo+MWPj/fgr9BxdrM8CW9tr9exe7tKbz4Tjl//KiSx+7MXbJrf3iyEVGEG9fGzXgaXKNScPe2FO7elrJkY7sSUiTpClisdu2KTq2YNf10KXqtkpVpoazNDEcpl6FWyRkYNtHQPkR1cz8FlV0cLGhmdMxCTKgejWp+vqqz7f+koJmi2h5u2ZAw4+57PgiCgEGrJDnKn405kWzOjWJo1ExxXQ9HitoIMKjmtHtyxELtr2zs42BBM+uzI2aNDDobo06FTq3gTEUnLV0jrMsMX1C0YiG2v36olqbOYe7bmbbgxdCoU9md4AAtwf6ay3biRp2KTbmRWKw2Cmu6KW/odUlNrZns//hME+equ7h5XTyZCUFz+j2DVsmq9DDWZIQRFqBFp1EwOGLmQtsgFQ19HC1u46MzjTR2DKFVKwgN0LgtyjRmsvCL14vQqhX8zY0ZyGdJz0yiVSvYlBtJdKieoVEz5Q191LYMUDWR0vjwdCOFNd34G1REzHKQYSn48HQT56q6uH1T4mU1uxby/AcY1OSlhrB9ZTT+BjXtPSMTWYJm6tsGSYsNWHLd0idnmzlX3cVN6+LJiJ/bhtGZ835cmIHy+l5KLvSSFOVHeKDr7/vgiIkX3iolwKDmgRvSZ00vXooUSfIwSi/0MjxmsR9HnOfNnCQiSMfu7V94wsNjZpo7h6lq6uOj0028e6KBT8+18K1LxJdLiU0U+fRsM0qFjA3ZrjvyHWhU8/AtmWxbEc1P9hfy+/cqUCnkrHfhNS/lVHkHAPnp7mnWvH1lNOeqOqdE0VfSkziTkTEzpys6CQ/UkuriZ0wuk3HX1mSGRswcKmzlVwdKZ9TyOROL1cYHpxpQq+RsXxUz738fGay/qCLxwLCJ2tYBSi/0cK6qi5NlHZws6yA+wshtGxIWrS1bCEeL2xges3D7psR5p+8Vcrtuck1GOL2D4wwMmxg3W2nuGuZMRQfl9X38dH8huzYncsuGBLemG0+WtiOXCbMKmeeLTqNkZ34s166KobCmm3eP13Ouuouqpj7uuy7tstpErsJmE/nodCMqhYxr8qJcfj1HCILAfdel808vnuIPH1byzw+tdfmJwIMFzZgsNq5bHesxkdm54D0jXWKmUm0ZzltQ9RolabEB3Lw+gR/+w3ruvTZ16rjy9DL0S0nZhV46+kZZkxG2JFqF5Gh/vr0nD61awQtvl3KmosPl1wT76b2Cyk70GgXpS5hqm44gCHx5ZxpymcD/fFyF2XJ5dVxnc6K0HbPFxqbcpTnJIggC91+fTkZ8IOequ3jt81qXXxPsm5q+IRObciKdksb206vISwnhyzvSePbv1/O9B/LJTw+loW2Q514r4o1DtTi5xNyMiKLIh6ebUMhli3YeAo1q4iOMpMUGsG1FNN/es4LvP5hPsJ+a1w/V8csDJZgtNieNfH609YzQ0DFEVmKQy+YjmSCQlxLC0/et5P7r0jBbbfzqQCnvnmhwyfUupbCmm67+MTZkR7j1ZGVsmIHtq6Lp6B3l/ZOutd1ktvLxmSb0GgWbl7u/RtN8kJwkB5gtNgqqugg0ql3WckSpkLNzdSxf35WN1WbjP189T0ldj0uuNROTtUUc1c1xFXHhRv7xnjxUSjkvvFVGW4/r+/219YzQN2QiKzHIrbuYyGA9166Koat/jA9ONbr8ekdL2qZ6sy0VCrmMR3ZlExag5Z3j9Zyv7nL5NQsq7c62Mzc1kwiCQFKUH4/syuF/P7yW0AANB45c4E8fV2FbIkepoX2I9p4RNuREuqS6dFy4kf//K6tJifHnZFkHv/prCVbb0jtKJyc2p47KrTgbQRDYtjKGf/rbNQQa1ez/tIYzFZ0uv+7ZKvs1lvKdvBJf2pSEn17FW0cvLKhY7lwpqu1haNTMluVR85aXuBuvc5IqG/v4y8Eql+7iqpv6GB23kJ8e5vJWIyvSQnnszlxEEX72WhEX2gZcer3piKJISV0PRp1yyY+CJkX58Tc3LmPcbOWXb5Zgsbp2Qq5stPc9So91fzud2zYmYNQpeetoPb2D4y67zsCIidrmAVJjApZUKA72qOk/fCkbhVzGC2+V0tXvugnYarNRUNmFv17l8j6K0SF6nr5vFVEhej463cSfD1a79HqTFNbYHc21LkxP++lVfPuePNJjAzhT0clv3y1fMidwklNlHSjkwpJqBsMDdXzjrlzUSjnPv1VCfZvrujnYJvpiGnVKEt1w/P5SdBoFe7anYLLY+N275S5bVycdw/wlcH6djdc5SafKOvjt26Uu9fgrm/oBWBa/NAtqTlIwX7stE5PZyn/++bxLPfrptHbboysZ8YFu6Tu3JiOcTbmR1LcP8pfPalx6rYoJJynNDafqLkWnUXLn1mTGzVbeOOS6dFRxbTcisDw52GXXmIn4CCNf3pnK8JiFX7jQEa5qtPctW5EWuiTPcaBRzdP3rSQyWMcHpxqXJAJcWNuNTBBY6WI9nUop5/G7ckmMNHKkqI3/+ci1G9LpNHcO0dw1TE5S8JIeSwd7JO2rt2ZiNtt47rVChsfMLrlOfdsg/cMmcpODPabX59rMcPJSQiir7+Xz8y1O/32rzcb5antmJiHC+3p+ep2TtGN1DAq5wP5Pa1w36TbZF1RnnfSaC6vSw/jyzjQGRsz8xyvnGFyCU4IlF+yTe9YcTwK5gvt2pBERpOP9k40U1Xa75BqiKFLR0IdBqyQq2P2ndwA25UQSGazjSFEb7S5KN56vtv//zHWTkwSwdXkU6zLDqW0ZYP+nrnGEz1TaN0xL2ZTXoFXy1VuzkMsEfv12KUOjrllUwX4qqLZ5gJRoPwxLoGHRqhV8a3eePVp2pok3D9e5/JoAJ8vsKdPVLkiZzoUVaaHcvimRnoFxfvdehUucw8nU8/Jk1xaynQ+TOkKtWsErB6vpGRhz6u9XNvYzPGZhRWqIx9Yfmwmvc5LCA3XcuCGRjr5RPilodvrvW202apoHLqsDsxRcuyqGm9bF0947yk/3FzJudq2wt3RiBzzX49KuQK2S87XbslDIBX79Vin9Q85PP3X1j9E7OE56rOf0IZPJBHZtTsImirx5xPmLkMVqo7iuhxB/jVubnAqCwAM3pE9FXZwdAbZNF+QvcSo1PsLI7ZsS6Rsy8dL7rllUAYprexCBnCV0dg1aJU/ckzelv/rAxcJesJ8+VSlk5KW4z4G4ZUMCqTH+nC7v4HBRq9N//3x1N3KZQFai++ZcRwQa1ezZnsKYycofP6py6m8XTGxi3HEi1Bl4nZMEcM+ONLRqOQeO1DHi5LBoY8cQ42YraW7Srty5NYn1WRHUtAzwyzddJ560WG2UN/YRHqRzeyG5+Agjd12TwsCImRfeLnO6DqJyKtXmfj3SdFamhxIXZuBESTtNnUNO/e3qpn5Gxy3kJge73THUqBT8w5eyUSlk/OadMjp6nRc5q2sdoHdwnLwU1zeWdsSN6+JIifbnVHmHyyQAhRMR1qWOPgQa1Xx7zwoCDCr+52D1lKjaFfQMjNHWM0JmQpBbhb0ymcDf3ZqJVq3gjx9WOTXK2zs4Tn37IMvilr4u01zYlBtJSrQ/BZWdU9mUxSKKImerOtGpl34T4yy80knyN6i5ZX0Cw2MWXv/cubvwqka7HsnVNWWuhCAI/M1Ny8hMsB+hfvmDSpfsUGtbBhg3WclKcL9GB2Bnfgy5ycGU1PXwwUnnnvqqaPAc0fZ0ZILAri1JiMCbh5z7HBfWTKbaPCOsHxNq4P7r0xkdt/DCW85zhAsmHJOVS5hqm45cJuNvb85AIRf440eVjI5bnPr7VpuN4tpue8X+0KWPCIYGaHninjzUKjm/eaeMhnbXiJqnNjIe8I6G+Gt54Pp0xs1WfvOO857V8xPi+1w3RspmQhAEdk9UuP7zJ9VOWXca2ofoGRhneUqwV9VGmo53jhrYkR9DZLCOjwvs1VmdxaQHnRrjvpdVIZfx9V05xIUZ+OxcC28dveD0a5R6gB5pOoIg8Lc3ZeCvV/Ha5zU0OzGyUtnYh06t8MhO6LnJwSRH+3GmstOpC9D5GnsvsoW2mXEFG3MiyU8Ppbq532kC0aLaHpQKmVuf44ggHTevT6BvyMTrTq4LVdM8wPCYhdxk9+k5okMN/N0tmZjMNn72WpFL9FdTp0895HldmxnOqrRQqpr6nSbrKJzQCF5aRdyTSInxZ1V6KDXNA1NpssUwqRdc6g4HzsRrnSSlQs4/3G4/Yvzrt0udIjYTRZHKpn4CDCpC3JyC0qoVfHP3coL9NLx+yN5p3ZmUXOhBJghu6aF2Jfz0Kr5ywzIsVpHfvFPmlFRj7+A4HX2jpMb4L0nl5/kiCAK3bUwE4O1j9U75zY6+UVq7Rya63bu/ked07t2RhkYlZ/8nNYvWnw2MmGjqHCIl2t/tdt60Lp7wIPumra7VeWU8Jg8z5Ca5T3wPsDItlFs3JNDVP8YLb5U6Pbpd0diHWiknLtxzNjJ7r0tDr1Gw/7OaRZewsFhtlNX3Ehlsb+3jydy5NRm5zDmHo4pq7Rqs7CTP2IwvBK91ksDevPHeHfYjxr88UILNtrgXt6NvlIFhE6kxniHwDTCo+cd7lqPXKPjtu+XUtPQ75XdHxy3UtQySGGVc8qO2s5GXGsL6rAjqWgd53wlpt4pGeyVzT3IGLyU7MYj4CCOnyzto7R5e9O9NHknP8cCJKdCo5s6tyYyMW/ifRdYYmkyjzrX3lStRKmQ8cH06ogi/f6/CaVrC0gu9yGXCkpUjmYnbNyeSER9IYU0355xYIHRgxERr9wgpMf7IZZ6zJPkb1OyZ6Irw+0Wedmtot2tdPXkemiQiyN6kvL13dFE6u5ExMw3tgyRH+XldAcnpeM4TuUCuyYti5URYdLEv7qQeyRPy4pNEBut5ZFcONlHkd+9WOKXsQU1LPzZRZJmHvrD37kjFX6/ijUO1i3YapjRmse7RmM0FQRC4ZX0CIs6JJlU02B3DZR7gPDhi24poEiP9OFHaviiB6GQrH09wksA+jg3ZEdS3D3LwzOJTNKPjFurbBkmM9IxFRiYI3DfRVueVj6ud1rpkat51kw50JjZkR5CZEEhxXc+iWkd9obnyPBsdsXN1LGBvxLtQKhv7EUXPnYfmitc7SYIg8KXN9nTFwYKmRf3WF3okz3qQM+ID2bI8kqbOIT50QiuLmmZ7OiA5yrPsnMSgVbL3unQsVpHXFylorm7uR6mQER/u2UXMVqSFEB2i53hJO52LKCYqiiLlDX0e09HdETKZwD0TjZ/fW0S/rLL6XjQqOQmRnnNvd29PQa9R8Nqh2kVLAKqa+uybGQ+IIk0SFaJn+8oYOvpG+fC0cw5YeJJo+1IEQeDOrckAHDhct+Bo0hcV/73DYYgI0pERH0hlY9+C9aHlDZ4fxZ8LXu8kgf3kTFpsAKUXehcVeahq6kejknukwPeua1Lw0yl583AdbYuMrtQ023duSdHuL4t/JVamhRAfYeRMeQctXQuzd3TcQlPnEImRfh5/skImCNy8IR6bKPLu8YVHk1q7RxgYNrEsLtAjUsZXIjXGn6QoP85VdS3one0dHKe9Z4S02ACPStH46VTcvS2FcZOVPy2y3kx5/aSY2bMWmds32dvq/PXoBae01als7EMhF5a8NdJcSYz0Izc5mMqmfsob5h/5tIkilY19hAVoCTQubXugxbBtopHyp2cXdsiivKEXhVxGigevM3PBc2aXRbJ9pf2GLvQkwsCIibaeEVKiPVPga9Aq2XNtKiaLjRfeLF7w79hEkZqWAcICtfi5sQP1bAiCwK0bJlNQFxb0G7UtA4ji0lZOXwxrloUTFvXm/s8AABmsSURBVKjlcFHrghefyd2bJ51qc4QgCNywJg4RFhQdLfewVNt0NuVGkhrjz5nKTooXUUW+rMGuR/K051enUbJrcxLjJisfLTKaNDpuoaFjkKRIP5QKzzpkMJ3bN9mzFQcWUH28uXOYkXGLR0bKZiIvNQR/g4qjJa2MmeZX2mJ4zExj+xDJUZ59X+eCzzhJK9NC8TeoOFI8/xsK7q+PNBfWZoaTEuPPiZI2mhcYXWntHmF03OKxqbbp5KWGEBOq53hp+4IKELqjvcxikMkEbl4Xj8UqLjgNNbnT9VS92XRWpoUS4q/hSHEbA8Pza8PjaXqk6UxqdwD+8nntglI000Wvag87oQiwMScCg1bJocJWzJaFdwaobrbrVlI93IFIjPQjJymYisa+Kc3fXJn8vrc5SQq5jK3Loxgdt3KidH6FRCsb+hDxfj0S+JCTNP2GHi+Zf2XYyQXVkx/kyd03sOA2AZOpNm8IgcoEgVs2JCCKCxM0T9qa7AW2TrI+O4IgPzWfnWuet+Ng71HXS6BRTVigZx8zBrtTeP2aOMwW27z0hKIoUlbfg16jICbM81LjYG+YuiYjjPq2wQXVm/F00atSIWfz8kiGRs2cKu9Y8O98odXx3Hl3kts2JgDw4en5aV89teL/XNiyPApBgEPzLEHzxWbN+2y+FJ9xkgC25kUjEwQ+Ozf/HGpVUz9ymUBCpGcvqHkpIUSG6DlW0k7/PBdRmO44eEd0JT89jPAgHUeL2+ZVxM5ms6cVI4KWvgffYlDIZdy4Nh6TxcYH80xDtXQNMzhiZlmcZ5SwmAubciLRqRV8dr5lzsfmO/tG6R4YZ1l8oMd0UnfE7ZsSEQR4/VDdvMuTfJE29UwnCeCavGgEFi5xAHt9JEHwjvkoOdqfmFAD56u75tyAXJzQIwUa1YS6ufbeQgjy07AsLpDaloF5HUQob+hFqZB5rM5sPviUkxRoVJOTFER9++C8emGNm6w0tA+SEGH0yND2dGQygdu3JGOx2vhkAaf5aloGUCvlbmlxsBBkMoGty6Ow2sR5hXybOocYM1lJ8eD06ZXYnBuJv17FwYKmefUmnNy9eZrQdybUKjlrM8PpHzJRUje3NEbJBfv3Mj00yjJJZLCejdmRtHQNzztdUV5vF716chQ0NEBLTnIwNS0D1LfNv1q8yWylrmWA+HCjR/Yyc8SmnIh5zUVtPSMMjJhJ86Dm2vMlf6Llz1xrJg2Nmmnq8A09EviYkwSwIScSgGPFbXP+N7WtA1htoltbkcyHa/Nj0WsUHCxoxmSeux5gZMxMS9cwiZFGjzoRNBvrs8KRCQJHi+ce8v0ireh9TpJKKWfn6ljGTNZ5VVov9/D6SFdi48Q7O9f7OymGznJzFeq5cNvGBOQygQNH6ubcA2xo1ExjxxAp0Z6/yEwdmFlAPZ26iXnXkyUOl7I2KwKZIHCkaG7ry2TBU2+y8VJWpoUiAKcr5pZWLa/v9Rk9Evigk5SXEoxWreBYSducQ9xT9ZG8pNCXRq3gmhXRDI2aOTGPztw1LRP1kbzMcfA3qMlOCqKudXDO5QCqmj1fiD8TW5ZHoVTIOFjQPKfF1WYTKa/vJdjP+8L6iZFGIoN1FFR2MTxL5GyyvUNYoNbj2zsAhARoWZcZTnvvKKUTldBno7iuGxHI8JC+ijORnRhMiL+G46VtjJvmJ+Cu8OD6SFfCX68iNznYnq3omD1bMdlWJtNDGokvBH+DmtQYf6qb+umbQyuhyebaOV6wiZkLPuckKRVy1mSE0TdkmnOF1KpG7zoFBbB1eRQwv4iZt+mRprMhOwKAI3OMNlQ39aPXKAj30IKKs2HQKlmbGU5H3yhFNbMfI69tsTdCzUkK9rqwviAIbMyJxGK1caps5t1qRX0vYyYr2Yme70BMsn1VDAAH56jdmVxklid7/iIjkwmsy4rAZLbNu+PBpKDZ2zYyc52LzBYbpRd6CQ/SER7onfPQJKuWhSHCrIcQbKJIUW03fjol8RGeU+R1MfickwRfPMRzCd9bbTaqWwaIDPYugW9IgJb02ADKG/rm3HyxqmnCSfJCMd2K1BB0agXHituwzhIh7Oofpat/zF7zysschunsmFhcPz4zu/bsfI19gcrxgoXVEeuzIhAEOFI08zt7diLkn+VFTlJipB+JkUbO13TN+q7abCJFNd0EGtXEeujJvUtZlxkOMC/dlcVqo7q5n+gQvVfNuwDLU0LQaxQcK2mfsU1UZWMf42arVzi7s7Eqza5LOj3LScbG9iH6h03kJAV79dw7HZ90klKi/QkL0HKmspPR8ZlrJjV2DDFusnqNHmk6k87gsTmUPBg3W6lq6iMuzOB1kxJcHCE8XzXzbmYq3Ovlk1NcuJHUGH+K63pmrUpdVNONQi6QGe89zsN0Ao1qshKCqGkZmNHWgooOe8NXLxKnA2xfGYMozl69uKaln+ExC8uTvSciGBWiJzbMQFFt95xPoDa0D2Ey27wq1TaJUiFjXWYEA8OmqbnGEd6+cZlOkJ+G5Cg/Khr7GJjhZJ8v2TyJTzpJgiCwIdseAp5NkT+ZyvCk/khzJX9ZGEqFjKPFbbMWrKtu6sdiFcn0Ap3DlZgU5R+c5Wj85MSV6wMv6rVzSNX0Do7T0DFEelwgapVnC31nYlOu/f5eyZEYGjVT3dRHSrS/15yGmmT1sjD0GgWfn2+ZsfjiF89uyFINzSmsywzHahM5M0dx71SqzUt0oJeyNc8ud/h0BsF6UU03apXcK2pAzYX8ZWGI4swRw6KabmSC4FXp8NnwSScJYN0cU25nq7qQywRyvVBkplUrWJkWSnvPCLWtAzN+t/SCXTTqzQLC5Cg/wgO1HCtuZWTMcYRw3GylrL6X6BA9If6eL+ydjZVpoQQa1RwubL2iqHlSHOqNz/B0JqvmHy5qcVg1v/RCD6LoXam2SVRKOZuXRzE0aubkDLqr89VdKOQyj6wkPhNrMuaXcpsqsOiFEXyAmDADKTH+lNT10OGgIXV7zwjtvaNkJQR5fN/IubI+KwK5TODz8y0ON+WDIyZqWwZIifFHp1G6YYSuwTfungPCArSkxfjPqNnpHRznQtsg6XEBXntTv9BfzSzgLr3Qi0IueGVacRJBENiQE4nJbL3icdTy+l7MFptPRJHAXlxyx6oYxs3WKxZJnYo+pHi3zQq5jG150YyOWx0+z8W1dkc/O8n7nCSwH5eXCQLvnWhweGKxu3+Mps5hMuK9LyIY7K8hJcafioa+WfsO2kSRqqY+QgM0BPl510nM6VyTF4UIfO7gvTzvQ9HsSfz0KlakhtDcOUxty+Wb8uK6HkR8y2bwYScJvkjPXKlNybkJbUteineFtqeTmRCIv17FiZL2K9ZMGhwx0dA+SEq0v9dNvpeyIWviZMkVBL6+ODltzYtCrZLz0elGzJaLhaIWq42SCz2EB2q9/gQN2G2VywQ+PtN00W61Z2CMk2XthPhriAv3zlMzIf5a1maG0dw17FDLUjih5/DWZ3ddZjgicHKWsiQ1zXbdlbfpyi4lP92eQj1c2HKZgLtoUpvj5dHdS9maZ6+L5WjDNrVZ8zGbfdpJyk+fWbNzduLIal6q9zpJcpmMTbmRjIxbrhjGL59oNugNdVdmI9hfQ25KCFVN/Zc1vRVFkcKaLnRqhVdW2r4SOo2SzbmR9A2ZOHz+Yg1ERUMf4yarzwgl/Q1qVmeE0do9Qum0Eh6vfV6LyWLjvhsyvPrUzI1r4wF49/jFvQhtosjhCcffW09DrckIRyEXOFzYOqNGclInuio9bKmG5hJUSjkbcyIZGDFfdDS+rnWAsvo+4sONBBrVbhyh88lICCTEX8PJ8vaLDkW194xwuryDsECt13RzmCs+7STpNApWpIbQ1jNCXevFZfNHxy2U1/cSF2bweu3K1rwoew+lK4gIy3xAjzSd7fmxwOUpxubOYXoGxslOCvKqiuJzYWd+LIIAb3xaM7UAWaw2Xv2kGrALg32FSbH6Xw/XMTJmpr5tkGPFbcSGGdg2ce+9lZgwA7nJwVQ19VM9UZID4PPzLdS1DrImI4wQLyiS6QiDVsmK1FCauxynY8C+kTld0YFWrfCJ+Why7v3Tx1W09YwwOm7hlwdKEEWRu7Ylu3t4TkcmCGxZHoXJbOP4NP3Znz+pxmoTuWtrstecypwrvrWSOGBDtj3ldml6priuB4tV9Ooo0iQh/lpyk4Opa3XcQ6n0Qi9atYIEHynutSE3CrVSztHitovC3JM6JW9NV8xEaICWVelh1Lb08/qhOkRR5K2jF2joGGLL8kiv1ppdSnKUP9mJQVQ29fO9F07wm3fKEIHd21OQy7x/Ar5xbRwAbxyuZdxsZWDExF8+rUGjknPP9lQ3j25xbJkocvv5ecf6ubrWQXoGxslLCfEJQXNksJ49O1LpHzLxwz8W8PxfS+noHeWGtXFk+UDk3hGbciORCQJvHb0wETXr5WxVF2kx/qya6PPmS3j/UzoLWYmBBPmp+excy9SJCmDqqOqKVN+4qdumeihdXHiwtXuYjr5RlsUF+Ex0RatWsD47gq7+MV56v2Kq0/bbx+oxaJUs92KN2UzsviaZiGAdbx29wM9eK+LtY/UE+am9fmF1xON35bJrcyKDI/Y+ZrnJwT6z6KTFBrAsLoDSC738f88f5xdvFDM8ZmHXliSvT89kJAQS7KfhZFmHwxp1kxuZ/GW+Me+CPcq7Z3sKfUMmzlV3kRBhZNeWJHcPy2UEGNTceU0SfYPj/OClM7zwVikA91yb6nNRJLgKnCS5TMZXb80C4OdvFNM7OM7+T2s4WdZBeJCOuHDvqGo7G1/0UGqfOh4viiJ//KgKgHUTgmdf4Z5tKcRHGDlU2Mqrn9Tw368XIYrwyJey0XvpScXZCAnQ8sPHNhMfYeRsVRdWm8jf3JjhdTWD5oJCLuPWjYk88zer2ZEfw/3Xpbt7SE5DEAQevyuXm9fHMzBsoryhj7hww1SzWG9GJghszo1k3Gzl1CXVmUVR5HR5B2qV3Kfq6ABctyaO+3amkRBh5Gu3ZflElGwmblwbz7fuWY5Oo6B3cJwN2REkRnpfJ4e5IN+3b98+Z/7gyAzVOJ2FXq+e13WC/TVoVHLOVHZyuLCV0vpewgO1fGv3cgxa76s+7ch+QRAwWawU1/bQMzDG8pQQTpV18N6JBrITg7hza5LPePl6vZrxcTPLk0M4Vd5BcV0P42YbX96ZNlWvxVcJDtSTkxDA4IiJ1RnhbJw4wemr+OlV5CQFo9PYHcH5vvueikIuIzMhaErsfOfWZPz0s0eRvMH+0AAtH55qZGDExObcyKl5p6F9iHdPNJCfHrbg99ST7U+K8mNrXjQGrWs2aZ5me1igjnWZEfgbVNyyIQGVwrUnp11pv36Gd29OW9Af/OAHnD9/HkEQ+O53v0tubq7TBrdU7FwdS03LAKfKO0iO9uPxO3O9sj3HTGxfGcPZqi6Ol7YzOGqmoX0QlULG/den+4yDNJ1Ao5rH78zlP/58jtXLwn1iJz4XNCoFD96Y4e5hSDiB8CCdz6VLg/w05CYHc76mm/dPNnLD2jhEUeTD0/ZK+ZN9wCS8n0CjeurEpq8yq5N08uRJ6uvreeWVV6ipqeG73/0ur7zyylKMzakIgsDDt2SwLjOcrMQgVErvrhfkCK1awf/as4Kfv1k8VbPi7m3JhHrpaZm5EB9h5P8+ugmZDwh6JSR8hQduWMY//+4Ur35STYi/hsLabo4WtxEdqvfJgxUSvsusidNjx46xY8cOAJKTk+nv72doaMjlA3MFSoWcFWmhPukgTaJWyXn0jhyuWx3Lmowwdnr5kem5IDlIEhKeRaBRzTfuWo5SKeO/3yjmcGErCRFGnrx3hU/PvxK+x6yRpK6uLrKysqb+DgoKorOzE4PBseA5MFCHwsW5SYDQUN84zr5QZrP/sT0rl2gk7uFqvv9Xs+0g2e8t9oeGGnnqfhn/57cnyUgI4vsPrXVK+ydvsd8VXM22g3vsn/exmNm6zfdeUgXZFYSGGunsvLwe0NWCZP/Va//VbDtI9nub/Ylhen789Y0YtUqGB8cYHhxb1O95m/3O5Gq2HVxr/0zO16xOUlhYGF1dXVN/d3R0EBoqCe8kJCQkJGbHX+9bB2Qkri4EcZbQUEFBAc899xwvvvgiJSUl/Mu//At/+tOflmp8EhISEhISEhJuYdZI0sqVK8nKymLPnj0IgsAzzzyzFOOSkJCQkJCQkHArs0aSJCQkJCQkJCSuRny7drqEhISEhISExAKRnCQJCQkJCQkJCQdITpKEhISEhISEhAMkJ0lCQkJCQkJCwgHzLibpbnyh2e58+eEPf8iZM2ewWCx87Wtf4+DBg5SUlBAQEADAQw89xDXXXOPeQbqAEydO8I1vfIPUVHsD0LS0NB5++GGefPJJrFYroaGh/OhHP0Kl8s06LK+++ioHDhyY+ru4uJjs7GxGRkbQ6XQAPPXUU2RnZ7triC6hsrKSRx55hAcffJC9e/fS2trq8J4fOHCA3/3ud8hkMnbv3s3dd9/t7qE7BUf2f+c738FisaBQKPjRj35EaGgoWVlZrFz5RWX93/72t8jl3t/y41L7n376aYfz3dVy/x9//HF6e3sB6OvrIy8vj6997WvceuutU+9+YGAgP/3pT905bKdw6VqXk5Pj/ndf9CJOnDghfvWrXxVFURSrq6vF3bt3u3lErufYsWPiww8/LIqiKPb09Ihbt24Vn3rqKfHgwYNuHpnrOX78uPjYY49d9NnTTz8tvvPOO6IoiuKPf/xj8Q9/+IM7hrbknDhxQty3b5+4d+9esaKiwt3DcRnDw8Pi3r17xe9973viSy+9JIqi43s+PDwsXnfddeLAwIA4Ojoq3nzzzWJvb687h+4UHNn/5JNPim+//bYoiqL48ssvi88++6woiqK4Zs0at43TVTiy39F8dzXd/+k8/fTT4vnz58XGxkZx165dbhih63C01nnCu+9V6TZfarY7V1avXs1PfvITAPz8/BgdHcVqtbp5VO7jxIkTXHvttQBs27aNY8eOuXlES8N//dd/8cgjj7h7GC5HpVLx/PPPExYWNvWZo3t+/vx5cnJyMBqNaDQaVq5cSUFBgbuG7TQc2f/MM89w/fXXA/aIQV9fn7uG53Ic2e+Iq+n+T1JbW8vg4KDPZk8crXWe8O57lZPU1dVFYGDg1N+TzXZ9GblcPpVa2b9/P1u2bEEul/Pyyy/zwAMP8K1vfYuenh43j9J1VFdX8/d///fce++9HDlyhNHR0an0WnBwsM/ff4DCwkIiIyOn2gH99Kc/5b777uP73/8+Y2OL64XlaSgUCjQazUWfObrnXV1dBAUFTX3HV+YCR/brdDrkcjlWq5U//vGP3HrrrQCYTCaeeOIJ9uzZw4svvuiO4TodR/YDl813V9P9n+T3v/89e/funfq7q6uLxx9/nD179lyUlvdWHK11nvDue50maTriVVQH86OPPmL//v385je/obi4mICAADIyMvjVr37Fz372M77//e+7e4hOJyEhgUcffZQbb7yRxsZGHnjggYuiaFfL/d+/fz+7du0C4IEHHiA9PZ24uDieeeYZ/vCHP/DQQw+5eYRLx5Xuua8/C1arlSeffJJ169axfv16AJ588kluu+02BEFg79695Ofnk5OT4+aROp/bb7/9svluxYoVF33H1++/yWTizJkz7Nu3D4CAgAC+8Y1vcNtttzE4OMjdd9/NunXrZo3AeQPT17rrrrtu6nN3vfteFUm6WpvtHjp0iF/84hc8//zzGI1G1q9fT0ZGBgDbt2+nsrLSzSN0DeHh4dx0000IgkBcXBwhISH09/dPRU/a29t9YlKYjRMnTkwtCjt37iQuLg7w7Xs/HZ1Od9k9dzQX+PKz8J3vfIf4+HgeffTRqc/uvfde9Ho9Op2OdevW+eyz4Gi+u9ru/6lTpy5KsxkMBu68806USiVBQUFkZ2dTW1vrxhE6h0vXOk94973KSdq4cSPvv/8+ACUlJYSFhWEwGNw8KtcyODjID3/4Q375y19One547LHHaGxsBOwL6OTpL1/jwIED/PrXvwags7OT7u5u7rjjjqln4IMPPmDz5s3uHKLLaW9vR6/Xo1KpEEWRBx98kIGBAcC37/10NmzYcNk9X758OUVFRQwMDDA8PExBQQH5+fluHqlrOHDgAEqlkscff3zqs9raWp544glEUcRisVBQUOCzz4Kj+e5quv8ARUVFLFu2bOrv48eP86//+q8AjIyMUF5eTmJioruG5xQcrXWe8O57Vbrtamy2+84779Db28s3v/nNqc/uuOMOvvnNb6LVatHpdFMvi6+xfft2vv3tb/Pxxx9jNpvZt28fGRkZPPXUU7zyyitERUXxpS99yd3DdCmdnZ1T+XdBENi9ezcPPvggWq2W8PBwHnvsMTeP0LkUFxfz7LPP0tzcjEKh4P333+ff//3fefrppy+650qlkieeeIKHHnoIQRD4+te/jtFodPfwF40j+7u7u1Gr1dx///2A/dDKvn37iIiI4K677kImk7F9+3afEPQ6sn/v3r2XzXcajeaquf/PPfccnZ2dUxFkgPz8fN544w3uuecerFYrX/3qVwkPD3fjyBePo7Xu3/7t3/je977n1ndfanArISEhISEhIeEAr0q3SUhISEhISEgsFZKTJCEhISEhISHhAMlJkpCQkJCQkJBwgOQkSUhISEhISEg4QHKSJCQkJCQkJCQcIDlJEhISEhISEhIOkJwkCQkJCQkJCQkHSE6ShISEhISEhIQD/h92nfehXftBZAAAAABJRU5ErkJggg==;" vertex="1" parent="1">
          <mxGeometry x="104" y="369.5" width="585" height="87" as="geometry" />
        </mxCell>
        <mxCell id="JDvXGBGlwjeCY7y2N17N-19" value="" style="rounded=0;whiteSpace=wrap;html=1;strokeColor=none;" vertex="1" parent="1">
          <mxGeometry x="90" y="30" width="30" height="440" as="geometry" />
        </mxCell>
        <mxCell id="JDvXGBGlwjeCY7y2N17N-12" value="&lt;font face=&quot;Times New Roman&quot;&gt;&lt;span style=&quot;font-size: 18px&quot;&gt;ICA&lt;/span&gt;&lt;/font&gt;" style="text;html=1;strokeColor=none;fillColor=none;align=center;verticalAlign=middle;whiteSpace=wrap;rounded=0;" vertex="1" parent="1">
          <mxGeometry x="50" y="84" width="70" height="20" as="geometry" />
        </mxCell>
        <mxCell id="JDvXGBGlwjeCY7y2N17N-7" value="&lt;font face=&quot;Times New Roman&quot;&gt;&lt;span style=&quot;font-size: 18px&quot;&gt;CHROM&lt;/span&gt;&lt;/font&gt;" style="text;html=1;strokeColor=none;fillColor=none;align=center;verticalAlign=middle;whiteSpace=wrap;rounded=0;" vertex="1" parent="1">
          <mxGeometry x="48" y="150" width="70" height="20" as="geometry" />
        </mxCell>
        <mxCell id="JDvXGBGlwjeCY7y2N17N-9" value="&lt;font face=&quot;Times New Roman&quot;&gt;&lt;span style=&quot;font-size: 18px&quot;&gt;LGI&lt;/span&gt;&lt;/font&gt;" style="text;html=1;strokeColor=none;fillColor=none;align=center;verticalAlign=middle;whiteSpace=wrap;rounded=0;" vertex="1" parent="1">
          <mxGeometry x="50" y="210" width="70" height="20" as="geometry" />
        </mxCell>
        <mxCell id="JDvXGBGlwjeCY7y2N17N-15" value="&lt;font face=&quot;Times New Roman&quot;&gt;&lt;span style=&quot;font-size: 18px&quot;&gt;SSR&lt;/span&gt;&lt;/font&gt;" style="text;html=1;strokeColor=none;fillColor=none;align=center;verticalAlign=middle;whiteSpace=wrap;rounded=0;" vertex="1" parent="1">
          <mxGeometry x="50" y="270" width="70" height="20" as="geometry" />
        </mxCell>
        <mxCell id="JDvXGBGlwjeCY7y2N17N-17" value="&lt;font face=&quot;Times New Roman&quot;&gt;&lt;span style=&quot;font-size: 18px&quot;&gt;GREEN&lt;/span&gt;&lt;/font&gt;" style="text;html=1;strokeColor=none;fillColor=none;align=center;verticalAlign=middle;whiteSpace=wrap;rounded=0;" vertex="1" parent="1">
          <mxGeometry x="50" y="335" width="70" height="20" as="geometry" />
        </mxCell>
        <mxCell id="JDvXGBGlwjeCY7y2N17N-18" value="&lt;p style=&quot;margin-top: 0pt ; margin-bottom: 0pt ; margin-left: 0in ; direction: ltr ; unicode-bidi: embed ; word-break: normal&quot;&gt;&lt;span style=&quot;color: black&quot;&gt;&lt;font face=&quot;Times New Roman&quot; style=&quot;font-size: 18px&quot;&gt;Ground True&lt;/font&gt;&lt;/span&gt;&lt;/p&gt;" style="text;whiteSpace=wrap;html=1;align=left;" vertex="1" parent="1">
          <mxGeometry x="20" y="390" width="108.5" height="30" as="geometry" />
        </mxCell>
      </root>
    </mxGraphModel>
  </diagram>
</mxfile>
